<svg xmlns="http://www.w3.org/2000/svg" fill="none" viewBox="21.9 63.1 790.22 289.85">
<path d="M758.029 306.421C758.029 306.421 759.796 297.092 749.062 293.717C738.328 290.342 535.442 289.926 531.799 291.921C528.156 293.916 519.464 306.412 519.464 306.412L758.029 306.421Z" fill="#C0D4FF"/>
<path d="M762.772 168.501H519.467V207.498H762.772V168.501Z" fill="#AEC3FF"/>
<path d="M762.395 305.806H519.467V344.803H762.395V305.806Z" fill="#AEC3FF"/>
<path d="M528.945 322.457H519.467V352.293H528.945V322.457Z" fill="#AEC3FF"/>
<path d="M762.769 312.623H753.29V352.293H762.769V312.623Z" fill="#AEC3FF"/>
<path d="M762.769 174.232H758.029V332.46H762.769V174.232Z" fill="#AEC3FF"/>
<path d="M762.772 104.585H727.849V175.545H762.772V104.585Z" fill="#AEC3FF"/>
<path d="M498.486 134.415H372.884V352.948H498.486V134.415Z" fill="#AEC3FF"/>
<path d="M436.32 134.415H435.05V352.948H436.32V134.415Z" fill="#0B0755"/>
<path d="M440.474 243.711C440.55 243.191 440.779 242.705 441.131 242.315C441.483 241.925 441.943 241.648 442.452 241.519C442.962 241.39 443.499 241.415 443.994 241.591C444.489 241.767 444.921 242.086 445.235 242.507C445.549 242.928 445.731 243.433 445.758 243.958C445.785 244.483 445.656 245.004 445.386 245.455C445.117 245.906 444.719 246.267 444.245 246.493C443.77 246.718 443.239 246.798 442.719 246.722C442.373 246.671 442.041 246.554 441.742 246.375C441.442 246.197 441.18 245.961 440.972 245.681C440.764 245.401 440.612 245.083 440.527 244.745C440.442 244.407 440.424 244.056 440.474 243.711V243.711Z" fill="#0B0755"/>
<path d="M432 138.023H376.582V349.154H432V138.023Z" fill="#8C9DF4"/>
<path d="M432 241.869H396.115V245.666H432V241.869Z" fill="#6980E2"/>
<path d="M432 161.84H396.115V163.74H432V161.84Z" fill="#6980E2"/>
<path d="M432 278.381H396.115V282.178H432V278.381Z" fill="#6980E2"/>
<path d="M432 314.89H396.115V318.688H432V314.89Z" fill="#6980E2"/>
<path d="M428.011 237.658H414.056C413.229 237.658 412.556 238.65 412.556 239.874C412.556 241.098 413.229 242.089 414.056 242.089H428.011C428.84 242.089 429.514 241.098 429.514 239.874C429.514 238.65 428.84 237.658 428.011 237.658Z" fill="#F03E51"/>
<path d="M428.011 233.225H414.056C413.229 233.225 412.556 234.219 412.556 235.44C412.556 236.664 413.229 237.658 414.056 237.658H428.011C428.84 237.658 429.514 236.664 429.514 235.44C429.514 234.216 428.84 233.225 428.011 233.225Z" fill="#2B478B"/>
<path d="M428.011 228.794H414.056C413.229 228.794 412.556 229.786 412.556 231.01C412.556 232.234 413.229 233.225 414.056 233.225H428.011C428.84 233.225 429.514 232.234 429.514 231.01C429.514 229.786 428.84 228.794 428.011 228.794Z" fill="#F03E51"/>
<path d="M427.285 157.41H406.678C406.09 157.41 405.526 157.643 405.11 158.058C404.694 158.474 404.461 159.037 404.461 159.625C404.461 160.212 404.694 160.776 405.11 161.191C405.526 161.607 406.09 161.84 406.678 161.84H427.285C427.873 161.84 428.437 161.607 428.853 161.191C429.268 160.776 429.502 160.212 429.502 159.625C429.502 159.037 429.268 158.474 428.853 158.058C428.437 157.643 427.873 157.41 427.285 157.41Z" fill="#060633"/>
<path d="M427.285 152.976H406.678C406.089 152.977 405.526 153.211 405.11 153.627C404.694 154.043 404.461 154.606 404.461 155.194V155.194C404.461 155.782 404.694 156.345 405.11 156.761C405.526 157.176 406.09 157.41 406.678 157.41H427.285C427.873 157.41 428.437 157.176 428.853 156.761C429.268 156.345 429.502 155.782 429.502 155.194V155.194C429.502 154.606 429.268 154.043 428.853 153.627C428.437 153.211 427.873 152.977 427.285 152.976V152.976Z" fill="#3862C1"/>
<path d="M427.285 148.545H406.678C406.09 148.545 405.526 148.779 405.11 149.194C404.694 149.61 404.461 150.173 404.461 150.761C404.461 151.348 404.694 151.912 405.11 152.327C405.526 152.743 406.09 152.976 406.678 152.976H427.285C427.873 152.976 428.437 152.743 428.853 152.327C429.268 151.912 429.502 151.348 429.502 150.761C429.502 150.173 429.268 149.61 428.853 149.194C428.437 148.779 427.873 148.545 427.285 148.545Z" fill="#F03E51"/>
<path d="M405.024 134.415H377.311V352.948H405.024V134.415Z" fill="#6980E2"/>
<path d="M402.811 134.415H375.098V352.948H402.811V134.415Z" fill="#6980E2"/>
<path d="M372.884 154.827H371.46V165.166H372.884V154.827Z" fill="#6980E2"/>
<path d="M372.884 247.141H371.46V257.477H372.884V247.141Z" fill="#6980E2"/>
<path d="M402.811 134.415H375.098V352.948H402.811V134.415Z" fill="#6980E2"/>
<path d="M400.597 134.415H372.884V352.948H400.597V134.415Z" fill="#6980E2"/>
<path d="M399.786 244.075C399.786 245.853 398.966 247.297 397.949 247.297C396.933 247.297 396.112 245.853 396.112 244.075C396.112 242.297 396.933 240.85 397.949 240.85C398.966 240.85 399.786 242.294 399.786 244.075Z" fill="#233862"/>
<path d="M438.521 103.294C438.521 103.294 443.469 97.5235 438.828 93.8579C438.828 93.8579 435.435 91.8047 432.668 91.973C432.668 91.973 436.587 98.5393 435.319 99.1941C434.052 99.8489 431.48 91.5447 431.48 91.5447C431.48 91.5447 423.762 90.7981 421.279 91.9914C421.279 91.9914 427.876 97.3858 426.483 97.7071C425.09 98.0283 417.969 92.7319 417.969 92.7319C417.969 92.7319 410.783 93.9558 411.166 98.3343C411.549 102.713 414.026 104.065 415.113 103.949C416.199 103.833 422.564 101.406 422.705 102.297C422.846 103.187 419.013 106.1 416.328 106.235C416.328 106.235 421.395 111.819 424.76 110.212C428.124 108.606 428.412 106.048 430.512 105.09C432.613 104.133 434.401 104.136 433.534 105.112C432.668 106.088 428.871 107.036 427.671 109.16C426.471 111.283 425.393 112.712 428.877 112.186C432.362 111.66 438.022 109.126 438.27 106.201L438.521 103.294Z" fill="#AEC3FF"/>
<path d="M414.699 98.4689C414.699 98.4689 434.211 97.7162 438.522 103.294C439.358 105.395 440.689 107.264 442.401 108.744L442.857 109.989C442.857 109.989 439.489 106.424 438.264 106.21C438.274 106.21 440.166 99.3012 414.699 98.4689Z" fill="#C1D1FE"/>
<path d="M442.4 108.744C442.4 108.744 446.588 111.84 446.879 117.369L446.12 117.437C446.12 117.437 444.782 111.718 442.363 109.481C439.945 107.244 442.4 108.744 442.4 108.744Z" fill="#C1D1FE"/>
<path d="M455.826 96.0365C455.826 96.0365 447.951 91.6304 451.625 85.6516C451.625 85.6516 454.564 81.9798 457.715 81.0344C457.715 81.0344 456.034 89.9536 457.715 90.1617C459.395 90.3698 458.869 80.092 458.869 80.092C458.869 80.092 467.16 76.1142 470.414 76.4202C470.414 76.4202 465.271 85.1283 466.951 84.9172C468.632 84.7061 474.403 75.9 474.403 75.9C474.403 75.9 482.905 74.3273 484.271 79.3637C485.636 84.4001 483.426 86.9153 482.171 87.2212C480.915 87.5272 472.83 87.4324 473.038 88.4819C473.246 89.5314 478.708 91.2081 481.751 90.2627C481.751 90.2627 478.383 98.5516 473.984 98.1324C469.584 97.7132 468.21 94.9839 465.482 94.7667C462.754 94.5494 460.758 95.2899 462.114 96.0242C463.47 96.7586 468.096 96.266 470.301 98.1385C472.505 100.011 474.281 101.165 470.197 102.003C466.113 102.841 458.753 102.309 457.286 99.1728L455.826 96.0365Z" fill="#8C9DF4"/>
<path d="M480.386 80.9303C480.386 80.9303 458.342 88.0627 455.826 96.0365C455.826 96.0365 455.93 99.6042 453.726 103.686V105.274C453.726 105.274 456.034 99.9254 457.295 99.1911C457.295 99.185 452.36 92.2607 480.386 80.9303Z" fill="#C1D1FE"/>
<path d="M453.728 103.695C453.728 103.695 450.326 108.854 452.267 115.133L453.14 114.9C453.14 114.9 452.292 107.982 454.058 104.497C455.825 101.012 453.728 103.695 453.728 103.695Z" fill="#C1D1FE"/>
<path d="M443.3 89.975C443.3 89.975 453.676 84.1614 448.832 76.2855C448.832 76.2855 444.96 71.4449 440.808 70.2027C440.808 70.2027 443.022 81.9553 440.808 82.2307C438.595 82.5061 439.277 68.9573 439.277 68.9573C439.277 68.9573 428.347 63.7006 424.058 64.1168C424.058 64.1168 430.836 75.594 428.623 75.3186C426.409 75.0432 418.826 63.41 418.826 63.41C418.826 63.41 407.617 61.3354 405.817 67.9721C404.017 74.6088 406.925 77.9286 408.573 78.3447C410.22 78.7609 420.886 78.6201 420.611 80.0031C420.335 81.3862 413.137 83.5984 409.127 82.3561C409.127 82.3561 413.554 93.2795 419.365 92.7257C425.176 92.1719 426.976 88.5767 430.573 88.3013C434.171 88.0259 436.8 88.9928 435 89.9597C433.2 90.9266 427.114 90.2657 424.208 92.7471C421.303 95.2286 418.951 96.7249 424.346 97.8417C429.74 98.9585 439.427 98.2578 441.365 94.1088L443.3 89.975Z" fill="#8C9DF4"/>
<path d="M410.921 70.0466C410.921 70.0466 439.978 79.4524 443.3 89.9597C443.3 89.9597 443.163 94.6626 446.056 100.057V102.132C446.056 102.132 442.994 95.0787 441.35 94.1118C441.362 94.1088 447.865 84.9814 410.921 70.0466Z" fill="#D2E0FF"/>
<path d="M446.074 100.054C446.074 100.054 450.553 106.856 448 115.133L446.846 114.827C446.846 114.827 447.966 105.708 445.621 101.125C443.276 96.5413 446.074 100.054 446.074 100.054Z" fill="#C1D1FE"/>
<path d="M443.649 133.084C440.98 133.085 438.336 132.56 435.87 131.539C433.404 130.518 431.162 129.022 429.275 127.136C427.387 125.249 425.889 123.01 424.868 120.545C423.846 118.08 423.32 115.438 423.32 112.77H463.975C463.975 118.158 461.834 123.325 458.022 127.134C454.21 130.944 449.04 133.084 443.649 133.084Z" fill="#AEC3FF"/>
<path d="M423.042 134.119H464.257C464.257 133.789 464.192 133.464 464.066 133.16C463.94 132.855 463.756 132.579 463.523 132.347C463.29 132.114 463.013 131.929 462.709 131.803C462.405 131.677 462.079 131.613 461.75 131.613H425.562C425.232 131.613 424.906 131.677 424.602 131.803C424.298 131.929 424.021 132.114 423.789 132.347C423.556 132.579 423.371 132.855 423.245 133.16C423.119 133.464 423.054 133.789 423.054 134.119H423.042Z" fill="#C1D1FE"/>
<path d="M422.861 113.392H464.646V112.767H422.861V113.392Z" fill="#9FC1F4"/>
<path d="M248.501 166.809H222.756C221.569 166.809 220.606 167.771 220.606 168.957V193.793C220.606 194.98 221.569 195.941 222.756 195.941H248.501C249.688 195.941 250.65 194.98 250.65 193.793V168.957C250.65 167.771 249.688 166.809 248.501 166.809Z" fill="#8C9DF4"/>
<path d="M247.389 168.073H223.873C222.789 168.073 221.91 168.951 221.91 170.034V192.719C221.91 193.803 222.789 194.681 223.873 194.681H247.389C248.473 194.681 249.351 193.803 249.351 192.719V170.034C249.351 168.951 248.473 168.073 247.389 168.073Z" fill="#DFEBFD"/>
<path d="M235.008 170.729C235.008 170.608 235.044 170.489 235.111 170.389C235.178 170.288 235.274 170.21 235.386 170.163C235.498 170.117 235.621 170.105 235.74 170.129C235.858 170.152 235.967 170.21 236.053 170.296C236.139 170.382 236.197 170.491 236.221 170.609C236.244 170.728 236.232 170.851 236.186 170.963C236.14 171.075 236.061 171.17 235.96 171.238C235.86 171.305 235.741 171.341 235.62 171.341C235.458 171.341 235.302 171.276 235.187 171.162C235.072 171.047 235.008 170.891 235.008 170.729Z" fill="#8C9DF4"/>
<path d="M240.029 171.61C240.089 171.506 240.178 171.421 240.286 171.368C240.393 171.314 240.514 171.293 240.634 171.308C240.753 171.322 240.866 171.372 240.957 171.45C241.049 171.528 241.115 171.631 241.148 171.747C241.181 171.862 241.18 171.985 241.143 172.1C241.107 172.214 241.038 172.316 240.944 172.391C240.85 172.467 240.737 172.513 240.617 172.524C240.497 172.536 240.377 172.511 240.271 172.455C240.198 172.416 240.135 172.363 240.083 172.299C240.032 172.236 239.993 172.162 239.971 172.083C239.948 172.005 239.942 171.922 239.952 171.841C239.962 171.76 239.988 171.681 240.029 171.61Z" fill="#8C9DF4"/>
<path d="M244.331 175.037C244.432 174.973 244.551 174.941 244.671 174.944C244.791 174.947 244.908 174.986 245.007 175.055C245.105 175.124 245.181 175.22 245.225 175.332C245.269 175.444 245.279 175.566 245.254 175.684C245.229 175.801 245.17 175.909 245.084 175.993C244.998 176.077 244.889 176.134 244.771 176.157C244.653 176.179 244.531 176.167 244.42 176.121C244.309 176.074 244.214 175.997 244.147 175.897C244.101 175.829 244.07 175.752 244.054 175.672C244.039 175.591 244.039 175.508 244.056 175.428C244.074 175.348 244.107 175.272 244.154 175.205C244.201 175.138 244.261 175.08 244.331 175.037V175.037Z" fill="#8C9DF4"/>
<path d="M246.458 180.312C246.579 180.312 246.698 180.348 246.798 180.415C246.899 180.482 246.977 180.578 247.024 180.69C247.07 180.802 247.082 180.925 247.059 181.043C247.035 181.162 246.977 181.271 246.891 181.357C246.805 181.442 246.696 181.501 246.577 181.524C246.459 181.548 246.336 181.536 246.224 181.489C246.112 181.443 246.016 181.365 245.949 181.264C245.882 181.163 245.846 181.045 245.846 180.924C245.846 180.762 245.91 180.606 246.025 180.491C246.14 180.377 246.296 180.312 246.458 180.312Z" fill="#8C9DF4"/>
<path d="M245.375 186.45C245.459 186.536 245.515 186.645 245.537 186.764C245.56 186.882 245.546 187.004 245.499 187.115C245.453 187.225 245.374 187.32 245.274 187.386C245.174 187.453 245.056 187.488 244.936 187.488C244.815 187.488 244.698 187.453 244.597 187.386C244.497 187.32 244.418 187.225 244.372 187.115C244.325 187.004 244.312 186.882 244.334 186.764C244.356 186.645 244.412 186.536 244.496 186.45C244.553 186.391 244.622 186.345 244.697 186.313C244.773 186.281 244.854 186.264 244.936 186.264C245.017 186.264 245.099 186.281 245.174 186.313C245.25 186.345 245.318 186.391 245.375 186.45V186.45Z" fill="#8C9DF4"/>
<path d="M241.027 191.425C241.37 191.425 241.648 191.147 241.648 190.804C241.648 190.461 241.37 190.183 241.027 190.183C240.684 190.183 240.405 190.461 240.405 190.804C240.405 191.147 240.684 191.425 241.027 191.425Z" fill="#8C9DF4"/>
<path d="M235.008 192.383C235.008 192.262 235.044 192.143 235.111 192.043C235.178 191.942 235.274 191.864 235.386 191.817C235.498 191.771 235.621 191.759 235.74 191.783C235.858 191.806 235.967 191.865 236.053 191.95C236.139 192.036 236.197 192.145 236.221 192.263C236.244 192.382 236.232 192.505 236.186 192.617C236.14 192.729 236.061 192.824 235.96 192.892C235.86 192.959 235.741 192.995 235.62 192.995C235.458 192.995 235.302 192.93 235.187 192.816C235.072 192.701 235.008 192.545 235.008 192.383Z" fill="#8C9DF4"/>
<path d="M231.212 171.61C231.152 171.506 231.062 171.421 230.955 171.368C230.847 171.314 230.726 171.293 230.606 171.308C230.487 171.322 230.375 171.372 230.283 171.45C230.192 171.528 230.125 171.631 230.092 171.747C230.059 171.862 230.061 171.985 230.097 172.1C230.133 172.214 230.203 172.316 230.296 172.391C230.39 172.467 230.504 172.513 230.623 172.524C230.743 172.536 230.864 172.511 230.97 172.455C231.042 172.416 231.106 172.363 231.157 172.299C231.209 172.236 231.247 172.162 231.269 172.083C231.292 172.005 231.298 171.922 231.289 171.841C231.279 171.76 231.252 171.681 231.212 171.61Z" fill="#8C9DF4"/>
<path d="M226.907 175.037C226.804 174.974 226.686 174.942 226.566 174.945C226.445 174.949 226.329 174.988 226.231 175.057C226.133 175.127 226.057 175.223 226.013 175.335C225.97 175.447 225.96 175.57 225.986 175.687C226.011 175.804 226.071 175.912 226.157 175.996C226.243 176.079 226.352 176.136 226.47 176.158C226.588 176.181 226.71 176.168 226.821 176.121C226.932 176.075 227.027 175.997 227.093 175.897C227.139 175.829 227.17 175.752 227.186 175.671C227.201 175.59 227.2 175.508 227.182 175.427C227.165 175.347 227.132 175.271 227.084 175.204C227.037 175.137 226.976 175.08 226.907 175.037Z" fill="#8C9DF4"/>
<path d="M224.776 180.312C224.655 180.312 224.537 180.348 224.436 180.415C224.335 180.482 224.257 180.578 224.211 180.69C224.164 180.802 224.152 180.925 224.176 181.043C224.199 181.162 224.258 181.271 224.343 181.357C224.429 181.442 224.538 181.501 224.657 181.524C224.776 181.548 224.899 181.536 225.011 181.489C225.123 181.443 225.218 181.365 225.286 181.264C225.353 181.163 225.389 181.045 225.389 180.924C225.389 180.762 225.324 180.606 225.209 180.491C225.095 180.377 224.939 180.312 224.776 180.312Z" fill="#8C9DF4"/>
<path d="M226.307 187.512C226.65 187.512 226.929 187.234 226.929 186.891C226.929 186.547 226.65 186.269 226.307 186.269C225.964 186.269 225.686 186.547 225.686 186.891C225.686 187.234 225.964 187.512 226.307 187.512Z" fill="#8C9DF4"/>
<path d="M230.213 191.425C230.557 191.425 230.835 191.147 230.835 190.804C230.835 190.461 230.557 190.183 230.213 190.183C229.87 190.183 229.592 190.461 229.592 190.804C229.592 191.147 229.87 191.425 230.213 191.425Z" fill="#8C9DF4"/>
<path d="M235.461 180.936C235.461 180.815 235.497 180.697 235.564 180.596C235.631 180.496 235.727 180.417 235.839 180.371C235.951 180.324 236.074 180.312 236.193 180.336C236.311 180.36 236.421 180.418 236.506 180.503C236.592 180.589 236.65 180.698 236.674 180.817C236.697 180.936 236.685 181.059 236.639 181.17C236.593 181.282 236.514 181.378 236.413 181.445C236.313 181.512 236.194 181.548 236.073 181.548C235.911 181.548 235.755 181.484 235.64 181.369C235.525 181.254 235.461 181.098 235.461 180.936Z" fill="#8C9DF4"/>
<path d="M236.168 173.164H236V180.933H236.168V173.164Z" fill="#6980E2"/>
<path d="M239.969 177.518L235.845 180.75L236.158 181.15L240.282 177.917L239.969 177.518Z" fill="#6980E2"/>
<path d="M576.957 192.606C573.706 191.526 571.446 192.888 571.446 192.888C562.087 193.273 561.741 202.86 562.84 206.427C564.371 211.439 558.922 215.392 564.983 217.418C572.01 219.774 577.906 216.056 577.502 217.268C599.726 219.018 584.351 195.057 576.957 192.606Z" fill="#2A539B"/>
<path d="M567.249 239.237C566.535 240.573 565.698 241.839 564.748 243.019C562.804 245.467 552.6 239.678 553.478 239.237C554.357 238.797 559.326 224.7 561.438 222.2C562.657 220.793 564.285 219.8 566.095 219.361L567.249 239.237Z" fill="#2B478B"/>
<path d="M601.686 338.818C601.686 338.818 604.502 341.385 603.954 343.212C603.406 345.038 600.862 346.253 600.519 348.484C600.176 350.714 598.802 351.932 597.565 351.932H591.671C591.671 351.932 590.753 350.362 592.957 349.888C595.161 349.414 595.985 346.795 595.847 344.359C595.79 342.464 595.86 340.566 596.055 338.68L600.724 337.6L601.686 338.818Z" fill="#4075C1"/>
<path d="M577.849 339.907C577.849 339.907 578.862 350.791 577.625 351.4L561.8 351.366C561.8 351.366 561.8 349.53 564.341 349.136C566.882 348.741 571.349 347.242 572.105 343.934C572.861 340.626 577.849 339.907 577.849 339.907Z" fill="#4075C1"/>
<path d="M590.022 231.897C590.163 234.331 590.163 236.772 590.022 239.207C589.866 241.85 587.19 245.391 586.81 246.266C585.858 248.463 584.783 248.821 584.783 248.821L576.474 250.855L573.553 251.571L564.341 248.817C564.341 248.817 560.144 237.111 561.83 230.523C562.803 226.646 564.233 222.898 566.089 219.358C566.089 219.358 572.35 217.95 583.396 218.746L590.022 231.897Z" fill="#2B478B"/>
<path d="M590.814 239.292C590.655 241.933 587.189 245.381 586.809 246.256C585.857 248.453 584.783 248.811 584.783 248.811L576.473 250.846L574.257 247.722C574.257 247.722 587.709 243.983 585.162 232.132L590.814 239.292Z" fill="#163560"/>
<path d="M564.925 250.614C564.925 250.614 560.363 264.805 560.07 269.636C559.776 274.468 568.792 338.283 569.156 340.51C569.496 342.606 572.105 343.946 572.105 343.946C573.011 344.39 574.053 344.47 575.016 344.17C577.392 343.499 578.142 342.698 578.142 342.698C578.142 342.698 581.693 297.187 579.495 280.93C578.157 270.877 577.415 260.754 577.273 250.614H564.925Z" fill="#DA384A"/>
<path d="M584.256 250.173C584.256 250.173 591.215 259.505 591.864 265.815C592.513 272.124 592.884 294.271 594.265 300.433C595.645 306.595 600.725 318.418 600.725 337.6C600.725 337.6 600.198 338.699 598.582 339.286C597.959 339.494 597.325 339.669 596.683 339.809C596.03 339.959 595.346 339.884 594.74 339.597C594.135 339.31 593.644 338.827 593.346 338.227C589.911 331.318 578.975 309.034 578.415 304.411C578.017 301.137 574.563 279.47 567.032 266.775C565.222 263.716 568.143 251.587 568.143 251.587L584.256 250.173Z" fill="#F03E51"/>
<path d="M564.197 248.407C564.197 248.407 566.034 249.855 569.668 249.937C574.016 250.023 584.783 248.83 584.783 248.83C585.08 249.718 585.235 250.647 585.243 251.584C585.243 251.584 572.078 254.897 564.47 252.067C564.47 252.052 563.487 250.204 564.197 248.407Z" fill="#163560"/>
<path d="M568.626 253.673C567.53 253.673 566.643 252.667 566.643 251.431C566.643 250.194 567.53 249.188 568.626 249.188C569.722 249.188 570.607 250.194 570.607 251.431C570.607 252.667 569.719 253.673 568.626 253.673ZM568.626 249.846C567.895 249.846 567.298 250.555 567.298 251.431C567.298 252.306 567.91 253.016 568.626 253.016C569.343 253.016 569.952 252.306 569.952 251.431C569.952 250.555 569.355 249.843 568.626 249.843V249.846Z" fill="white"/>
<path d="M578.127 257.752L558.359 257.936L548.632 235.088L568.401 234.905L578.127 257.752Z" fill="#B64C41"/>
<path d="M575.543 247.425L574.092 245.648C574.092 245.648 573.112 244.772 572.402 244.623C571.692 244.473 570.186 243.61 570.042 243.855C569.898 244.099 571.196 245.837 571.196 245.837H571.26C569.769 246.96 566 245.969 565.535 246.428C564.972 246.982 566.313 248.181 567.032 248.854C567.752 249.527 569.806 250.65 571.407 250.152C572.58 249.787 574.423 249.417 574.423 249.417L575.543 247.425Z" fill="#FFB27D"/>
<path d="M550.117 239.109C550.117 239.109 551.36 237.695 552.15 238.374C552.939 239.054 551.944 242.38 551.191 242.046C550.438 241.713 549.685 239.522 550.117 239.109Z" fill="#FFB27D"/>
<path d="M583.396 218.737C583.396 218.737 589.988 219.199 592.514 225.337C595.039 231.475 599.687 241.581 598.686 245.816C598.288 247.502 593.481 253.346 573.458 249.634C573.458 249.634 573.623 247.539 574.989 246.575C574.989 246.575 589.103 242.046 589.072 241.144C589.026 239.442 587.165 237.968 579.275 230.089C577.129 227.931 583.396 218.737 583.396 218.737Z" fill="#2B478B"/>
<path d="M579.039 219.037C579.235 218.777 578.984 217.944 578.672 216.396C578.39 214.995 577.912 212.828 577.925 210.39L577.505 210.457L570.494 211.638C570.494 211.638 570.653 213.511 570.656 215.276V215.322C570.656 216.852 570.243 219.171 570.76 219.474C573.418 221.032 578.292 220.04 579.039 219.037Z" fill="#FFB27D"/>
<path d="M570.494 211.638C570.494 211.638 570.632 214.279 570.638 216.047C574.563 215.952 576.657 212.143 577.505 210.457L570.494 211.638Z" fill="#E8945B"/>
<path d="M570.069 214.79C570.069 214.79 579.254 213.48 578.36 207.771C577.466 202.061 578.035 198.047 572.126 198.64C566.217 199.234 565.424 201.593 565.262 203.573C565.1 205.552 567.653 214.982 570.069 214.79Z" fill="#FFB27D"/>
<path d="M567.926 199.166C567.926 199.166 571.505 205.463 575.515 205.84C579.526 206.216 581.026 204.922 581.026 204.922C578.86 203.555 577.236 201.479 576.434 199.047C576.434 199.047 569.313 195.675 567.926 199.166Z" fill="#2A539B"/>
<path d="M568.636 199.61C568.636 199.61 566.884 200.602 566.333 202.082C565.662 203.815 565.522 205.707 565.929 207.52C565.929 207.52 563.315 203.27 565.029 200.354C566.848 197.263 568.636 199.61 568.636 199.61Z" fill="#2A539B"/>
<path d="M203.144 244.193L202.086 244.362L204.085 256.809L205.143 256.64L203.144 244.193Z" fill="#B5453C"/>
<path d="M202.249 242.098L202.071 244.375L203.128 244.203L202.249 242.098Z" fill="#EFCBAB"/>
<path d="M214.822 243.801L213.771 243.608L211.502 255.959L212.552 256.152L214.822 243.801Z" fill="#B5453C"/>
<path d="M214.455 243.169L213.521 245.256L214.575 245.452L214.455 243.169Z" fill="#EFCBAB"/>
<path d="M213.21 241.826L212.159 241.631L209.857 254.023L210.907 254.218L213.21 241.826Z" fill="#B5453C"/>
<path d="M213.12 239.537L212.189 241.621L213.24 241.814L213.12 239.537Z" fill="#EFCBAB"/>
<path d="M214.462 249.457H206.033V261.598H214.462V249.457Z" fill="#DA384A"/>
<path d="M210.249 249.457H201.82V261.598H210.249V249.457Z" fill="#F03E51"/>
<path d="M680.685 149.968C680.685 149.968 685.583 133.118 700.759 123.789C700.759 123.789 724.162 124.37 738.552 135.489C738.552 135.489 719.499 160.861 721.346 176.922C721.346 176.922 689.931 169.765 680.685 149.968Z" fill="#F03E51"/>
<path d="M738.551 135.489C738.551 135.489 738.579 151.743 733.346 162.504C728.114 173.265 721.351 176.922 721.351 176.922C721.385 176.818 720.087 147.539 738.551 135.489Z" fill="#DA384A"/>
<path d="M677.871 135.355C677.871 135.355 678.584 114.548 683.884 105.516C689.184 96.4832 705.726 116.485 705.726 116.485L687.114 131.662L677.871 135.355Z" fill="#8C9DF4"/>
<path d="M564.252 164.049C564.252 164.049 550.242 163.398 548.332 162.213C546.422 161.029 542.172 160.298 540.678 158.811C539.184 157.324 537.172 155.751 536.346 157.226C535.296 159.105 538.161 164.719 539.493 165.613C540.825 166.506 545.035 168.345 546.936 170.411C548.837 172.476 551.097 172.133 552.597 170.677C554.097 169.22 567.136 166.858 567.136 166.858L564.252 164.049Z" fill="#F9DDBF"/>
<path d="M648.182 154.484C646.651 152.85 619.62 139.146 608.975 139.375C597.246 139.623 563.514 161.347 563.514 161.347L576.737 160.705C576.737 160.705 606.964 153.741 609.802 154.778C618.531 157.963 643.262 180.006 656.678 176.197C671.221 172.072 671.851 161.861 671.851 161.861L648.182 154.484Z" fill="#233862"/>
<path d="M693.665 166.724C693.325 167.124 692.976 167.519 692.615 167.902C690.82 169.79 688.814 171.465 686.636 172.895C675.446 180.343 661.038 181.87 661.038 181.87C644.41 175.187 646.746 149.723 646.746 149.723C669.096 149.469 686.241 123.792 686.241 123.792C686.241 123.792 699.632 130.737 705.957 140.247C709.344 145.336 708.281 158.352 707.706 161.204C706.637 166.555 701.08 157.902 693.665 166.724Z" fill="#8C9DF4"/>
<path d="M701.185 128.92C700.692 130.329 700.357 131.788 700.187 133.271C700.071 134.278 699.644 135.224 698.965 135.978C698.287 136.731 697.39 137.255 696.399 137.475C695.032 137.828 693.606 137.895 692.211 137.671C691.876 137.607 691.558 137.478 691.273 137.291C690.988 137.103 690.743 136.862 690.552 136.58C690.361 136.298 690.227 135.981 690.159 135.647C690.091 135.314 690.089 134.97 690.154 134.636C690.285 133.966 690.411 133.347 690.442 133.243L690.616 132.668C691.244 130.588 691.535 129.413 691.535 129.413C691.77 129.394 697.101 128.966 699.731 128.868C700.631 128.834 701.209 128.834 701.185 128.92Z" fill="#FFB27D"/>
<path d="M691.243 130.523C694.822 132.127 698.842 130.872 698.842 130.872C698.493 130.487 700.156 129.143 699.761 128.871C697.131 128.969 692.413 128.807 692.165 128.825L691.488 129.29C691.488 129.29 691.366 129.792 691.243 130.523Z" fill="#ED975D"/>
<path d="M690.062 128.81C691.126 129.418 692.246 129.924 693.405 130.321C696.201 131.279 700.022 131.799 701.901 128.562C705.061 123.112 708.309 120.114 702.902 116.558C700.009 114.655 698.004 114.187 696.544 114.417C695.27 114.6 694.4 115.304 693.705 116.029C692.208 117.58 687.885 127.304 690.062 128.81Z" fill="#FFB27D"/>
<path d="M693.923 112.247C693.46 112.674 693.135 113.228 692.988 113.84C692.841 114.452 692.879 115.093 693.098 115.683C693.316 116.273 693.705 116.785 694.215 117.154C694.725 117.522 695.333 117.732 695.962 117.755C697.07 117.791 697.973 117.834 698.429 118.156C699.761 119.095 699.538 121.598 699.409 122.381C699.28 123.164 699.253 123.844 701.332 123.773C701.585 123.741 701.84 123.808 702.045 123.96C702.694 124.541 701.552 126.319 701.001 127.02C700.848 127.211 700.732 127.429 700.658 127.662C700.487 128.21 700.312 129.165 700.885 129.856C700.989 129.979 702.807 131.245 709.068 124.853C709.802 124.02 710.326 123.023 710.596 121.947C710.866 120.87 710.874 119.744 710.621 118.664C709.953 115.934 705.336 112.128 701.154 110.742C696.681 109.252 694.183 112.005 693.923 112.247Z" fill="#233862"/>
<path d="M647.187 159.044C647.187 159.044 619.394 152.514 603.961 152.682C593.441 152.795 567.366 159.469 554.342 162.688C554.342 162.688 553.999 164.248 554.528 166.751C555.168 169.777 557.449 170.117 557.449 170.117C557.449 170.117 585.291 168.893 597.758 168.921C610.225 168.948 629.666 184.831 663.506 176.539L647.187 159.044Z" fill="#2B478B"/>
<path d="M679.248 153.423C679.248 153.423 674.065 152.177 672.099 152.789C670.134 153.401 667.292 156.287 667.727 156.424C671.707 157.691 672.427 155.617 673.762 156.033C675.096 156.449 675.987 156.599 677.696 156.051C678.82 155.735 680.011 155.745 681.131 156.079L682.129 154.197L679.248 153.423Z" fill="#FFB27D"/>
<path d="M671.922 152.85C671.922 152.85 668.431 153.215 668.554 153.548C668.676 153.882 670.59 154.05 670.59 154.05L671.922 152.85Z" fill="#FFB27D"/>
<path d="M692.615 167.902C690.82 169.79 688.814 171.465 686.636 172.895C680.966 168.715 677.714 158.275 677.662 158.098L692.615 167.902Z" fill="#6980E2"/>
<path d="M707.886 147.291C707.886 147.291 710.384 166.607 701.959 173.929C693.533 181.251 677.659 158.095 677.659 158.095C677.659 158.095 675.822 156.027 681.158 153.371L695.918 159.796C698.162 159.224 696.558 150.192 707.886 147.291Z" fill="#8C9DF4"/>
<path d="M684.79 154.953C684.79 154.953 693.038 160.154 695.423 158.973C697.808 157.792 696.142 151.789 696.142 151.789C696.142 151.789 696.684 159.79 684.79 154.953Z" fill="#6980E2"/>
<path d="M661.038 181.866C661.038 181.866 646.079 176.971 643.106 155.295C648.177 156.81 653.43 157.627 658.721 157.725L672.602 169.379L661.038 181.866Z" fill="#8C9DF4"/>
<path d="M676.604 159.521L658.724 157.737L658.896 156.014L675.207 157.641C675.622 157.682 676.004 157.887 676.268 158.21C676.533 158.533 676.658 158.947 676.616 159.362L676.601 159.517L676.604 159.521Z" fill="#DA384A"/>
<path d="M661.129 134.204L633.486 131.444L637.766 155.635L665.59 158.41L661.129 134.204Z" fill="#ED823A"/>
<path d="M633.079 131.404L637.359 155.592L665.183 158.367L660.722 134.161L633.079 131.404Z" fill="#F03E51"/>
<path d="M646.829 144.439C646.912 145.357 647.582 146.159 648.326 146.232C649.07 146.306 649.606 145.62 649.523 144.702C649.441 143.784 648.773 142.983 648.029 142.909C647.285 142.836 646.75 143.521 646.829 144.439Z" fill="white"/>
<path d="M509.486 329.369L508.133 335.061L506.336 342.609H500.721L500.387 335.379L500.13 329.801L509.486 329.369Z" fill="#FFB27D"/>
<path d="M527.277 205.467C527.277 205.467 531.719 200.715 534.606 204.441C537.494 208.168 540.696 210.68 545.129 213.544C549.562 216.408 541.213 238.867 535.66 238.405C530.106 237.943 507.453 220.239 527.277 205.467Z" fill="#9B3531"/>
<path d="M505.163 203.208C506.271 202.379 516.491 198.876 526.435 202.321C536.379 205.766 518.726 215.365 518.726 215.365L513.001 215.61L505.163 203.208Z" fill="#DA384A"/>
<path d="M498.501 350.901C498.501 350.901 498.501 348.147 498.893 347.229C499.285 346.311 500.73 342.597 500.73 342.597H506.345C506.345 342.597 507.389 345.99 507.453 347.098C507.517 348.205 507.453 350.889 507.453 350.889L498.501 350.901Z" fill="#233862"/>
<path d="M534.147 350.901C534.147 350.901 534.147 348.147 533.758 347.229C533.369 346.311 531.921 342.597 531.921 342.597H526.306C526.306 342.597 525.259 345.99 525.195 347.098C525.13 348.205 525.195 350.889 525.195 350.889L534.147 350.901Z" fill="#233862"/>
<path d="M511.657 196.719C511.657 196.719 511.458 202.838 510.674 205.577L504.475 218.933L527.813 213.388L522.247 205.702C522.247 205.702 520.566 197.502 521.448 194.467C522.33 191.431 511.657 196.719 511.657 196.719Z" fill="#FFB27D"/>
<path d="M511.623 197.563C511.623 197.563 513.46 202.003 516.944 201.905C520.428 201.807 521.212 197.878 521.212 197.878L511.623 197.563Z" fill="#ED985F"/>
<path d="M509.548 193.968C509.548 193.968 508.424 188.368 507.64 186.67C506.856 184.972 506.204 177.405 514.887 177.014C514.887 177.014 518.218 177.405 520.046 176.298C520.046 176.298 520.046 177.405 519.587 177.797C520.567 177.625 521.575 177.709 522.513 178.041C523.451 178.373 524.288 178.941 524.941 179.691C527.293 182.301 523.374 191.434 523.57 193.588L509.548 193.968Z" fill="#2C3A64"/>
<path d="M516.546 200.191C514.026 200.146 509.391 196.795 509.391 192.643V186.165C509.391 184.636 510.447 183.412 511.739 183.412H521.349C522.641 183.412 523.701 184.636 523.701 186.165V192.285C523.701 196.63 519.433 200.24 516.546 200.191Z" fill="#FFB27D"/>
<path d="M509.391 189.623C509.391 189.623 509.391 185.731 512.489 185.134C515.588 184.538 522.476 187.031 523.456 184.192C524.436 181.352 510.111 181.401 509.391 183.213C508.672 185.024 509.391 189.623 509.391 189.623Z" fill="#2C3A64"/>
<path d="M520.147 257.076C521.677 252.269 521.659 276.964 515.456 304.759C514.51 309 512.395 319.226 510.864 329.121H498.155C497.981 321.129 497.123 309.973 496.582 301.617C494.888 275.425 499.199 255.769 499.199 255.769L520.147 257.076Z" fill="#2B478B"/>
<path d="M536.453 301.617C536.312 309.628 534.686 320.282 534.539 328.063H521.647C520.78 322.402 519.403 316.573 518.417 311.87C517.713 308.532 517.192 305.751 517.21 304.022C517.226 300.62 515.067 290.81 513.791 282.163C513.791 282.163 513.791 282.138 513.791 282.126C513.742 281.796 513.693 281.462 513.647 281.135C511.929 268.975 512.535 257.076 512.535 257.076L534.273 255.717C534.273 255.717 536.826 280.26 536.453 301.617Z" fill="#2B478B"/>
<path d="M497.481 265.845C497.481 265.845 502.38 271.769 515.673 270.915C528.967 270.062 535.314 267.745 535.314 267.745L497.481 265.845Z" fill="#233862"/>
<path d="M535.313 267.748C530.969 268.339 501.422 269.89 497.481 265.848C493.541 261.806 503.911 206.868 503.911 206.868C503.911 206.868 505.086 206.528 507.067 206.155C508.077 205.965 509.296 205.766 510.677 205.601C510.677 206.03 511.035 212.507 516.417 215.184C516.417 215.184 522.88 212.596 522.234 205.699C522.234 205.619 522.234 205.54 522.207 205.463C523.07 205.555 523.943 205.675 524.821 205.828C526.635 206.135 528.423 206.576 530.17 207.149C530.17 207.149 539.658 267.158 535.313 267.748Z" fill="#F03E51"/>
<path d="M497.73 239.378C497.555 239.604 498.734 241.297 500.396 243.472C503.816 247.936 509.275 254.435 509.275 254.435C509.247 255.652 509.119 256.865 508.892 258.061C501.382 254.515 496.3 251.195 492.935 248.53C488.199 244.782 486.843 242.325 486.843 242.325C494.432 210.234 504.171 206.892 504.171 206.892L507.349 226.23C507.349 226.23 498.262 238.68 497.73 239.378Z" fill="#F03E51"/>
<path d="M524.834 205.831L522.874 211.782L520.266 215.61L516.522 217.641L512.995 215.61L507.067 206.152C508.078 205.962 509.296 205.763 510.677 205.598C510.753 206.446 511.003 207.269 511.412 208.015C513.555 212.146 519.589 212.18 521.705 208.04C522.085 207.32 522.271 206.515 522.247 205.702C522.242 205.623 522.233 205.544 522.219 205.466C523.083 205.558 523.955 205.678 524.834 205.831Z" fill="white"/>
<path d="M509.284 254.438C509.284 254.5 509.284 254.561 509.284 254.622C509.266 255.029 509.241 255.408 509.214 255.754C509.028 256.014 508.823 256.259 508.602 256.488C508.268 256.823 507.899 257.122 507.502 257.379L506.936 257.1C500.507 253.915 496.024 250.953 492.963 248.533C494.904 247.921 497.629 246.572 500.415 243.472C503.813 247.936 509.284 254.438 509.284 254.438Z" fill="#FFB27D"/>
<path d="M546.593 241.144C546.593 241.144 545.283 243.628 540.623 247.465C537.307 250.194 532.292 253.609 524.849 257.299C524.6 256.108 524.45 254.898 524.399 253.683C524.399 253.683 529.742 247.08 533.076 242.551C534.696 240.345 535.831 238.631 535.66 238.405C535.237 237.873 529.537 230.379 526.993 227.035L525.768 225.444L528.989 206.433C528.989 206.433 538.391 209.206 546.593 241.144Z" fill="#F03E51"/>
<path d="M540.623 247.465C537.598 249.953 533.156 253.015 526.751 256.338L526.267 256.586C525.516 255.637 524.966 254.545 524.65 253.377C524.758 253.242 524.895 253.071 525.067 252.859C526.598 250.944 530.458 246.11 533.073 242.551C535.917 245.592 538.666 246.905 540.623 247.465Z" fill="#FFB27D"/>
<path d="M522.219 205.466C518.379 205.079 514.508 205.123 510.677 205.598C510.677 205.591 510.677 205.584 510.677 205.577C510.677 205.577 521.359 198.971 522.219 205.466Z" fill="#FFB27D"/>
<path d="M511.504 224.143H511.286L511.124 213.85H511.678L511.504 224.143Z" fill="#DA384A"/>
<path d="M511.262 223.877C511.063 224.183 510.615 225.171 510.912 225.279C511.209 225.386 511.733 225.389 511.874 225.248C512.015 225.107 511.641 223.308 511.262 223.877Z" fill="#DA384A"/>
<path d="M521.619 224.143H521.399L521.236 213.85H521.79L521.619 224.143Z" fill="#DA384A"/>
<path d="M521.389 223.877C521.19 224.183 520.74 225.171 521.037 225.279C521.334 225.386 521.858 225.389 521.998 225.248C522.139 225.107 521.753 223.308 521.389 223.877Z" fill="#DA384A"/>
<path d="M512.995 215.61L503.914 206.859C503.914 206.859 501.869 205.405 505.099 203.239C508.329 201.073 512.995 215.61 512.995 215.61Z" fill="#DA384A"/>
<path d="M520.266 215.61L529.349 206.859C529.349 206.859 531.394 205.405 528.164 203.239C524.934 201.073 520.266 215.61 520.266 215.61Z" fill="#DA384A"/>
<path d="M531.664 258.193C529.895 258.343 528.419 257.887 527.28 256.883C527.091 256.714 526.914 256.531 526.751 256.335C525.934 255.317 525.358 254.128 525.067 252.856C524.871 252.105 524.75 251.336 524.705 250.562V250.308H510.034V250.58C510.129 251.97 509.867 253.361 509.275 254.622C509.006 255.174 508.652 255.68 508.225 256.121C507.84 256.506 507.405 256.838 506.933 257.109C505.652 257.811 504.218 258.187 502.757 258.202H502.484V264.383H531.968V258.171L531.664 258.193Z" fill="#DA384A"/>
<path d="M535.66 238.405C535.66 238.405 527.482 227.696 533.957 224.56C536.526 223.336 540.142 238.023 538.204 239.421C536.266 240.819 533.072 242.548 533.072 242.548L535.66 238.405Z" fill="#DA384A"/>
<path d="M498.672 236.636C498.672 236.636 501.513 223.173 499.018 224.559C496.523 225.946 492.834 238.023 494.772 239.421C496.71 240.819 499.903 242.548 499.903 242.548L498.672 236.636Z" fill="#DA384A"/>
<path d="M534.515 238.374C530.78 233.742 529.387 226.218 529.576 218.455C529.674 214.68 530.006 210.914 530.572 207.18L533.633 209.567C533.633 209.609 531.876 212.798 531.741 218.471C531.616 223.672 531.371 227.607 534.304 236.636L534.515 238.374Z" fill="#9B3531"/>
<path d="M506.161 332.004H499.582C499 332.071 498.088 331.217 498.088 330C498.088 330 498.088 327.081 497.882 326.56C497.034 324.284 498.293 324.162 499.511 324.162H511.516C512.74 324.162 510.87 327.925 510.87 329.143L511.301 330.74C511.301 331.937 507.38 332.004 506.161 332.004Z" fill="#233862"/>
<path d="M508.133 335.064L506.335 342.612H500.72L500.387 335.37C501.223 335.676 504.039 336.468 508.133 335.064Z" fill="white"/>
<path d="M523.175 329.369L524.528 335.061L526.325 342.609H531.94L532.274 335.379L532.534 329.801L523.175 329.369Z" fill="#FFB27D"/>
<path d="M526.499 332.004H533.078C533.66 332.071 534.573 331.217 534.573 330C534.573 330 534.573 327.081 534.778 326.56C535.626 324.284 534.367 324.162 533.146 324.162H521.144C519.92 324.162 521.79 327.925 521.79 329.143L521.359 330.74C521.359 331.937 525.281 332.004 526.499 332.004Z" fill="#233862"/>
<path d="M524.527 335.064L526.325 342.612H531.94L532.273 335.382C531.437 335.676 528.621 336.468 524.527 335.064Z" fill="white"/>
<path d="M514.152 195.672C514.441 196.028 514.806 196.316 515.22 196.512C515.635 196.709 516.088 196.809 516.547 196.807C516.981 196.802 517.409 196.696 517.796 196.499C518.183 196.303 518.521 196.02 518.781 195.672C518.781 195.672 516.216 195.25 514.152 195.672Z" fill="white"/>
<path d="M154.124 228.803C154.124 228.803 153.842 242.147 154.497 246.039C155.153 249.931 153.64 268.042 153.64 268.042L150.514 267.647C150.514 267.647 142.689 238.068 143.488 234.271C144.287 230.474 154.124 228.803 154.124 228.803Z" fill="#FFB27D"/>
<path d="M153.64 268.054C153.64 268.054 154.846 272.102 154.559 272.877C154.271 273.651 152.722 275.269 151.466 276.242C150.211 277.215 151.313 273.651 151.555 272.488C151.797 271.325 149.929 271.246 150.22 269.447L150.526 267.647L153.64 268.054Z" fill="#FFB27D"/>
<path d="M150.22 269.447C150.22 269.447 150.22 272.812 150.192 273.461C150.165 274.11 150.854 273.522 150.948 272.938C151.043 272.353 151.646 271.38 151.943 271.301C152.24 271.221 150.22 269.447 150.22 269.447Z" fill="#FFB27D"/>
<path d="M131.067 319.483C132.19 330.804 136.256 348.172 136.256 348.172L139.413 345.898C139.413 345.898 144.973 306.898 145.879 303.728C152.186 281.698 152.905 260.035 152.905 260.035L134.453 254.591C132.573 257.752 131.113 262.951 131.557 268.832C133.485 294.497 129.723 305.934 131.067 319.483Z" fill="#233862"/>
<path d="M112.425 268.602C112.325 269.509 111.971 270.369 111.403 271.084C111.185 271.359 110.551 272.09 110.316 271.83C110.08 271.57 110.977 269.606 110.444 268.397C110.255 267.966 112.425 268.602 112.425 268.602Z" fill="#FFB27D"/>
<path d="M149.761 349.301C149.69 349.118 149.578 348.955 149.434 348.823C149.289 348.691 149.117 348.594 148.929 348.539C147.986 348.267 146.124 348.022 144.422 346.483C143.464 345.617 139.796 343.301 139.796 343.301H139.778C139.698 343.301 139.315 343.42 137.634 344.83C136.771 345.556 135.302 343.802 135.302 343.802C135.1 343.988 134.936 344.21 134.818 344.457C134.611 344.88 134.544 345.358 134.628 345.822C134.76 346.623 134.322 348.111 133.991 349.117C133.783 349.729 133.608 350.161 133.608 350.161C133.608 350.161 133.507 350.662 135.311 350.889H137.405C138.106 350.776 138.629 350.583 139.343 350.482C140.433 350.338 140.938 350.788 141.036 350.889L141.057 350.907H149.936C150.187 350.583 149.97 349.842 149.761 349.301Z" fill="#37598C"/>
<path d="M120.719 318.639C121.842 329.96 125.663 347.707 125.663 347.707L128.452 348.606C128.452 348.606 134.624 306.075 135.531 302.893C141.837 280.863 142.811 254.686 142.811 254.686L124.105 253.768C122.222 256.932 120.764 262.131 121.208 268.011C123.146 293.652 119.371 305.078 120.719 318.639Z" fill="#2B478B"/>
<path d="M139.216 349.301C139.148 349.116 139.037 348.949 138.892 348.815C138.748 348.68 138.573 348.581 138.384 348.527C137.441 348.254 135.582 348.01 133.88 346.47C132.922 345.605 129.254 343.288 129.254 343.288H129.233C129.153 343.288 128.77 343.408 127.089 344.818C126.226 345.543 124.833 343.747 124.833 343.747C124.601 343.939 124.411 344.176 124.276 344.445C124.068 344.868 124 345.346 124.083 345.81C124.218 346.611 123.777 348.098 123.446 349.105C123.238 349.717 123.063 350.148 123.063 350.148C123.063 350.148 122.965 350.65 124.766 350.877H126.86C127.561 350.763 128.084 350.571 128.798 350.47C129.891 350.326 130.393 350.776 130.494 350.877L130.512 350.895H139.406C139.642 350.583 139.428 349.842 139.216 349.301Z" fill="#466AA5"/>
<path d="M78.1349 346.477C78.3025 346.862 78.3908 347.278 78.3946 347.698C78.3985 348.119 78.3178 348.536 78.1573 348.924C77.9968 349.313 77.7598 349.666 77.4604 349.961C77.161 350.256 76.8052 350.489 76.4143 350.644C75.6227 350.977 74.7325 350.989 73.9323 350.677C73.1322 350.365 72.485 349.754 72.1281 348.973C71.9601 348.588 71.8714 348.172 71.8673 347.752C71.8633 347.331 71.9439 346.914 72.1044 346.525C72.265 346.136 72.5021 345.784 72.8018 345.488C73.1014 345.193 73.4574 344.961 73.8487 344.806C74.6402 344.473 75.5305 344.461 76.3306 344.773C77.1308 345.085 77.7779 345.696 78.1349 346.477V346.477Z" fill="#1C468A"/>
<path d="M101.605 346.474C101.772 346.859 101.86 347.275 101.864 347.696C101.867 348.116 101.787 348.533 101.626 348.922C101.466 349.311 101.229 349.664 100.93 349.959C100.63 350.255 100.275 350.488 99.8841 350.644C99.0923 350.975 98.203 350.985 97.4035 350.674C96.604 350.362 95.9567 349.752 95.5979 348.973C95.4303 348.587 95.3419 348.172 95.338 347.751C95.3341 347.33 95.4148 346.913 95.5753 346.524C95.7358 346.135 95.9728 345.783 96.2722 345.487C96.5716 345.191 96.9274 344.959 97.3185 344.803C98.1103 344.471 98.9999 344.46 99.7996 344.772C100.599 345.084 101.247 345.694 101.605 346.474V346.474Z" fill="#1C468A"/>
<path d="M71.3721 346.079L76.0226 347.701C76.494 347.865 76.99 347.946 77.4891 347.942L103.886 347.679L106.767 343.04L71.3721 346.079Z" fill="#DA384A"/>
<path d="M86.3619 294.849L93.7373 277.05V277.016C93.7801 276.857 94.9282 273.039 101.572 272.182H101.602L107.067 271.184C107.775 271.004 109.823 270.698 110.741 271.466C111.155 271.806 111.323 272.335 111.253 273.091C111.115 274.581 106.21 286.119 102.943 293.512L103.991 293.949C104.829 292.049 112.189 275.337 112.385 273.189C112.49 272.063 112.183 271.2 111.467 270.618C109.936 269.37 107.086 270.034 106.783 270.11L101.394 271.096C94.2393 272.014 92.7759 276.224 92.632 276.704L85.2842 294.451L86.3619 294.849Z" fill="#DA384A"/>
<path d="M100.513 289.577L114.755 292.331C114.755 292.331 118.91 293.971 118.086 301.039C117.361 307.256 114.183 342.147 114.183 342.147C114.183 342.147 113.518 349.408 97.5459 347.303L100.513 289.577Z" fill="#DA384A"/>
<path d="M108.408 299.175L104.578 338.252C104.426 339.788 103.866 341.255 102.955 342.502C102.106 343.66 100.996 344.602 99.7144 345.252C98.4332 345.902 97.0169 346.242 95.58 346.244L82.3692 346.324H82.0508L73.7845 346.373C72.9756 346.375 72.1697 346.272 71.3873 346.067C71.2097 346.021 71.0352 345.972 70.8607 345.917C69.4662 345.478 68.1996 344.707 67.171 343.669C66.1424 342.631 65.3827 341.357 64.958 339.959C64.5988 338.734 64.5183 337.444 64.7222 336.183L70.7229 298.802C71.061 296.839 72.0423 295.043 73.5125 293.698C74.9828 292.353 76.8587 291.534 78.8453 291.37L81.1783 291.153L81.7355 291.104L82.2039 291.061L90.0049 290.336L90.9601 290.247L98.4885 289.549C99.6275 289.442 100.777 289.546 101.878 289.855L102.086 289.916L102.521 290.06C104.378 290.707 105.966 291.955 107.032 293.606C108.099 295.258 108.583 297.218 108.408 299.175V299.175Z" fill="#F03E51"/>
<path d="M102.955 342.502C102.106 343.66 100.995 344.602 99.7142 345.252C98.433 345.902 97.0167 346.242 95.5799 346.244L82.3691 346.324H82.0507L73.7844 346.373C72.9754 346.375 72.1696 346.272 71.3871 346.067C71.2096 346.021 71.0351 345.972 70.8605 345.917C67.9949 344.999 64.6945 341.633 64.6455 338.056C64.6455 338.056 92.5948 337.701 98.4363 338.576C101.431 339.041 102.334 341.088 102.955 342.502Z" fill="#DA384A"/>
<path d="M82.2036 291.061C82.1455 291.094 76.0162 294.733 75.211 297.906C74.3843 301.176 68.852 339.332 68.7969 339.714C68.8112 340.942 69.085 342.153 69.6006 343.267C70.1161 344.381 70.8616 345.374 71.7881 346.18L71.3687 346.082C71.1911 346.036 71.0166 345.987 70.8421 345.932C67.8846 343.08 68.2826 339.794 68.3009 339.65C68.5306 338.074 73.8945 301.097 74.7303 297.789C75.462 294.901 79.7819 292.022 81.1811 291.153L81.7383 291.104L82.2036 291.061Z" fill="#DA384A"/>
<path d="M90.9601 290.247C90.0784 290.825 86.7137 293.307 85.9973 297.896C85.1553 303.269 81.8672 342.318 81.8335 342.71V342.741V342.765C81.8335 342.786 81.359 344.907 82.7122 346.324H82.0509C80.7558 344.794 81.2671 342.903 81.3467 342.652C81.4508 341.428 84.6777 303.162 85.5135 297.829C86.1259 293.879 88.6364 291.425 90.0141 290.345L90.9601 290.247Z" fill="#DA384A"/>
<path d="M102.521 290.057C101.632 290.575 100.825 291.223 100.127 291.979C98.685 293.57 97.7456 295.551 97.4263 297.673C96.5844 303.046 93.9759 341.963 93.9514 342.346V342.376V342.404C93.9514 342.425 93.8289 344.806 95.176 346.238H94.3464C93.3115 344.931 93.3758 342.566 93.4616 342.285C93.5442 341.039 96.1037 302.921 96.9395 297.587C97.1586 296.017 97.7136 294.512 98.5669 293.175C99.4201 291.838 100.551 290.701 101.884 289.84L102.092 289.901L102.521 290.057Z" fill="#DA384A"/>
<path d="M153.162 263.81C151.533 265.714 137.309 265.34 134.107 264.637C131.912 264.147 130.21 261.835 129 257.7C128.599 260.585 127.696 263.97 125.678 264.178C122.372 264.52 121.006 263.951 120.608 262.697C120.544 262.495 121.22 253.774 121.796 245.002C122.2 238.956 122.561 232.882 122.607 229.562C122.607 229.146 122.607 228.776 122.607 228.449C117.372 228.143 115.312 228.39 115.312 228.39C115.312 228.39 117.798 220.319 123.532 213.774C128.828 207.725 141.454 209.518 146.573 211.02C149.797 211.975 152.844 215.435 151.267 222.767C150.348 227.081 151.662 234.002 152.185 244.206C152.703 254.022 153.514 263.4 153.162 263.81Z" fill="#F03E51"/>
<path d="M149.231 212.476C149.231 212.476 153.187 215.698 155.459 230.257C155.459 230.257 154.179 232.016 150.398 231.545C146.617 231.074 149.231 212.476 149.231 212.476Z" fill="#F03E51"/>
<path d="M144.841 187.129C144.841 187.129 135.656 176.726 131.158 183.669C131.158 183.669 127.696 185.22 126.594 191.217C125.47 197.337 129.655 201.85 131.706 200.65C133.029 199.879 134.11 202.199 134.11 202.199L144.841 187.129Z" fill="#233862"/>
<path d="M132.099 182.561C132.099 182.561 130.773 177.824 123.805 179.501C123.805 179.501 127.148 178.984 128.091 180.251C128.091 180.251 125.397 179.11 123.759 180.174C122.121 181.239 121.947 184.675 122.228 185.713C122.51 186.75 124.433 189.803 125.651 189.767C126.87 189.73 128.281 188.625 128.281 188.625L132.099 182.561Z" fill="#233862"/>
<path d="M133.445 209.441C133.255 208.407 134.29 206.589 134.11 200.819L134.557 200.895L142.106 202.171C142.106 202.171 142.284 208.306 142.339 210.53C142.388 212.385 133.301 211.09 133.445 209.441Z" fill="#FFB27D"/>
<path d="M142.106 202.171C142.106 202.171 142.174 204.396 142.232 206.62C138.028 206.62 135.527 202.994 134.557 200.895L142.106 202.171Z" fill="#E8945B"/>
<path d="M133.762 200.1C133.762 200.1 131.462 196.685 130.85 193.726C130.415 191.615 131.276 183.718 139.217 184.629C140.817 184.806 142.357 185.339 143.724 186.19C145.472 187.301 148.01 189.733 145.441 196.676L144.786 199.016L133.762 200.1Z" fill="#233862"/>
<path d="M143.57 204.239C143.57 204.239 133.632 204.68 133.467 198.493C133.302 192.306 131.884 188.194 138.219 187.649C144.553 187.105 145.857 189.433 146.421 191.483C146.984 193.533 146.151 203.964 143.57 204.239Z" fill="#FFB27D"/>
<path d="M142.732 187.371C142.732 187.371 140.212 194.714 136.064 195.899C131.915 197.083 130.075 196.021 130.075 196.021C132.085 194.153 133.384 191.647 133.749 188.928C133.749 188.928 140.583 183.975 142.732 187.371Z" fill="#233862"/>
<path d="M142.073 187.98C142.073 187.98 144.149 189.543 144.691 191.107C145.233 192.67 145.542 195.908 146.485 195.77C146.485 195.77 148.398 190.776 146.017 188.05C143.491 185.159 142.073 187.98 142.073 187.98Z" fill="#233862"/>
<path d="M142.456 188.215C142.456 188.215 140.729 195.865 135.527 198.453C135.527 198.453 140.668 193.634 140.974 188.604C141.28 183.574 142.456 188.215 142.456 188.215Z" fill="#233862"/>
<path d="M110.116 263.367C110.116 263.367 107.63 266.258 107.361 267.761C107.091 269.263 107.235 273.268 107.998 273.421C108.812 273.574 109.296 270.79 109.559 270.242C110.444 268.406 112.192 269.263 112.425 268.602C112.657 267.941 112.887 264.759 112.887 264.759L110.116 263.367Z" fill="#FFB27D"/>
<path d="M118.517 223.688C118.517 223.688 111.806 236.765 111.427 242.245C111.047 247.725 110.116 263.382 110.116 263.382L112.887 264.774C112.887 264.774 118.643 244.136 118.995 241.012C119.387 237.53 130.77 225.982 130.77 225.982L118.517 223.688Z" fill="#FFB27D"/>
<path d="M130.461 218.642H120.437L115.315 228.387C115.315 228.387 123.484 235.14 131.618 232.399C139.753 229.657 130.461 218.642 130.461 218.642Z" fill="#F03E51"/>
<path d="M325.521 261.598H166.44V271.068H325.521V261.598Z" fill="#BDD1F9"/>
<path d="M166.44 283.883V285.596C166.44 286.208 166.636 286.688 166.872 286.688H229.491C229.727 286.688 229.923 286.196 229.923 285.596V283.883C229.923 283.271 229.727 282.79 229.491 282.79H166.872C166.636 282.79 166.44 283.283 166.44 283.883Z" fill="#8FADEF"/>
<path d="M166.44 283.883V285.596C166.44 286.208 166.621 286.688 166.838 286.688H216.55C216.767 286.688 216.944 286.196 216.944 285.596V283.883C216.944 283.271 216.767 282.79 216.55 282.79H166.838C166.621 282.79 166.44 283.283 166.44 283.883Z" fill="#BBD0FF"/>
<path d="M182.287 351.443H226.741V286.688H182.287V351.443Z" fill="#AEC3FF"/>
<path d="M169.83 351.443H214.284V286.688H169.83V351.443Z" fill="#D2E0FF"/>
<path d="M172.221 288.518H211.896V347.878H172.221V288.518ZM211.467 288.947H172.649V347.44H211.467V288.947Z" fill="#AEC3FF"/>
<path d="M211.682 308.15H172.436V308.578H211.682V308.15Z" fill="#AEC3FF"/>
<path d="M211.682 328.167H172.436V328.595H211.682V328.167Z" fill="#AEC3FF"/>
<path d="M188.037 292.346H195.33C195.5 292.345 195.664 292.277 195.784 292.157C195.904 292.037 195.972 291.874 195.973 291.703V291.703C195.972 291.533 195.904 291.37 195.784 291.25C195.664 291.13 195.5 291.062 195.33 291.061H188.037C187.867 291.062 187.704 291.13 187.584 291.25C187.463 291.37 187.395 291.533 187.395 291.703V291.703C187.395 291.874 187.463 292.037 187.584 292.157C187.704 292.277 187.867 292.345 188.037 292.346V292.346Z" fill="#AEC3FF"/>
<path d="M188.037 311.919H195.33C195.5 311.919 195.664 311.851 195.784 311.73C195.904 311.61 195.972 311.447 195.973 311.277V311.277C195.972 311.107 195.904 310.944 195.784 310.823C195.664 310.703 195.5 310.635 195.33 310.634H188.037C187.867 310.635 187.704 310.703 187.584 310.823C187.463 310.944 187.395 311.107 187.395 311.277V311.277C187.395 311.447 187.463 311.61 187.584 311.73C187.704 311.851 187.867 311.919 188.037 311.919V311.919Z" fill="#AEC3FF"/>
<path d="M188.037 332.31H195.33C195.5 332.309 195.664 332.241 195.784 332.121C195.904 332 195.972 331.837 195.973 331.667C195.972 331.497 195.904 331.334 195.784 331.214C195.664 331.093 195.5 331.025 195.33 331.025H188.037C187.867 331.025 187.704 331.093 187.584 331.214C187.463 331.334 187.395 331.497 187.395 331.667V331.667C187.395 331.837 187.463 332 187.584 332.121C187.704 332.241 187.867 332.309 188.037 332.31V332.31Z" fill="#AEC3FF"/>
<path d="M191.68 271.068H182.44V283.414H191.68V271.068Z" fill="#BDD1F9"/>
<path d="M320.888 270.817H312.803V350.84H320.888V270.817Z" fill="#AEC3FF"/>
<path d="M308.514 296.116V255.678C308.514 248.561 303.309 242.793 296.88 242.793H270.55C264.121 242.793 258.916 248.561 258.916 255.678V296.116H308.514Z" fill="#6980E2"/>
<path d="M305.715 296.116V255.678C305.715 248.561 300.51 242.793 294.081 242.793H267.751C261.322 242.793 256.117 248.561 256.117 255.678V296.116H305.715Z" fill="#8C9DF4"/>
<path d="M304.644 302.498H248.356V296.116H308.514V298.631C308.514 299.656 308.106 300.64 307.38 301.366C306.654 302.091 305.67 302.498 304.644 302.498V302.498Z" fill="#6980E2"/>
<path d="M241.608 302.498H284.192C285.773 302.498 287.055 301.217 287.055 299.637V298.976C287.055 297.396 285.773 296.116 284.192 296.116H241.608C240.027 296.116 238.746 297.396 238.746 298.976V299.637C238.746 301.217 240.027 302.498 241.608 302.498Z" fill="#AEC3FF"/>
<path d="M277.062 348.673H280.693L281.713 302.498H276.165L277.062 348.673Z" fill="#5C71B7"/>
<path d="M261.282 348.673H296.592V345.485L278.596 343.864L261.282 345.485V348.673Z" fill="#5C71B7"/>
<path d="M300.037 348.172C300.037 347.597 299.866 347.036 299.547 346.558C299.228 346.081 298.774 345.709 298.243 345.489C297.712 345.269 297.128 345.212 296.564 345.324C296.001 345.436 295.483 345.712 295.077 346.118C294.67 346.525 294.394 347.042 294.281 347.605C294.169 348.168 294.227 348.752 294.447 349.283C294.667 349.813 295.039 350.267 295.517 350.586C295.995 350.905 296.556 351.075 297.131 351.075C297.902 351.075 298.641 350.769 299.186 350.225C299.73 349.68 300.037 348.942 300.037 348.172Z" fill="#5C71B7"/>
<path d="M261.809 351.075C263.413 351.075 264.714 349.775 264.714 348.172C264.714 346.568 263.413 345.268 261.809 345.268C260.204 345.268 258.903 346.568 258.903 348.172C258.903 349.775 260.204 351.075 261.809 351.075Z" fill="#5C71B7"/>
<path d="M262.551 305.527H295.328C296.132 305.527 296.903 305.208 297.471 304.64C298.04 304.072 298.359 303.302 298.359 302.498H259.52C259.52 303.302 259.839 304.072 260.407 304.64C260.976 305.208 261.747 305.527 262.551 305.527V305.527Z" fill="#5C71B7"/>
<path d="M258.747 330.339C258.941 330.553 259.069 330.818 259.116 331.102C259.163 331.386 259.128 331.678 259.013 331.943C258.625 333.01 257.348 334.204 255.863 335.397C255.673 335.55 255.505 335.703 255.358 335.819L255.245 335.92L255.156 335.997C253.772 337.273 254.292 337.566 251.806 340.155C248.968 343.105 247.015 343.157 246.461 342.887C245.989 342.658 246.945 341.094 247.992 339.338L248.145 339.081L248.567 338.374C249.807 336.26 249.486 335.266 249.195 332.117C248.956 329.559 245.215 317.819 245.215 317.819L250.652 316.885C250.652 316.885 252.29 326.23 254.093 327.671C255.058 328.436 256.136 328.448 257.063 329.014L257.256 329.137C257.805 329.469 258.306 329.873 258.747 330.339Z" fill="#FFB27D"/>
<path d="M258.748 330.339C258.941 330.553 259.069 330.818 259.117 331.102C259.164 331.386 259.128 331.678 259.014 331.943C258.54 333.011 257.294 334.198 255.858 335.385C255.671 335.541 255.506 335.691 255.359 335.819L255.245 335.92L255.157 335.997C253.773 337.273 254.293 337.567 251.807 340.155C248.969 343.105 247.016 343.157 246.462 342.887C245.99 342.658 246.945 341.094 247.992 339.338C249.976 338.563 251.719 337.278 253.047 335.614C254.755 333.436 255.894 330.636 257.058 329.014L257.251 329.137C257.802 329.469 258.305 329.873 258.748 330.339V330.339Z" fill="#233862"/>
<path d="M214.924 326.946C214.587 328.623 212.196 328.341 209.523 327.69C206.85 327.038 207.487 327.812 203.684 327.384C199.882 326.955 198.728 325.548 198.611 324.982C198.51 324.48 200.387 324.302 202.405 324.064L203.167 323.972C205.442 323.687 207.107 322.219 209.174 321.013C211.133 319.872 214.054 315.221 214.054 315.221L219.259 315.634C219.259 315.634 216.522 319.789 215.462 321.594C214.85 322.656 214.875 324.061 214.951 325.147C215.023 325.745 215.014 326.35 214.924 326.946V326.946Z" fill="#FFB27D"/>
<path d="M209.517 327.689C206.844 327.038 207.481 327.812 203.679 327.384C199.876 326.955 198.722 325.548 198.605 324.982C198.504 324.48 200.381 324.302 202.399 324.064L202.417 324.103C204.046 325.149 205.929 325.734 207.864 325.795C210.442 325.857 213.176 325.119 214.957 325.147C215.024 325.741 215.01 326.34 214.918 326.931C214.581 328.638 212.19 328.332 209.517 327.689Z" fill="#233862"/>
<path d="M234.904 293.616L239.778 306.727L246.153 323.846C247.284 323.931 248.422 323.828 249.52 323.54C250.672 323.149 251.771 322.616 252.79 321.952C252.79 321.952 251.024 303.569 247.726 293.019C246.881 290.308 245.935 288.123 244.888 286.9C239.784 280.844 234.904 293.616 234.904 293.616Z" fill="#233862"/>
<path d="M239.861 272.794C243.054 271.766 252.536 272.488 261.687 274.266L263.218 271.72L282.983 270.19C282.983 270.19 289.504 284.648 285.935 293.857C285.408 295.213 284.367 296.079 282.588 296.109H282.3H266.714C256.886 296.109 245.913 289.353 244.493 289.072C242.169 288.607 241.238 293.252 238.915 298.129C236.591 303.006 217.073 319.725 217.073 319.725C217.073 319.725 214.076 319.752 212.836 319.29C211.504 318.789 210.999 318.14 210.999 318.14C210.999 318.14 232.657 275.116 239.861 272.794Z" fill="#2B478B"/>
<path d="M263.346 244.515C270.387 248.386 284.664 256.418 284.74 256.366C284.74 256.366 289.988 258.343 292.964 256.366C297.926 253.071 300.59 244.206 291.512 236.578C286.987 232.775 283.773 231.848 283.283 225.771C283.017 222.476 278.51 211.598 271.018 212.614C270.406 212.697 266.542 212.877 264.01 214.205C257.556 217.583 252.796 243.016 263.346 244.515Z" fill="#233862"/>
<path d="M269.246 241.217C269.215 241.238 272.712 242.441 275.063 241.394C277.261 240.425 278.927 236.805 278.893 236.805C277.892 236.759 276.796 235.887 275.951 230.153L275.525 230.306L268.364 232.879C268.364 232.879 268.885 235.177 269.218 237.362C269.488 239.201 269.638 240.957 269.246 241.217Z" fill="#FFB27D"/>
<path d="M268.349 232.882C268.349 232.882 268.869 235.18 269.203 237.365C273.315 236.624 274.928 232.53 275.51 230.309L268.349 232.882Z" fill="#ED975D"/>
<path d="M267.277 235.162C267.277 235.162 277.074 233.849 276.156 227.766C275.237 221.683 275.892 217.415 269.601 217.996C263.309 218.578 262.446 221.081 262.253 223.198C262.06 225.315 264.712 235.348 267.277 235.162Z" fill="#FFB27D"/>
<path d="M262.62 219.851C262.62 219.851 268.89 225.251 273.155 225.685C277.42 226.12 279.036 224.768 279.036 224.768C277.334 223.245 275.963 221.389 275.007 219.315C274.791 218.827 274.448 218.405 274.013 218.094C273.579 217.783 273.069 217.594 272.537 217.547C269.49 217.262 263.719 217.152 262.62 219.851Z" fill="#233862"/>
<path d="M266.542 219.367C266.542 219.367 264.445 221.396 263.787 222.898C263.147 224.348 262.957 227.818 263.465 229.195C263.465 229.195 260.195 222.846 262.048 219.759C264.007 216.488 266.542 219.367 266.542 219.367Z" fill="#233862"/>
<path d="M261.001 255.638C261.307 275.45 261.081 271.31 263.251 273.192C263.772 273.645 265.241 273.914 267.176 274.042C273.254 274.443 283.942 273.43 284.349 272.32C285.751 268.437 284.759 267.228 285.929 261.28C286.051 260.647 286.204 259.961 286.379 259.218C287.355 255.133 288.304 253.741 284.848 247.177C281.71 241.232 278.449 236.407 278.155 236.581C269.889 241.495 269.206 237.365 269.206 237.365C269.206 237.365 260.848 245.972 261.001 255.638Z" fill="#B64C41"/>
<path d="M239.778 306.727L246.153 323.846C247.284 323.931 248.422 323.828 249.52 323.54C250.672 323.149 251.771 322.616 252.79 321.952C252.79 321.952 251.024 303.569 247.726 293.019L239.778 306.727Z" fill="#2B478B"/>
<path d="M269.203 237.365C269.203 237.365 260.686 238.809 259.684 242.475L252.796 267.693C252.796 267.693 257.128 268.47 259.127 266.469C261.126 264.468 266.089 247.918 266.089 247.918L269.203 237.365Z" fill="#B64C41"/>
<path d="M267.176 274.042C273.253 274.443 283.941 273.43 284.348 272.32C285.751 268.437 284.759 267.228 285.928 261.28L282.998 253.019C282.998 253.019 283.482 262.198 280.769 264.624C278.057 267.051 269.668 269.29 268.351 271.31C267.777 272.131 267.377 273.061 267.176 274.042V274.042Z" fill="#9B3531"/>
<path d="M274.142 270.175C274.142 270.175 268.144 268.841 267.176 269.373C266.209 269.906 263.842 271.842 263.545 272.516C263.248 273.189 265.689 272.005 266.497 271.79C267.014 271.653 268.374 272.124 269.047 272.35C271.876 273.293 273.612 272.806 273.612 272.806L274.142 270.175Z" fill="#FFB27D"/>
<path d="M278.159 236.578C278.159 236.578 286.21 237.074 289 240.96C292.921 246.431 300.707 269.743 296.246 272.852C291.222 276.352 273.379 273.77 273.379 273.77C273.379 273.77 272.785 270.995 273.612 269.652C274.439 268.308 287.864 266.145 288.482 265.524C289.101 264.903 280.736 253.45 280.736 251.59C280.736 249.729 278.159 236.578 278.159 236.578Z" fill="#B64C41"/>
<path d="M266.885 271.041C266.885 271.041 265.627 272.662 265.217 272.855C265.009 272.968 264.773 273.018 264.537 272.999L265.385 271.469L266.885 271.041Z" fill="#FFB27D"/>
<path d="M267.176 269.373L263.521 271.148C263.593 271.237 263.688 271.306 263.795 271.347C263.903 271.387 264.019 271.399 264.133 271.38C264.673 271.285 265.203 271.14 265.716 270.946L267.176 269.373Z" fill="#FFB27D"/>
<path d="M266.8 274.688H237.898L229.203 253.08H258.062L266.8 274.688Z" fill="#F03E51"/>
<path d="M237.559 273.847H275.725V274.688H237.898L237.559 273.847Z" fill="#DA384A"/>
<path d="M245.194 263.884C244.977 263.125 245.415 262.51 246.177 262.51C246.577 262.532 246.96 262.676 247.276 262.921C247.592 263.167 247.826 263.502 247.947 263.884C248.164 264.643 247.726 265.261 246.967 265.261C246.567 265.238 246.183 265.095 245.866 264.849C245.549 264.603 245.315 264.266 245.194 263.884V263.884Z" fill="white"/>
<path d="M339.53 191.893C339.53 191.893 336.245 186.633 330.744 190.804C330.744 190.804 332.755 189.993 334.304 190.241C334.304 190.241 329.231 190.853 327.817 196.905C326.402 202.957 334.797 209.095 334.782 211.485C334.767 213.875 330.471 217.605 334.724 222.054C338.976 226.502 357.404 222.136 359.578 226.836C359.578 226.836 358.965 214.793 352.334 214.101C352.334 214.101 355.564 214.444 357.358 216.408C357.358 216.408 354.744 211.901 351.122 212.574C347.916 213.168 342.779 210.35 342.402 209.435C342.026 208.52 339.53 191.893 339.53 191.893Z" fill="#152847"/>
<path d="M351.489 218.728C351.489 218.728 348.517 224.648 351.453 227.601C354.389 230.554 371.047 235.067 372.755 235.171C375.847 235.364 388.755 232.328 388.755 232.328L388.89 230.012C388.89 230.012 375.514 228.852 374.023 229.128C371.678 229.568 353.773 217.724 351.489 218.728Z" fill="#FFB27D"/>
<path d="M372.495 233.173C372.183 233.79 371.798 234.368 371.35 234.895C367.37 236.447 356.783 232.084 352.981 230.168C352.543 229.961 352.12 229.724 351.716 229.458C350.292 228.424 348.655 224.024 348.373 221.888C348.091 219.753 352.316 215.68 352.316 215.68C352.316 215.68 369.816 226.117 372.247 228.65C373.597 230.095 373.15 231.885 372.495 233.173Z" fill="#2B478B"/>
<path d="M372.489 233.197C372.176 233.814 371.792 234.393 371.343 234.92C367.363 236.471 356.776 232.108 352.974 230.193L351.244 224.22L358.959 225.376C358.959 225.376 367.1 234.17 369.531 234.14C371.803 234.112 372.418 233.298 372.489 233.197Z" fill="#233862"/>
<path d="M350.001 195.033C350.001 195.033 341.368 185.63 337.351 192.107C337.351 192.107 334.195 193.601 333.294 199.145C332.376 204.796 336.301 208.866 338.175 207.712C339.378 206.981 340.416 209.092 340.416 209.092L350.001 195.033Z" fill="#152847"/>
<path d="M354.679 221.481H338.024C338.064 219.208 338.352 217.663 339.019 217.39C339.871 216.98 341.965 213.884 341.316 208.239L348.186 208.015C348.186 208.015 348.798 215.001 349.224 215.129C349.881 215.48 350.625 215.634 351.367 215.573C351.367 215.573 352.258 218.091 354.679 221.481Z" fill="#FFB27D"/>
<path d="M348.492 208.015C348.492 208.015 348.26 210.812 348.492 212.632C344.675 213.244 342.173 210.001 340.982 208.242L348.492 208.015Z" fill="#E8945B"/>
<path d="M340.054 207.165C340.054 207.165 337.874 204.065 337.256 201.351C336.815 199.414 337.458 192.135 344.781 192.823C346.255 192.957 347.681 193.418 348.954 194.173C350.586 195.164 352.974 197.355 350.733 203.79L350.173 205.953L340.054 207.165Z" fill="#152847"/>
<path d="M349.154 210.797C349.154 210.797 340.024 211.387 339.742 205.699C339.461 200.011 338.092 196.257 343.909 195.638C349.726 195.02 350.969 197.135 351.526 199.004C352.083 200.874 351.523 210.497 349.154 210.797Z" fill="#FFB27D"/>
<path d="M348.063 195.296C348.063 195.296 345.886 202.092 342.093 203.251C338.3 204.411 336.582 203.478 336.582 203.478C338.396 201.722 339.543 199.391 339.827 196.884C339.827 196.884 346.024 192.212 348.063 195.296Z" fill="#152847"/>
<path d="M347.473 195.868C347.473 195.868 349.411 197.269 349.922 198.695C350.433 200.121 350.798 203.095 351.661 202.951C351.661 202.951 353.327 198.322 351.085 195.859C348.716 193.246 347.473 195.868 347.473 195.868Z" fill="#152847"/>
<path d="M347.828 196.076C347.828 196.076 346.386 203.153 341.646 205.626C341.646 205.626 346.285 201.097 346.475 196.465C346.664 191.832 347.828 196.076 347.828 196.076Z" fill="#152847"/>
<path d="M347.206 207.504C347.206 207.504 347.396 208.168 349.043 207.985C349.043 207.985 350.442 207.829 350.363 207.094C350.378 207.094 348.994 206.635 347.206 207.504Z" fill="white"/>
<path d="M376.735 346.581L373.061 346.275C373.061 346.275 354.542 315.579 355.84 305.834C356.069 303.708 355.966 301.56 355.534 299.466C353.874 290.372 347.962 278.889 346.75 266.616C345.235 251.259 364.03 256.693 364.03 256.693C364.03 256.693 365.438 263.758 366.785 273.501C367.893 281.456 368.971 291.211 369.213 300.353C369.645 315.686 373.493 332.493 376.735 346.581Z" fill="#F03E51"/>
<path d="M384.23 351.504H369.908C369.908 351.504 369.565 349.322 370.312 347.667C371.028 346.079 371.619 345.268 371.35 343.346C373.643 344.105 374.338 343.995 376.043 343.6C376.297 344.01 377.984 347.753 378.832 348.361C379.775 349.035 383.948 348.796 384.23 351.504Z" fill="#AEC3FF"/>
<path d="M366.807 273.498C364.495 278.757 358.822 291.881 355.546 299.463C353.887 290.369 347.975 278.886 346.763 266.613C345.247 251.256 364.042 256.69 364.042 256.69C364.042 256.69 365.451 263.771 366.807 273.498Z" fill="#DA384A"/>
<path d="M361.764 258.263C361.764 258.263 351.949 301.58 349.307 309.481C344.503 323.834 342.945 331.75 341.821 347.046L337.636 346.467C337.636 346.467 332.786 311.892 336.659 304.98C340.003 298.998 333.16 265.328 340.303 257.07C347.445 248.811 361.764 258.263 361.764 258.263Z" fill="#F03E51"/>
<path d="M349.756 351.504H335.434C335.434 351.504 335.088 349.322 335.838 347.667C336.555 346.079 337.492 345.219 337.225 343.301C338.767 343.9 340.443 344.07 342.075 343.793C342.329 344.206 343.511 347.753 344.359 348.361C345.296 349.035 349.469 348.796 349.756 351.504Z" fill="#AEC3FF"/>
<path d="M366.806 265.607C358.013 273.528 337.063 268.807 336.23 265.499C335.716 263.455 335.342 251.55 335.657 246.14C335.921 241.59 335.256 222.886 335.688 220.56C336.12 218.235 340.424 215.53 340.424 215.53C340.424 215.53 343.431 217.302 346.676 216.665C348.314 216.359 349.159 215.343 349.049 214.756C349.049 214.756 351.376 214.863 352.322 215.178C354.734 215.983 357.771 218.278 360.588 220.765C362.067 222.069 360.876 228.262 361.004 233.005C361.063 235.146 361.035 237.288 360.968 239.124C360.968 239.283 360.968 239.43 360.949 239.595C360.879 241.238 360.781 242.603 360.686 243.451C360.573 244.476 360.937 246.397 361.54 248.701C363.221 255.133 368.364 264.196 366.806 265.607Z" fill="#2B478B"/>
<path d="M361.537 248.683C349.863 246.281 341.043 234.14 341.043 234.14L360.943 239.577C360.873 241.22 360.775 242.585 360.68 243.432C360.57 244.457 360.934 246.379 361.537 248.683Z" fill="#233862"/>
<path d="M342.62 222.191C342.62 222.191 337.92 228.173 341.052 232.016C344.184 235.859 364.103 244.047 366.194 244.488C369.999 245.293 386.538 244.411 386.538 244.411L387.105 241.872C387.105 241.872 370.701 238.02 368.802 238.038C365.823 238.068 345.626 221.518 342.62 222.191Z" fill="#FFB27D"/>
<path d="M341.775 218.409C341.775 218.409 338.217 222.693 338.193 225.116C338.168 227.54 339.454 232.717 341.043 234.14C342.632 235.562 358.442 245.039 364.486 243.931C364.486 243.931 369.243 240.461 366.662 237.199C364.082 233.938 341.775 218.409 341.775 218.409Z" fill="#2B478B"/>
<path d="M388.89 230.021C388.89 230.021 390.319 229.838 390.607 229.391C390.895 228.944 391.219 228.335 391.976 228.118C392.732 227.901 393.666 227.154 393.776 227.219C394.113 227.411 392.661 228.497 392.986 228.614C393.142 228.672 393.797 228.048 394.471 227.754C395.144 227.46 395.034 226.374 395.585 226.968C395.812 227.206 396.164 228.415 395.821 228.803C395.478 229.192 394.55 230.425 394.156 230.618C393.583 230.896 388.755 232.328 388.755 232.328L388.89 230.021Z" fill="#FFB27D"/>
<path d="M406.736 234.436H381.815C381.581 234.435 381.355 234.352 381.176 234.201C380.997 234.05 380.878 233.84 380.838 233.61C380.799 233.379 380.842 233.142 380.96 232.94C381.078 232.738 381.264 232.585 381.484 232.506L394.615 227.61L407.14 232.365C407.374 232.458 407.568 232.63 407.689 232.85C407.81 233.071 407.85 233.327 407.802 233.574C407.754 233.821 407.621 234.044 407.427 234.203C407.232 234.363 406.988 234.45 406.736 234.449V234.436ZM394.615 227.907L381.582 232.778C381.423 232.831 381.288 232.94 381.202 233.084C381.116 233.228 381.084 233.398 381.112 233.563C381.14 233.728 381.226 233.878 381.355 233.985C381.484 234.093 381.647 234.151 381.815 234.149H406.736C406.92 234.149 407.098 234.085 407.241 233.969C407.383 233.852 407.481 233.69 407.517 233.509C407.553 233.329 407.525 233.142 407.439 232.979C407.352 232.817 407.212 232.69 407.042 232.619L394.615 227.907Z" fill="#233862"/>
<path d="M394.759 227.754H394.471V222.381L394.759 222.415V227.754Z" fill="#233862"/>
<path d="M393.109 219.34C392.876 219.439 392.667 219.586 392.495 219.771C392.323 219.957 392.192 220.177 392.111 220.417C392.101 220.444 392.098 220.474 392.1 220.503C392.103 220.532 392.112 220.56 392.126 220.586C392.14 220.611 392.159 220.634 392.182 220.651C392.206 220.669 392.232 220.682 392.261 220.689V220.689C392.279 220.693 392.298 220.689 392.314 220.68C392.33 220.67 392.341 220.655 392.346 220.637C392.407 220.393 392.527 220.167 392.696 219.98C392.865 219.793 393.077 219.651 393.314 219.566C393.674 219.446 394.065 219.463 394.413 219.615C394.761 219.767 395.039 220.042 395.195 220.388C395.351 220.733 395.373 221.125 395.257 221.486C395.141 221.847 394.894 222.151 394.566 222.341C394.54 222.356 394.514 222.37 394.486 222.381L394.578 222.656L394.707 222.592C395.112 222.365 395.415 221.992 395.553 221.549C395.691 221.105 395.654 220.626 395.449 220.209C395.244 219.793 394.888 219.47 394.452 219.309C394.017 219.147 393.536 219.158 393.109 219.34V219.34Z" fill="#233862"/>
<path d="M383.636 231.625L384.511 244.867H387.294L384.98 231.068L383.636 231.625Z" fill="#F03E51"/>
<path d="M403.726 230.918L400.906 244.867H403.065L404.951 231.407L403.726 230.918Z" fill="#F03E51"/>
<path d="M415.231 304.597C412.852 304.812 402.679 308.327 401.148 305.02C400.125 302.81 392.952 308.474 389.927 305.598C386.902 302.722 384.11 305.271 379.432 306.173C378.062 306.431 376.651 306.356 375.316 305.956C373.981 305.555 372.761 304.841 371.76 303.872C372.984 299.145 382.065 270.04 384.649 262.455C385.188 260.87 385.681 259.438 386.088 258.245C386.758 256.296 387.212 254.983 387.313 254.695C387.732 253.401 382.053 244.598 384.53 237.842C384.768 237.19 387.313 237.842 387.313 237.842C387.313 237.842 392.064 242.089 394.327 242.019C397.235 241.927 400.925 237.842 400.925 237.842C400.925 237.842 402.728 237.438 403.068 237.842C405.823 240.978 400.958 254.423 400.958 254.423L403.714 260.518L405.526 264.539L415.231 304.597Z" fill="#DA384A"/>
<path d="M382.481 276.946C382.481 276.5 382.613 276.064 382.86 275.692C383.108 275.321 383.46 275.032 383.872 274.861C384.284 274.689 384.738 274.644 385.176 274.731C385.614 274.818 386.016 275.032 386.332 275.347C386.648 275.663 386.863 276.064 386.951 276.502C387.038 276.939 386.993 277.393 386.823 277.805C386.652 278.217 386.363 278.57 385.992 278.818C385.621 279.066 385.184 279.198 384.738 279.198C384.14 279.198 383.566 278.961 383.143 278.539C382.72 278.116 382.482 277.544 382.481 276.946V276.946Z" fill="white"/>
<path d="M395.632 268.908C395.631 268.463 395.763 268.027 396.01 267.656C396.257 267.285 396.609 266.996 397.021 266.825C397.432 266.654 397.886 266.609 398.323 266.696C398.76 266.782 399.162 266.997 399.477 267.311C399.793 267.626 400.008 268.028 400.095 268.464C400.182 268.901 400.138 269.354 399.967 269.766C399.797 270.178 399.508 270.53 399.137 270.777C398.767 271.025 398.331 271.157 397.885 271.157C397.288 271.156 396.716 270.919 396.294 270.498C395.871 270.076 395.633 269.505 395.632 268.908Z" fill="white"/>
<path d="M393.326 261.271C393.326 261.11 393.374 260.953 393.463 260.82C393.552 260.687 393.679 260.583 393.828 260.521C393.976 260.46 394.139 260.444 394.297 260.476C394.454 260.507 394.599 260.585 394.712 260.699C394.826 260.812 394.903 260.957 394.934 261.114C394.965 261.272 394.948 261.435 394.886 261.583C394.824 261.731 394.72 261.858 394.586 261.946C394.452 262.035 394.295 262.082 394.134 262.082C394.028 262.082 393.923 262.061 393.824 262.02C393.726 261.979 393.637 261.919 393.562 261.844C393.487 261.769 393.427 261.679 393.387 261.581C393.346 261.482 393.326 261.377 393.326 261.271Z" fill="white"/>
<path d="M390.858 252.024C390.858 251.864 390.905 251.707 390.994 251.573C391.082 251.439 391.209 251.335 391.357 251.273C391.505 251.211 391.668 251.195 391.826 251.225C391.984 251.256 392.129 251.333 392.242 251.447C392.356 251.56 392.434 251.704 392.465 251.862C392.497 252.019 392.481 252.182 392.42 252.331C392.358 252.479 392.254 252.606 392.121 252.695C391.987 252.784 391.83 252.832 391.67 252.832C391.455 252.832 391.249 252.747 391.097 252.596C390.945 252.444 390.859 252.239 390.858 252.024V252.024Z" fill="white"/>
<path d="M399.844 245.7C399.843 245.539 399.89 245.382 399.979 245.248C400.068 245.114 400.195 245.01 400.343 244.948C400.492 244.886 400.655 244.87 400.813 244.901C400.97 244.932 401.115 245.01 401.229 245.123C401.342 245.237 401.42 245.382 401.451 245.539C401.482 245.697 401.466 245.86 401.404 246.008C401.342 246.157 401.238 246.283 401.104 246.372C400.97 246.461 400.813 246.508 400.652 246.507C400.546 246.507 400.441 246.486 400.343 246.446C400.245 246.405 400.156 246.346 400.08 246.271C400.005 246.196 399.946 246.107 399.905 246.009C399.865 245.911 399.844 245.806 399.844 245.7V245.7Z" fill="white"/>
<path d="M393.326 277.757C393.326 277.596 393.373 277.439 393.462 277.305C393.551 277.171 393.677 277.067 393.826 277.005C393.974 276.944 394.137 276.927 394.295 276.958C394.453 276.99 394.598 277.067 394.711 277.18C394.825 277.294 394.902 277.439 394.933 277.596C394.965 277.754 394.948 277.917 394.887 278.066C394.825 278.214 394.72 278.34 394.586 278.429C394.452 278.518 394.295 278.565 394.134 278.565C393.92 278.564 393.715 278.478 393.564 278.327C393.412 278.176 393.327 277.971 393.326 277.757V277.757Z" fill="white"/>
<path d="M388.299 269.716C388.298 269.555 388.345 269.398 388.434 269.264C388.523 269.13 388.65 269.026 388.798 268.964C388.947 268.902 389.11 268.886 389.268 268.917C389.425 268.949 389.57 269.026 389.684 269.139C389.798 269.253 389.875 269.398 389.906 269.555C389.937 269.713 389.921 269.876 389.859 270.024C389.797 270.173 389.693 270.299 389.559 270.388C389.425 270.477 389.268 270.524 389.107 270.524C389.001 270.524 388.896 270.503 388.798 270.462C388.7 270.422 388.611 270.362 388.536 270.287C388.461 270.212 388.401 270.123 388.36 270.025C388.32 269.927 388.299 269.822 388.299 269.716V269.716Z" fill="white"/>
<path d="M404.131 271.968C404.13 271.807 404.177 271.65 404.266 271.517C404.355 271.383 404.481 271.278 404.63 271.217C404.778 271.155 404.941 271.138 405.099 271.169C405.256 271.2 405.401 271.277 405.515 271.39C405.629 271.504 405.706 271.648 405.738 271.805C405.769 271.963 405.753 272.126 405.692 272.274C405.631 272.423 405.527 272.55 405.393 272.639C405.26 272.728 405.103 272.776 404.942 272.776C404.728 272.776 404.522 272.691 404.37 272.539C404.218 272.388 404.132 272.182 404.131 271.968V271.968Z" fill="white"/>
<path d="M401.14 284.063C401.139 283.903 401.186 283.746 401.275 283.612C401.364 283.478 401.49 283.374 401.638 283.312C401.787 283.25 401.95 283.234 402.107 283.264C402.265 283.295 402.41 283.372 402.524 283.486C402.637 283.599 402.715 283.743 402.746 283.901C402.778 284.058 402.762 284.221 402.701 284.37C402.639 284.518 402.535 284.645 402.402 284.734C402.268 284.823 402.112 284.871 401.951 284.871C401.736 284.871 401.53 284.786 401.378 284.634C401.226 284.483 401.14 284.278 401.14 284.063V284.063Z" fill="white"/>
<path d="M386.483 284.063C386.485 283.903 386.534 283.747 386.625 283.615C386.715 283.483 386.843 283.38 386.991 283.32C387.14 283.26 387.303 283.246 387.46 283.278C387.617 283.311 387.76 283.389 387.873 283.503C387.985 283.617 388.061 283.762 388.091 283.919C388.122 284.077 388.105 284.239 388.043 284.387C387.98 284.534 387.876 284.66 387.742 284.749C387.609 284.837 387.452 284.884 387.292 284.883C387.185 284.883 387.079 284.861 386.98 284.82C386.881 284.778 386.792 284.718 386.717 284.641C386.642 284.565 386.582 284.475 386.542 284.376C386.502 284.276 386.482 284.17 386.483 284.063V284.063Z" fill="white"/>
<path d="M382.032 292.068C382.032 291.622 382.164 291.187 382.412 290.816C382.66 290.446 383.012 290.157 383.423 289.987C383.835 289.817 384.288 289.772 384.725 289.859C385.162 289.946 385.564 290.16 385.879 290.475C386.194 290.79 386.409 291.191 386.496 291.628C386.583 292.065 386.538 292.518 386.367 292.929C386.197 293.341 385.908 293.693 385.537 293.94C385.167 294.187 384.731 294.32 384.286 294.32C383.688 294.32 383.115 294.082 382.692 293.66C382.27 293.238 382.032 292.665 382.032 292.068Z" fill="white"/>
<path d="M404.201 298.346C404.201 297.9 404.334 297.464 404.582 297.093C404.83 296.722 405.182 296.433 405.595 296.263C406.007 296.092 406.461 296.047 406.899 296.135C407.337 296.222 407.739 296.437 408.054 296.753C408.37 297.068 408.584 297.471 408.671 297.908C408.758 298.346 408.713 298.799 408.541 299.211C408.37 299.623 408.08 299.975 407.709 300.223C407.337 300.47 406.901 300.602 406.454 300.601C406.158 300.601 405.865 300.543 405.591 300.43C405.318 300.316 405.069 300.15 404.86 299.941C404.651 299.731 404.485 299.483 404.372 299.209C404.259 298.935 404.201 298.642 404.201 298.346Z" fill="white"/>
<path d="M393.684 293.683C394.131 293.683 394.492 293.321 394.492 292.875C394.492 292.429 394.131 292.068 393.684 292.068C393.238 292.068 392.876 292.429 392.876 292.875C392.876 293.321 393.238 293.683 393.684 293.683Z" fill="white"/>
<path d="M401.14 292.875C401.14 292.715 401.187 292.558 401.276 292.425C401.366 292.291 401.492 292.188 401.64 292.126C401.789 292.065 401.952 292.049 402.109 292.08C402.267 292.111 402.411 292.189 402.525 292.302C402.638 292.415 402.715 292.56 402.747 292.717C402.778 292.874 402.762 293.037 402.7 293.186C402.639 293.334 402.535 293.46 402.402 293.549C402.268 293.639 402.111 293.686 401.951 293.686C401.736 293.686 401.529 293.601 401.377 293.449C401.225 293.297 401.14 293.09 401.14 292.875V292.875Z" fill="white"/>
<path d="M386.033 299.185C386.033 299.024 386.08 298.867 386.169 298.733C386.258 298.599 386.384 298.495 386.533 298.433C386.681 298.371 386.844 298.355 387.002 298.386C387.16 298.417 387.305 298.495 387.418 298.608C387.532 298.722 387.609 298.867 387.64 299.024C387.672 299.182 387.655 299.345 387.594 299.493C387.532 299.642 387.427 299.768 387.293 299.857C387.159 299.946 387.002 299.993 386.841 299.992C386.627 299.992 386.422 299.906 386.271 299.755C386.119 299.604 386.034 299.399 386.033 299.185V299.185Z" fill="white"/>
<path d="M376.31 299.185C376.309 299.024 376.356 298.867 376.445 298.733C376.534 298.599 376.661 298.495 376.809 298.433C376.957 298.371 377.121 298.355 377.278 298.386C377.436 298.417 377.581 298.495 377.695 298.608C377.808 298.722 377.886 298.867 377.917 299.024C377.948 299.182 377.932 299.345 377.87 299.493C377.808 299.642 377.704 299.768 377.57 299.857C377.436 299.946 377.279 299.993 377.118 299.992C376.904 299.992 376.699 299.906 376.547 299.755C376.396 299.604 376.31 299.399 376.31 299.185V299.185Z" fill="white"/>
<path d="M405.52 264.539C405.249 264.735 404.938 264.869 404.609 264.93C404.28 264.992 403.941 264.979 403.617 264.893C403.294 264.807 402.993 264.65 402.738 264.434C402.483 264.217 402.279 263.947 402.141 263.642C402.004 263.337 401.936 263.005 401.943 262.67C401.95 262.336 402.031 262.007 402.181 261.708C402.331 261.408 402.546 261.146 402.81 260.941C403.074 260.735 403.381 260.591 403.708 260.518L405.52 264.539Z" fill="white"/>
<path d="M404.201 279.198C404.201 278.752 404.332 278.315 404.58 277.944C404.828 277.573 405.18 277.283 405.593 277.112C406.005 276.941 406.459 276.896 406.897 276.983C407.335 277.07 407.737 277.285 408.053 277.6C408.369 277.916 408.584 278.318 408.671 278.756C408.758 279.194 408.713 279.647 408.542 280.059C408.371 280.472 408.081 280.824 407.709 281.071C407.338 281.319 406.901 281.451 406.455 281.45C405.857 281.449 405.284 281.212 404.862 280.79C404.44 280.367 404.202 279.795 404.201 279.198V279.198Z" fill="white"/>
<path d="M396.871 251.532C396.87 251.304 396.937 251.081 397.064 250.892C397.19 250.702 397.369 250.554 397.58 250.466C397.79 250.379 398.021 250.356 398.245 250.4C398.468 250.444 398.674 250.553 398.835 250.714C398.996 250.875 399.106 251.08 399.151 251.303C399.196 251.526 399.173 251.758 399.086 251.968C398.999 252.178 398.852 252.358 398.662 252.485C398.473 252.611 398.25 252.679 398.022 252.679C397.717 252.679 397.425 252.558 397.209 252.343C396.994 252.128 396.872 251.836 396.871 251.532V251.532Z" fill="white"/>
<path d="M386.769 247.376C386.768 247.164 386.83 246.957 386.948 246.781C387.065 246.604 387.232 246.466 387.428 246.385C387.624 246.303 387.839 246.282 388.047 246.323C388.255 246.364 388.447 246.465 388.597 246.615C388.747 246.765 388.849 246.955 388.891 247.163C388.932 247.371 388.911 247.587 388.83 247.782C388.749 247.978 388.612 248.146 388.436 248.264C388.259 248.381 388.052 248.444 387.84 248.444C387.556 248.444 387.284 248.332 387.083 248.132C386.883 247.931 386.769 247.66 386.769 247.376V247.376Z" fill="white"/>
<path d="M387.944 260.463C387.944 260.851 387.844 261.232 387.653 261.57C387.462 261.908 387.187 262.19 386.855 262.391C386.523 262.591 386.144 262.702 385.756 262.713C385.368 262.725 384.984 262.636 384.641 262.455C385.179 260.87 385.672 259.438 386.08 258.245C386.602 258.335 387.076 258.608 387.417 259.014C387.758 259.42 387.945 259.933 387.944 260.463Z" fill="white"/>
<path d="M400.689 239.761C400.077 240.097 400.64 241.153 399.838 241.771C399.036 242.389 398.24 242.208 397.808 243.025C397.376 243.842 396.99 244.463 396.127 244.61C395.264 244.757 395.209 245.424 394.639 245.663C394.07 245.901 394.256 244.8 393.488 244.745C392.72 244.69 392.912 243.64 392.288 243.215C391.663 242.79 390.509 242.924 390.126 242.205C389.692 241.332 388.983 240.625 388.109 240.192C386.909 239.519 387.294 237.839 387.294 237.839C387.294 237.839 392.046 242.086 394.309 242.016C397.217 241.924 400.906 237.839 400.906 237.839C400.906 237.839 401.313 239.427 400.689 239.761Z" fill="white"/>
<path d="M383.636 241.07L387.105 241.872C387.105 241.872 388.498 242.098 389.312 242.153C390.126 242.208 391.651 241.973 392.193 242.658C392.735 243.344 394.642 244.28 394.425 244.494C394.207 244.708 391.868 243.75 391.939 243.965C392.009 244.179 393.264 245.755 394.134 245.908C395.913 246.214 395.242 246.988 395.242 246.988C395.242 246.988 393.561 247.538 392.625 247.389C391.688 247.239 389.692 245.118 388.889 244.901C388.087 244.684 384.15 244.537 384.15 244.537L383.636 241.07Z" fill="#FFB27D"/>
<path d="M722.303 262.381C722.303 262.381 710.636 279.865 705.808 290.32C705.808 290.32 725.322 294.191 737.795 302.11C737.795 302.11 746.45 280.281 753.29 270.817C753.29 270.808 734.577 262.394 722.303 262.381Z" fill="#AEC3FF"/>
<path d="M737.795 302.11C737.795 302.11 747.252 303.71 750.571 299.478C753.89 295.247 753.29 270.817 753.29 270.817C753.29 270.817 738.762 291.174 737.795 302.11Z" fill="#8CAAED"/>
<path d="M695.742 243.27C695.742 243.27 679.662 250.271 676.742 250.145C673.821 250.02 655.834 244.668 655.834 244.668L656.293 247.762C656.293 247.762 670.175 255.742 675.027 256.195C679.806 256.638 696.152 251.911 697.72 250.91C699.287 249.91 700.325 244.274 695.742 243.27Z" fill="#ED985F"/>
<path d="M698.158 217.504C698.158 217.504 704.091 216.378 707.036 218.535C712.388 222.442 712.676 235.908 714.69 237.916C716.705 239.923 721.53 239.063 721.961 249.445C722.393 259.827 720.036 260.692 722.84 265.328C725.644 269.964 721.655 274.599 721.655 274.599C721.655 274.599 723.29 272.041 722.574 270.196C722.574 270.196 721.894 274.269 719.304 275.223C716.714 276.178 716.328 276.879 715.915 278.283C715.915 278.283 693.819 266.962 693.795 258.942C693.77 250.923 689.444 242.964 691.569 239.485C690.99 240.443 690.628 241.515 690.507 242.628C690.507 242.628 689.233 240.18 691.425 237.919C693.617 235.657 688.835 230.945 689.545 225.502C690.084 221.763 692.693 217.666 698.158 217.504Z" fill="#233862"/>
<path d="M693.788 250.92C695.427 252.024 697.262 252.805 699.195 253.221C707.528 255.145 710.722 248.105 711.922 243.273C711.05 242.792 710.088 242.497 709.096 242.407C708.484 242.334 707.871 242.288 707.336 242.26C706.417 241.544 705.006 238.613 704.7 234.063L704.308 234.167L697.738 235.963C697.738 235.963 698.044 238.05 698.188 240.024C698.301 241.554 698.319 243.041 698.025 243.389C697.514 243.5 697.205 243.573 697.205 243.573C695.834 245.907 694.69 248.367 693.788 250.92V250.92Z" fill="#FFB27D"/>
<path d="M697.737 235.954C697.737 235.954 698.043 238.041 698.187 240.015C701.907 239.641 703.634 236.101 704.31 234.158L697.737 235.954Z" fill="#ED985F"/>
<path d="M696.626 237.915C696.626 237.915 705.459 237.426 705.07 231.937C704.681 226.447 705.56 222.681 699.905 222.757C694.25 222.834 693.304 225.009 692.989 226.873C692.674 228.736 694.321 237.9 696.626 237.915Z" fill="#FFB27D"/>
<path d="M693.032 223.804C694.275 222.054 695.331 222.341 695.946 222.797C700.576 219.802 703.965 223.498 703.965 223.498C704.528 225.871 705.899 227.975 707.844 229.449C707.844 229.449 706.313 230.557 702.532 229.871C701.378 229.66 700.309 228.929 699.382 228.014C700.475 229.539 701.77 230.908 703.233 232.084C698.659 230.355 696.439 224.33 696.216 223.691C695.711 224.214 694.725 225.34 694.474 226.392C694.134 227.821 692.671 230.064 691.826 230.018C691.826 230.018 691.164 226.441 693.032 223.804Z" fill="#233862"/>
<path d="M714.436 268.859C715.235 264.783 717.834 248.502 715.235 243.264C714.301 241.382 710.642 241.211 706.613 241.376C705.364 242.184 700.594 245.235 698.653 244.855L698.543 244.828C697.624 244.598 697.272 243.949 698.041 243.393C696.547 243.292 695.047 243.383 693.577 243.665C692.181 243.928 688.412 245.877 688.412 245.877C688.412 245.877 690.31 249.301 693.109 250.485C692.631 254.738 693.338 256.605 697.753 266.439C701.485 274.743 697.251 282.218 697.251 282.218C697.251 282.218 719.212 299.864 719.334 290.88C719.411 284.115 713.416 274.067 714.436 268.859Z" fill="white"/>
<path d="M696.146 301.406C695.556 301.34 694.987 301.146 694.48 300.837C693.973 300.528 693.539 300.113 693.21 299.619C693.103 299.46 692.989 299.292 692.87 299.108C690.372 295.326 689.398 283.745 683.774 271.405C682.405 268.4 677.488 267.862 676.147 264.465C676.147 264.465 672.85 253.45 682.464 253.144C692.077 252.838 708.215 283.772 708.469 287.016C708.717 290.149 714.825 303.514 696.146 301.406Z" fill="#DA384A"/>
<path d="M657.937 301.152H671.622C671.622 301.152 672.133 298.974 671.236 297.48C670.44 296.168 670.746 295.421 671.334 294.335C670.607 294.648 669.82 294.795 669.029 294.766C668.305 294.687 667.61 294.443 666.996 294.053C666.405 294.723 663.882 297.578 663.095 298.144C662.195 298.793 658.206 298.567 657.937 301.152Z" fill="#233862"/>
<path d="M712.994 247.532C712.994 247.532 714.775 263.725 703.224 267.115C691.673 270.505 688.394 252.214 697.713 250.898C707.033 249.582 712.994 247.532 712.994 247.532Z" fill="#EBEEF2"/>
<path d="M675.835 256.314C675.011 262.489 671.794 281.976 666.117 291.483C664.28 294.543 670.728 296.269 670.762 296.256C671.625 296.033 673.064 294.656 673.728 294.059C678.336 289.907 687.692 278.149 687.692 268.731C687.692 264.141 687.772 255.359 684.429 253.126C682.371 251.758 676.162 253.863 675.835 256.314Z" fill="#DA384A"/>
<path d="M704.308 301.152C704.308 301.152 703.799 300.448 702.914 299.108C701.864 297.517 700.698 294.381 699.287 290.363C697.802 286.144 696.041 280.951 693.84 275.551C693.16 273.886 692.441 272.185 691.672 270.514C690.301 267.51 686.535 267.926 685.194 264.529C685.194 264.529 679.965 252.755 689.578 252.431C699.192 252.107 717.463 283.922 718.513 287.007C719.661 290.391 725.27 304.386 704.308 301.152Z" fill="#F03E51"/>
<path d="M667.979 301.152H681.662C681.662 301.152 682.176 298.974 681.276 297.48C680.48 296.168 680.786 295.421 681.374 294.335C680.648 294.648 679.862 294.795 679.072 294.766C678.347 294.687 677.651 294.443 677.036 294.053C676.445 294.723 673.925 297.578 673.135 298.144C672.241 298.793 668.255 298.567 667.979 301.152Z" fill="#2B478B"/>
<path d="M699.286 290.363C697.802 286.144 696.041 280.951 693.84 275.551C694.415 271.46 695.655 267.88 697.737 266.439C697.737 266.439 702.795 282.096 699.286 290.363Z" fill="#DA384A"/>
<path d="M683.823 255.876C682.999 262.051 681.839 281.976 676.169 291.483C674.332 294.543 680.78 296.269 680.813 296.256C681.68 296.033 683.119 294.656 683.78 294.059C688.391 289.907 697.744 278.149 697.744 268.731C697.744 264.141 692.35 255.73 689.006 253.499C688.53 253.187 687.981 253.001 687.413 252.959C686.845 252.916 686.275 253.019 685.757 253.256C685.239 253.494 684.79 253.859 684.452 254.317C684.114 254.775 683.897 255.312 683.823 255.876Z" fill="#F03E51"/>
<path d="M694.982 234.755C694.982 234.755 695.818 234.424 698.166 234.617C698.166 234.617 698.044 235.535 696.311 235.624C696.027 235.632 695.748 235.553 695.51 235.398C695.272 235.243 695.088 235.018 694.982 234.755Z" fill="white"/>
<path d="M654.119 238.194L656.954 233.078L663.093 250.194L659.471 254.08L654.119 238.194Z" fill="#163560"/>
<path d="M668.931 241.189L674.638 257.48L659.471 254.08L654.119 238.194L668.931 241.189Z" fill="#1C468A"/>
<path d="M674.334 256.657L674.601 256.192L669.203 240.779L668.931 241.189L674.334 256.657Z" fill="#EFDECE"/>
<path d="M669.204 240.779L654.823 237.983L654.119 238.194L668.931 241.189L669.204 240.779Z" fill="#FCECDB"/>
<path d="M654.119 238.194L657.187 233.326L659.14 238.821L654.823 237.983L654.119 238.194Z" fill="#EFDECE"/>
<path d="M664.553 243.549C665.046 243.454 666.105 243.056 667.177 242.762C666.845 242.549 666.577 242.25 666.402 241.896C666.209 241.284 666.096 241.098 666.708 241.284C667.321 241.471 669.574 242.508 669.574 242.508C670.841 242.878 672.008 244.65 672.008 244.65C672.008 244.65 687.686 250.158 689.572 250.252C692.49 250.399 711.922 243.252 711.922 243.252C716.514 244.261 715.476 249.891 713.9 250.901C712.323 251.911 698.344 256.981 690.062 257.076C685.868 257.125 670.606 247.321 670.606 247.321C670.606 247.321 668.821 246.507 667.419 246.761C666.016 247.015 662.771 246.761 662.07 245.614C661.369 244.466 663.726 243.708 664.553 243.549Z" fill="#FFB27D"/>
<path d="M701.914 246.789C701.914 246.789 703.65 252.297 709.617 253.52C709.617 253.52 719.469 250.488 714.565 243.778C714.577 243.793 709.715 240.192 701.914 246.789Z" fill="white"/>
<path d="M654.373 243.962C654.366 243.811 654.383 243.66 654.425 243.515C654.425 243.515 655.827 241.293 656.29 241.202C657.692 240.923 657.692 242.771 657.395 243.955C657.182 244.726 656.784 245.432 656.234 246.012L656.29 247.75C655.622 247.389 655.08 246.833 654.737 246.156C654.395 245.479 654.268 244.713 654.373 243.962V243.962Z" fill="#FFB27D"/>
<path d="M811.234 350.901H22.7813C22.2926 350.901 21.8965 351.297 21.8965 351.785V352.064C21.8965 352.552 22.2926 352.948 22.7813 352.948H811.234C811.722 352.948 812.118 352.552 812.118 352.064V351.785C812.118 351.297 811.722 350.901 811.234 350.901Z" fill="#233862"/>
</svg>