<svg width="36" height="36" viewBox="0 0 36 36" fill="none" xmlns="http://www.w3.org/2000/svg">
<path d="M18 6C15.6266 6 13.3066 6.70379 11.3332 8.02236C9.35977 9.34094 7.8217 11.2151 6.91345 13.4078C6.0052 15.6005 5.76756 18.0133 6.23058 20.3411C6.6936 22.6689 7.83649 24.8071 9.51472 26.4853C11.193 28.1635 13.3312 29.3064 15.6589 29.7694C17.9867 30.2324 20.3995 29.9948 22.5922 29.0866C24.7849 28.1783 26.6591 26.6402 27.9776 24.6668C29.2962 22.6935 30 20.3734 30 18C30 14.8174 28.7357 11.7652 26.4853 9.51472C24.2348 7.26428 21.1826 6 18 6ZM16.51 12C16.51 11.6022 16.668 11.2206 16.9493 10.9393C17.2306 10.658 17.6122 10.5 18.01 10.5C18.4078 10.5 18.7894 10.658 19.0707 10.9393C19.352 11.2206 19.51 11.6022 19.51 12V18.89C19.51 19.087 19.4712 19.282 19.3958 19.464C19.3204 19.646 19.21 19.8114 19.0707 19.9507C18.9314 20.0899 18.766 20.2004 18.584 20.2758C18.402 20.3512 18.207 20.39 18.01 20.39C17.813 20.39 17.618 20.3512 17.436 20.2758C17.254 20.2004 17.0886 20.0899 16.9493 19.9507C16.8101 19.8114 16.6996 19.646 16.6242 19.464C16.5488 19.282 16.51 19.087 16.51 18.89V12ZM18 25.5C17.6598 25.5 17.3273 25.3991 17.0444 25.2101C16.7616 25.0211 16.5411 24.7525 16.4109 24.4382C16.2808 24.1239 16.2467 23.7781 16.3131 23.4444C16.3794 23.1108 16.5432 22.8043 16.7838 22.5638C17.0243 22.3232 17.3308 22.1594 17.6644 22.0931C17.9981 22.0267 18.3439 22.0607 18.6582 22.1909C18.9725 22.3211 19.2411 22.5416 19.4301 22.8244C19.6191 23.1073 19.72 23.4398 19.72 23.78C19.72 24.2362 19.5388 24.6737 19.2162 24.9962C18.8937 25.3188 18.4562 25.5 18 25.5Z" fill="#FF0000"/>
</svg>
