<svg width="375" height="271" viewBox="0 0 375 271" fill="none" xmlns="http://www.w3.org/2000/svg">
<path d="M83.0923 254.153H41.7598C41.0349 254.153 40.4473 254.74 40.4473 255.465V256.193C40.4473 256.917 41.0349 257.505 41.7598 257.505H83.0923C83.8171 257.505 84.4048 256.917 84.4048 256.193V255.465C84.4048 254.74 83.8171 254.153 83.0923 254.153Z" fill="#ADBEC4"/>
<path d="M344.955 254.153H333.645C332.92 254.153 332.332 254.74 332.332 255.465V256.192C332.332 256.917 332.92 257.505 333.645 257.505H344.955C345.679 257.505 346.267 256.917 346.267 256.192V255.465C346.267 254.74 345.679 254.153 344.955 254.153Z" fill="#ADBEC4"/>
<path d="M160.867 254.153H119.534C118.809 254.153 118.222 254.74 118.222 255.465V256.192C118.222 256.917 118.809 257.505 119.534 257.505H160.867C161.592 257.505 162.179 256.917 162.179 256.192V255.465C162.179 254.74 161.592 254.153 160.867 254.153Z" fill="#ADBEC4"/>
<path d="M221.549 254.153H180.217C179.492 254.153 178.904 254.74 178.904 255.465V256.192C178.904 256.917 179.492 257.505 180.217 257.505H221.549C222.274 257.505 222.862 256.917 222.862 256.192V255.465C222.862 254.74 222.274 254.153 221.549 254.153Z" fill="#ADBEC4"/>
<path d="M295.86 254.153H239.52C238.795 254.153 238.207 254.74 238.207 255.465V256.192C238.207 256.917 238.795 257.505 239.52 257.505H295.86C296.584 257.505 297.172 256.917 297.172 256.192V255.465C297.172 254.74 296.584 254.153 295.86 254.153Z" fill="#ADBEC4"/>
<path d="M96.945 69.795C96.945 69.795 92.58 66.795 86.19 69.1125C79.8 71.43 78.375 80.0025 79.95 87C81.525 93.9975 72.75 117.75 72.75 117.75C72.75 117.75 77.3175 124.178 93.2775 121.718C93.2775 121.718 105.188 100.08 104.302 84.555C103.418 69.03 96.945 69.795 96.945 69.795Z" fill="#0E3944"/>
<path d="M102 96.6375C108 94.7175 111.667 99.7125 115.11 109.013C118.552 118.313 119.685 119.25 119.685 119.25L132.953 127.778L131.85 132.75C131.85 132.75 119.22 127.808 116.168 124.658C113.115 121.508 104.333 105.585 104.333 105.585L102 96.6375Z" fill="#EF6E4B"/>
<path d="M72.7496 156.705C72.7496 156.705 70.1471 169.89 70.5746 189.705C70.5746 189.705 60.3221 204.832 68.7821 247.995H73.2296C73.2296 247.995 76.8521 211.245 79.6271 201.322C82.4021 191.4 92.6546 188.317 93.2096 158.062L72.7496 156.705Z" fill="#FF8B66"/>
<path d="M52.4399 195.472C49.8599 186.968 43.2299 172.725 26.1899 153.42C25.7976 153.27 25.3739 153.22 24.9574 153.275C24.5409 153.33 24.1447 153.488 23.8049 153.735C22.3574 154.62 22.3574 155.663 22.3574 155.663C22.3574 155.663 30.8924 174.255 36.3299 187.875C37.2248 190.119 38.7725 192.043 40.7729 193.397C42.7733 194.752 45.1341 195.475 47.5499 195.472H52.4399Z" fill="#FF8B66"/>
<path d="M83.4149 211.92C83.4149 211.92 83.4749 218.265 79.3124 218.37C73.4324 218.528 73.2149 212.123 66.5624 212.333C59.9099 212.543 46.1624 214.208 41.8124 203.798C39.5624 198.42 42.6449 191.52 35.3624 186.315C28.0799 181.11 31.6124 175.283 35.3624 172.155C39.1124 169.028 33.7424 165.63 37.6124 164.04C38.4758 163.693 39.4361 163.675 40.3124 163.988C40.8112 164.179 41.2847 164.431 41.7224 164.738C43.1206 165.755 44.314 167.027 45.2399 168.488C56.2499 138.247 75.9224 134.25 75.9224 134.25L95.3474 140.955C95.8199 187.98 83.4149 211.92 83.4149 211.92Z" fill="#164353"/>
<path d="M102 96.6375C98.4233 97.6186 94.6757 97.8054 91.0196 97.185C84.5696 96.2025 82.4771 92.16 77.9396 94.7625C71.1371 98.6775 74.3246 112.14 76.0346 119.138C76.6721 121.748 77.4746 128.603 75.9371 134.265C75.9371 134.265 84.9971 141.308 95.3696 140.963L101.025 128.655C101.025 128.655 113.31 113.94 102 96.6375Z" fill="#CFD8DC"/>
<path d="M90.4722 85.3425C90.8467 89.4639 90.2984 93.617 88.8672 97.5C88.8672 97.5 92.2347 102.465 95.4447 99.195C95.8791 94.8242 97.2065 90.5893 99.3447 86.7525C101.752 82.3425 90.4722 85.3425 90.4722 85.3425Z" fill="#EF6E4B"/>
<path d="M85.3125 85.5599C85.3125 85.5599 82.4775 83.7674 82.8 86.5349C83.1675 89.7449 86.3025 90.3674 86.6325 89.2424C86.9625 88.1174 85.3125 85.5599 85.3125 85.5599Z" fill="#FF8B66"/>
<path d="M101.594 82.0875C101.594 82.0875 103.394 79.2525 104.287 81.8925C105.314 84.9525 102.787 86.8575 101.977 85.98C101.167 85.1025 101.594 82.0875 101.594 82.0875Z" fill="#FF8B66"/>
<path d="M95.7375 95.1526C90.585 96.3001 86.9325 93.5926 84.675 83.5126C83.5125 78.3076 85.425 74.5125 91.2075 73.2375C96.99 71.9625 100.11 74.5951 101.273 79.7926C103.703 90.6226 101.048 93.9601 95.7375 95.1526Z" fill="#FF8B66"/>
<path d="M100.372 83.7676C100.418 84.0459 100.368 84.3314 100.231 84.5779C100.094 84.8244 99.8783 85.0175 99.618 85.1259C99.3577 85.2344 99.0685 85.2518 98.797 85.1755C98.5256 85.0991 98.2879 84.9334 98.1223 84.7051C98.0449 84.4237 98.0799 84.1233 98.2198 83.8672C98.3597 83.6111 98.5937 83.4194 98.8723 83.3326C99.1293 83.1929 99.4309 83.1602 99.7118 83.2417C99.9927 83.3231 100.23 83.5121 100.372 83.7676Z" fill="#DB614D"/>
<path d="M89.8571 86.4225C89.9581 86.6624 89.9818 86.9278 89.925 87.1818C89.8682 87.4359 89.7336 87.6659 89.54 87.8399C89.3464 88.0139 89.1035 88.1233 88.8448 88.1528C88.5862 88.1824 88.3248 88.1306 88.097 88.0047C87.8692 87.8789 87.6862 87.6851 87.5736 87.4505C87.4609 87.2158 87.4242 86.9519 87.4685 86.6954C87.5127 86.4389 87.6358 86.2025 87.8206 86.0192C88.0054 85.8359 88.2427 85.7147 88.4996 85.6725C88.7789 85.5975 89.0765 85.6338 89.3296 85.7737C89.5828 85.9135 89.7718 86.1461 89.8571 86.4225Z" fill="#DB614D"/>
<path d="M96.7947 79.0726C96.7413 79.0727 96.6891 79.0571 96.6447 79.0276C95.9891 78.6716 95.2243 78.5727 94.4997 78.7501C94.4311 78.7661 94.359 78.7546 94.2988 78.7182C94.2386 78.6817 94.1949 78.6232 94.1772 78.5551C94.1612 78.4885 94.1718 78.4183 94.2069 78.3594C94.2419 78.3006 94.2985 78.2578 94.3647 78.2401C95.2325 78.0249 96.1496 78.1483 96.9297 78.5851C96.9588 78.6033 96.9839 78.6273 97.0035 78.6555C97.0231 78.6837 97.0368 78.7155 97.0439 78.7491C97.0509 78.7827 97.051 78.8174 97.0443 78.8511C97.0375 78.8848 97.0241 78.9168 97.0047 78.9451C96.9823 78.9814 96.9515 79.012 96.915 79.0341C96.8785 79.0563 96.8373 79.0695 96.7947 79.0726Z" fill="#0E3944"/>
<path d="M87.1042 81.24C87.0603 81.2543 87.013 81.2543 86.9692 81.24C86.9389 81.223 86.9123 81.2 86.8912 81.1724C86.8701 81.1448 86.8549 81.1131 86.8465 81.0794C86.8381 81.0457 86.8366 81.0106 86.8422 80.9763C86.8478 80.942 86.8604 80.9093 86.8792 80.88C87.394 80.1507 88.1705 79.6483 89.0467 79.4775C89.0806 79.4706 89.1156 79.4705 89.1497 79.4771C89.1837 79.4837 89.2161 79.497 89.245 79.5162C89.2739 79.5353 89.2988 79.56 89.3181 79.5887C89.3375 79.6175 89.351 79.6498 89.3579 79.6837C89.3648 79.7177 89.3649 79.7527 89.3583 79.7868C89.3517 79.8208 89.3384 79.8532 89.3193 79.8821C89.3001 79.911 89.2754 79.9358 89.2467 79.9552C89.2179 79.9746 89.1856 79.9881 89.1517 79.995C88.4219 80.1407 87.7724 80.5523 87.3292 81.15C87.3017 81.182 87.2668 81.2069 87.2277 81.2225C87.1885 81.2382 87.1461 81.2442 87.1042 81.24Z" fill="#0E3944"/>
<path d="M97.0195 81.8925C97.162 82.5375 97.0195 83.115 96.637 83.1975C96.2545 83.28 95.887 82.8225 95.7295 82.185C95.572 81.5475 95.7295 80.9625 96.112 80.88C96.4945 80.7975 96.877 81.255 97.0195 81.8925Z" fill="#1A4850"/>
<path d="M89.8643 83.4375C90.0143 84.075 89.8643 84.6525 89.4818 84.735C89.0993 84.8175 88.7318 84.36 88.5818 83.7225C88.4318 83.085 88.5818 82.5 88.9643 82.4175C89.3468 82.335 89.7218 82.7925 89.8643 83.4375Z" fill="#1A4850"/>
<path d="M92.1826 89.4825C92.1826 89.4825 95.4826 89.22 96.9451 87.9825C96.9451 87.9825 96.5401 90.5625 94.7401 90.7425C94.2377 90.8012 93.7291 90.7135 93.2754 90.49C92.8217 90.2664 92.4422 89.9166 92.1826 89.4825Z" fill="#1A4850"/>
<path d="M95.2497 81.9675C95.2497 81.9675 95.3622 80.2875 95.9997 80.2575C96.6371 80.2275 97.4096 81.48 97.4096 81.48L98.2196 80.79L97.3346 81.1125C97.3346 81.1125 96.5396 79.815 95.9322 79.95C95.0322 80.1375 95.2497 81.9675 95.2497 81.9675Z" fill="#1A4850"/>
<path d="M90.262 83.2501C90.262 83.2501 89.4445 81.75 88.852 82.0275C88.2595 82.305 88.102 83.7301 88.102 83.7301L87.082 83.4526L88.0195 83.3701C88.0195 83.3701 88.1845 81.87 88.7695 81.72C89.647 81.5475 90.262 83.2501 90.262 83.2501Z" fill="#1A4850"/>
<path d="M93.8477 86.5049L93.5852 86.0024C93.7341 85.9495 93.8589 85.8443 93.9361 85.7063C94.0134 85.5684 94.0379 85.4071 94.0052 85.2524C93.9792 85.1235 93.9198 85.0036 93.8329 84.9049C93.7461 84.8062 93.6347 84.732 93.5102 84.6899C93.4127 84.6899 93.3227 84.7724 93.2552 84.9524L92.7227 84.7574C92.766 84.5711 92.8727 84.4057 93.0246 84.2894C93.1765 84.1731 93.364 84.1132 93.5552 84.1199C93.8054 84.1673 94.0353 84.2895 94.2147 84.4702C94.3942 84.651 94.5146 84.8818 94.5602 85.1324C94.6163 85.4082 94.5762 85.6949 94.4466 85.9446C94.3169 86.1944 94.1055 86.3922 93.8477 86.5049Z" fill="#DB614D"/>
<path d="M85.7249 87.375C85.7249 87.375 84.1349 81.5325 85.0799 77.4075C85.0799 77.4075 89.5799 71.175 98.1974 74.25C99.9593 77.3409 101.241 80.6815 102 84.1575C102 84.1575 102.322 82.08 101.46 77.46C100.597 72.84 96.5024 69.96 90.8849 70.8975C85.2674 71.835 79.2749 77.4075 85.7249 87.375Z" fill="#0E3944"/>
<path d="M94.7848 72.96C94.7848 72.96 95.1224 74.46 93.6448 78.405C93.4934 78.2515 93.313 78.1296 93.1141 78.0464C92.9152 77.9632 92.7017 77.9203 92.4861 77.9203C92.2705 77.9203 92.057 77.9632 91.8581 78.0464C91.6592 78.1296 91.4788 78.2515 91.3273 78.405C90.0823 79.5225 87.5773 79.155 86.6773 79.7475C86.4043 79.9998 86.1867 80.3061 86.0382 80.647C85.8898 80.9878 85.8137 81.3557 85.8148 81.7275C85.3702 80.517 85.3702 79.188 85.8148 77.9775C84.7806 79.3531 84.251 81.0426 84.3148 82.7625C84.3148 82.7625 82.0648 82.395 82.1323 78.6225C82.1998 74.85 87.5923 68.7525 93.6073 69.15C99.6223 69.5475 101.047 79.065 101.047 79.065C100.844 78.928 100.614 78.8358 100.372 78.7944C100.13 78.753 99.8823 78.7634 99.6449 78.825C99.443 77.2226 98.9337 75.6743 98.1449 74.265C98.5107 75.5087 98.5107 76.8314 98.1449 78.075C97.2233 77.5908 96.1817 77.3825 95.1449 77.475C95.1449 77.475 95.9998 75.8625 94.7848 72.96Z" fill="#0E3944"/>
<path d="M76.4021 96C79.3271 93.69 81.6071 96.6225 82.1621 100.68C82.7171 104.737 77.4296 128.677 73.3496 127.8C71.7746 127.455 71.0996 121.185 71.0996 121.185C72.3093 115.622 73.1859 109.992 73.7246 104.325C74.2496 99.6375 74.8796 97.17 76.4021 96Z" fill="#FF8B66"/>
<path d="M67.8897 124.38C63.9522 120.63 56.8872 108.173 55.0947 101.828L58.0947 100.628C58.0947 100.628 67.0947 113.505 71.2047 116.752C75.3147 120 76.7472 123.615 74.9547 126.712C73.1622 129.81 68.7147 125.175 67.8897 124.38Z" fill="#FF8B66"/>
<path d="M56.3245 93.5251C56.1145 97.5976 59.437 98.5576 57.9595 101.685C57.8428 101.954 57.672 102.196 57.4578 102.396C57.2437 102.596 56.9907 102.749 56.7145 102.848C56.2614 102.993 55.7762 103.007 55.3154 102.887C54.8547 102.768 54.4374 102.52 54.112 102.173C52.4985 100.634 50.7144 99.2855 48.7945 98.1526C47.2945 97.2976 48.157 97.0651 48.157 97.0651L47.7295 96.8851C46.6795 96.4501 45.8395 96.2776 46.597 95.8126C47.3545 95.3476 50.5045 96.3901 50.5045 96.3901C46.5445 93.7501 45.4645 94.3951 46.192 93.8326C47.1745 93.0826 50.947 94.8301 51.0595 94.8826C48.967 92.9026 47.4445 92.4526 48.277 92.1526C49.1095 91.8526 53.2495 94.8526 54.7495 96.0001L55.297 96.4201C55.2745 93.0676 56.3245 93.5251 56.3245 93.5251Z" fill="#FF8B66"/>
<path d="M54.7499 96L55.2974 96.42C55.089 96.8546 54.9987 97.3363 55.0356 97.8169C55.0724 98.2974 55.2352 98.7598 55.5074 99.1575C55.0192 98.813 54.6731 98.3025 54.5337 97.7215C54.3943 97.1404 54.4712 96.5285 54.7499 96Z" fill="#EF6E4B"/>
<path d="M51.2995 98.3175C50.947 98.13 48.952 96.9975 48.157 97.065L47.7295 96.885C48.2695 96.18 50.902 98.0325 51.2995 98.3175Z" fill="#EF6E4B"/>
<path d="M67.0269 158.753C67.0269 158.911 66.9798 159.066 66.8916 159.198C66.8035 159.33 66.6781 159.433 66.5315 159.494C66.3848 159.555 66.2235 159.571 66.0678 159.54C65.9122 159.509 65.7692 159.432 65.6569 159.32C65.5447 159.208 65.4683 159.065 65.4373 158.909C65.4063 158.753 65.4222 158.592 65.483 158.445C65.5437 158.299 65.6466 158.173 65.7785 158.085C65.9105 157.997 66.0657 157.95 66.2244 157.95C66.4372 157.95 66.6413 158.035 66.7918 158.185C66.9423 158.336 67.0269 158.54 67.0269 158.753Z" fill="#6097B2"/>
<path d="M81.3071 164.25C81.3086 164.409 81.2628 164.565 81.1755 164.698C81.0882 164.831 80.9634 164.935 80.8169 164.997C80.6704 165.059 80.5089 165.076 80.3527 165.045C80.1965 165.015 80.0528 164.94 79.9399 164.828C79.8269 164.716 79.7497 164.573 79.7181 164.417C79.6866 164.261 79.702 164.099 79.7625 163.952C79.823 163.805 79.9259 163.679 80.058 163.591C80.1901 163.502 80.3456 163.455 80.5046 163.455C80.7161 163.455 80.9191 163.538 81.0694 163.687C81.2197 163.836 81.3051 164.038 81.3071 164.25Z" fill="#6097B2"/>
<path d="M93.4722 167.25C93.4722 167.409 93.4251 167.564 93.3369 167.696C93.2488 167.828 93.1234 167.931 92.9768 167.991C92.8302 168.052 92.6688 168.068 92.5131 168.037C92.3575 168.006 92.2145 167.93 92.1022 167.817C91.99 167.705 91.9136 167.562 91.8826 167.407C91.8516 167.251 91.8675 167.09 91.9283 166.943C91.989 166.796 92.0919 166.671 92.2238 166.583C92.3558 166.495 92.511 166.447 92.6697 166.447C92.8825 166.447 93.0866 166.532 93.2371 166.683C93.3876 166.833 93.4722 167.037 93.4722 167.25Z" fill="#6097B2"/>
<path d="M74.7749 148.298C74.7749 148.456 74.7279 148.611 74.6397 148.743C74.5515 148.875 74.4262 148.978 74.2795 149.039C74.1329 149.1 73.9715 149.116 73.8159 149.085C73.6602 149.054 73.5172 148.977 73.405 148.865C73.2927 148.753 73.2163 148.61 73.1853 148.454C73.1544 148.299 73.1703 148.137 73.231 147.991C73.2917 147.844 73.3946 147.719 73.5266 147.63C73.6586 147.542 73.8137 147.495 73.9724 147.495C74.1853 147.495 74.3894 147.58 74.5399 147.73C74.6904 147.881 74.7749 148.085 74.7749 148.298Z" fill="#6097B2"/>
<path d="M76.6726 156.712C77.1158 156.712 77.4751 156.353 77.4751 155.91C77.4751 155.467 77.1158 155.107 76.6726 155.107C76.2294 155.107 75.8701 155.467 75.8701 155.91C75.8701 156.353 76.2294 156.712 76.6726 156.712Z" fill="#6097B2"/>
<path d="M90.1343 160.237C90.1357 160.396 90.0899 160.552 90.0027 160.685C89.9154 160.818 89.7906 160.922 89.6441 160.984C89.4976 161.046 89.336 161.063 89.1798 161.033C89.0237 161.003 88.88 160.927 88.767 160.815C88.654 160.703 88.5769 160.56 88.5453 160.404C88.5137 160.248 88.5291 160.087 88.5897 159.94C88.6502 159.792 88.753 159.667 88.8851 159.578C89.0173 159.49 89.1727 159.442 89.3318 159.442C89.5433 159.442 89.7463 159.526 89.8966 159.675C90.0469 159.824 90.1323 160.026 90.1343 160.237Z" fill="#6097B2"/>
<path d="M91.8667 147.12C91.8667 147.279 91.8194 147.434 91.7309 147.567C91.6424 147.699 91.5166 147.802 91.3696 147.862C91.2225 147.923 91.0607 147.938 90.9049 147.906C90.749 147.875 90.606 147.798 90.4941 147.685C90.3822 147.572 90.3063 147.428 90.2762 147.272C90.2461 147.116 90.2631 146.954 90.325 146.808C90.3869 146.661 90.4909 146.536 90.6238 146.449C90.7568 146.362 90.9127 146.316 91.0717 146.317C91.1767 146.317 91.2807 146.338 91.3777 146.379C91.4746 146.419 91.5626 146.478 91.6365 146.553C91.7105 146.628 91.7689 146.716 91.8084 146.813C91.8479 146.911 91.8677 147.015 91.8667 147.12Z" fill="#6097B2"/>
<path d="M82.7771 145.192C83.2203 145.192 83.5796 144.833 83.5796 144.39C83.5796 143.947 83.2203 143.587 82.7771 143.587C82.3339 143.587 81.9746 143.947 81.9746 144.39C81.9746 144.833 82.3339 145.192 82.7771 145.192Z" fill="#6097B2"/>
<path d="M59.94 174.367C59.94 174.526 59.8929 174.681 59.8047 174.813C59.7165 174.945 59.5912 175.048 59.4446 175.109C59.2979 175.17 59.1366 175.185 58.9809 175.155C58.8252 175.124 58.6822 175.047 58.57 174.935C58.4578 174.823 58.3813 174.68 58.3504 174.524C58.3194 174.368 58.3353 174.207 58.396 174.06C58.4568 173.914 58.5596 173.788 58.6916 173.7C58.8236 173.612 58.9787 173.565 59.1375 173.565C59.2431 173.564 59.3479 173.584 59.4457 173.624C59.5436 173.664 59.6324 173.723 59.7071 173.798C59.7819 173.873 59.8409 173.961 59.8809 174.059C59.9209 174.157 59.941 174.262 59.94 174.367Z" fill="#6097B2"/>
<path d="M48.5318 171C48.5318 171.159 48.4847 171.314 48.3965 171.446C48.3083 171.578 48.183 171.681 48.0364 171.741C47.8897 171.802 47.7284 171.818 47.5727 171.787C47.417 171.756 47.274 171.68 47.1618 171.567C47.0496 171.455 46.9731 171.312 46.9422 171.157C46.9112 171.001 46.9271 170.84 46.9878 170.693C47.0486 170.546 47.1514 170.421 47.2834 170.333C47.4154 170.245 47.5705 170.197 47.7293 170.197C47.9421 170.197 48.1462 170.282 48.2967 170.433C48.4472 170.583 48.5318 170.787 48.5318 171Z" fill="#6097B2"/>
<path d="M41.7303 164.7C41.6571 164.812 41.5569 164.904 41.4389 164.966C41.3209 165.029 41.189 165.061 41.0553 165.06C40.9499 165.059 40.8457 165.037 40.7487 164.996C40.6517 164.955 40.5638 164.895 40.49 164.82C40.4162 164.744 40.3579 164.655 40.3185 164.558C40.2791 164.46 40.2593 164.355 40.2603 164.25C40.2562 164.154 40.2769 164.058 40.3203 163.972C40.818 164.157 41.2914 164.401 41.7303 164.7Z" fill="#6097B2"/>
<path d="M63.2244 185.61C63.6676 185.61 64.0269 185.251 64.0269 184.807C64.0269 184.364 63.6676 184.005 63.2244 184.005C62.7812 184.005 62.4219 184.364 62.4219 184.807C62.4219 185.251 62.7812 185.61 63.2244 185.61Z" fill="#6097B2"/>
<path d="M43.5524 196.148C43.5632 196.259 43.5506 196.371 43.5154 196.478C43.4802 196.584 43.4231 196.682 43.3479 196.764C43.2727 196.847 43.181 196.913 43.0786 196.959C42.9763 197.004 42.8656 197.027 42.7537 197.027C42.6418 197.027 42.5311 197.004 42.4287 196.959C42.3264 196.913 42.2347 196.847 42.1595 196.764C42.0842 196.682 42.0272 196.584 41.992 196.478C41.9567 196.371 41.9441 196.259 41.9549 196.148C41.9742 195.949 42.0666 195.765 42.2143 195.631C42.362 195.497 42.5543 195.423 42.7537 195.423C42.9531 195.423 43.1454 195.497 43.293 195.631C43.4407 195.765 43.5332 195.949 43.5524 196.148Z" fill="#6097B2"/>
<path d="M51.1199 190.08C51.5631 190.08 51.9224 189.721 51.9224 189.278C51.9224 188.834 51.5631 188.475 51.1199 188.475C50.6767 188.475 50.3174 188.834 50.3174 189.278C50.3174 189.721 50.6767 190.08 51.1199 190.08Z" fill="#6097B2"/>
<path d="M38.6619 183.997C39.1051 183.997 39.4644 183.638 39.4644 183.195C39.4644 182.752 39.1051 182.393 38.6619 182.393C38.2187 182.393 37.8594 182.752 37.8594 183.195C37.8594 183.638 38.2187 183.997 38.6619 183.997Z" fill="#6097B2"/>
<path d="M49.4995 207.15C49.4992 207.311 49.4505 207.468 49.3598 207.601C49.2691 207.734 49.1405 207.836 48.9908 207.895C48.841 207.954 48.6771 207.966 48.5202 207.931C48.3632 207.896 48.2206 207.814 48.1107 207.696C48.0009 207.579 47.9289 207.431 47.9041 207.272C47.8793 207.113 47.9029 206.95 47.9718 206.805C48.0406 206.659 48.1516 206.538 48.2903 206.456C48.429 206.375 48.589 206.337 48.7495 206.347C48.9531 206.361 49.144 206.451 49.2833 206.6C49.4227 206.749 49.5 206.946 49.4995 207.15Z" fill="#6097B2"/>
<path d="M57.1343 165.06C57.1328 165.219 57.0843 165.373 56.9948 165.505C56.9054 165.636 56.7791 165.737 56.6319 165.797C56.4847 165.856 56.3232 165.87 56.1679 165.838C56.0125 165.806 55.8702 165.728 55.7591 165.615C55.6479 165.501 55.5728 165.358 55.5433 165.202C55.5138 165.046 55.5312 164.885 55.5933 164.738C55.6554 164.592 55.7594 164.468 55.8922 164.381C56.025 164.294 56.1806 164.249 56.3393 164.25C56.4449 164.25 56.5496 164.271 56.647 164.312C56.7444 164.353 56.8328 164.413 56.9068 164.488C56.9808 164.564 57.039 164.653 57.0781 164.751C57.1172 164.849 57.1363 164.954 57.1343 165.06Z" fill="#6097B2"/>
<path d="M64.829 151.583C64.8232 151.74 64.7711 151.892 64.6795 152.02C64.5878 152.148 64.4605 152.246 64.3134 152.302C64.1664 152.358 64.006 152.37 63.8524 152.336C63.6988 152.302 63.5586 152.223 63.4493 152.109C63.3401 151.996 63.2666 151.853 63.238 151.698C63.2094 151.544 63.2269 151.384 63.2884 151.239C63.35 151.094 63.4527 150.97 63.584 150.883C63.7152 150.797 63.8691 150.75 64.0265 150.75C64.1348 150.749 64.2422 150.77 64.342 150.812C64.4419 150.854 64.5322 150.915 64.6073 150.993C64.6824 151.071 64.7409 151.164 64.779 151.265C64.8171 151.366 64.8342 151.474 64.829 151.583Z" fill="#6097B2"/>
<path d="M73.4997 140.362C73.4804 140.561 73.3879 140.745 73.2403 140.879C73.0926 141.013 72.9003 141.087 72.7009 141.087C72.5015 141.087 72.3092 141.013 72.1616 140.879C72.0139 140.745 71.9214 140.561 71.9022 140.362C71.8914 140.251 71.904 140.139 71.9392 140.032C71.9744 139.926 72.0315 139.829 72.1067 139.746C72.1819 139.663 72.2737 139.597 72.376 139.551C72.4783 139.506 72.589 139.482 72.7009 139.482C72.8128 139.482 72.9235 139.506 73.0259 139.551C73.1282 139.597 73.2199 139.663 73.2951 139.746C73.3704 139.829 73.4274 139.926 73.4626 140.032C73.4979 140.139 73.5105 140.251 73.4997 140.362Z" fill="#6097B2"/>
<path d="M55.897 156.705C55.897 156.864 55.8499 157.019 55.7617 157.151C55.6736 157.283 55.5482 157.386 55.4016 157.446C55.2549 157.507 55.0936 157.523 54.9379 157.492C54.7823 157.461 54.6393 157.385 54.527 157.272C54.4148 157.16 54.3384 157.017 54.3074 156.862C54.2764 156.706 54.2923 156.545 54.3531 156.398C54.4138 156.251 54.5167 156.126 54.6486 156.038C54.7806 155.95 54.9358 155.902 55.0945 155.902C55.3073 155.902 55.5114 155.987 55.6619 156.138C55.8124 156.288 55.897 156.492 55.897 156.705Z" fill="#6097B2"/>
<path d="M65.6323 143.588C65.6323 143.746 65.5853 143.901 65.4971 144.033C65.4089 144.165 65.2836 144.268 65.1369 144.329C64.9903 144.39 64.829 144.406 64.6733 144.375C64.5176 144.344 64.3746 144.267 64.2624 144.155C64.1502 144.043 64.0737 143.9 64.0428 143.744C64.0118 143.588 64.0277 143.427 64.0884 143.28C64.1492 143.134 64.252 143.008 64.384 142.92C64.516 142.832 64.6711 142.785 64.8298 142.785C65.0427 142.785 65.2468 142.87 65.3973 143.02C65.5478 143.171 65.6323 143.375 65.6323 143.588Z" fill="#6097B2"/>
<path d="M50.3169 179.633C50.3169 179.791 50.2702 179.945 50.1826 180.077C50.0951 180.208 49.9707 180.311 49.8249 180.372C49.6791 180.434 49.5185 180.45 49.3633 180.42C49.208 180.391 49.065 180.316 48.9522 180.205C48.8394 180.094 48.7618 179.953 48.7292 179.798C48.6966 179.643 48.7103 179.483 48.7688 179.336C48.8272 179.189 48.9277 179.062 49.0577 178.972C49.1877 178.883 49.3414 178.833 49.4994 178.83C49.6061 178.828 49.712 178.847 49.8111 178.887C49.9102 178.926 50.0005 178.985 50.0766 179.06C50.1527 179.134 50.2132 179.224 50.2544 179.322C50.2957 179.42 50.3169 179.526 50.3169 179.633Z" fill="#6097B2"/>
<path d="M40.2595 172.56C40.2703 172.671 40.2576 172.784 40.2224 172.89C40.1872 172.996 40.1301 173.094 40.0549 173.177C39.9797 173.26 39.888 173.326 39.7856 173.371C39.6833 173.417 39.5726 173.44 39.4607 173.44C39.3488 173.44 39.2381 173.417 39.1358 173.371C39.0334 173.326 38.9417 173.26 38.8665 173.177C38.7913 173.094 38.7342 172.996 38.699 172.89C38.6638 172.784 38.6511 172.671 38.662 172.56C38.6812 172.361 38.7737 172.177 38.9213 172.043C39.069 171.909 39.2613 171.835 39.4607 171.835C39.6601 171.835 39.8524 171.909 40.0001 172.043C40.1477 172.177 40.2402 172.361 40.2595 172.56Z" fill="#6097B2"/>
<path d="M68.6248 170.97C69.068 170.97 69.4273 170.611 69.4273 170.167C69.4273 169.724 69.068 169.365 68.6248 169.365C68.1816 169.365 67.8223 169.724 67.8223 170.167C67.8223 170.611 68.1816 170.97 68.6248 170.97Z" fill="#6097B2"/>
<path d="M85.1775 175.17C85.6207 175.17 85.98 174.811 85.98 174.367C85.98 173.924 85.6207 173.565 85.1775 173.565C84.7343 173.565 84.375 173.924 84.375 174.367C84.375 174.811 84.7343 175.17 85.1775 175.17Z" fill="#6097B2"/>
<path d="M85.1767 151.582C85.1708 151.74 85.1188 151.892 85.0271 152.02C84.9354 152.148 84.8081 152.246 84.6611 152.302C84.514 152.358 84.3537 152.37 84.2001 152.336C84.0464 152.301 83.9062 152.223 83.797 152.109C83.6877 151.996 83.6142 151.853 83.5856 151.698C83.557 151.544 83.5746 151.384 83.6361 151.239C83.6976 151.094 83.8004 150.97 83.9316 150.883C84.0629 150.797 84.2168 150.75 84.3742 150.75C84.4825 150.749 84.5898 150.77 84.6897 150.812C84.7895 150.853 84.8798 150.915 84.9549 150.993C85.0301 151.071 85.0885 151.164 85.1266 151.265C85.1648 151.366 85.1818 151.474 85.1767 151.582Z" fill="#6097B2"/>
<path d="M94.7993 153.255C94.8008 153.414 94.755 153.57 94.6677 153.703C94.5804 153.836 94.4556 153.94 94.3091 154.002C94.1626 154.064 94.001 154.081 93.8449 154.05C93.6887 154.02 93.545 153.944 93.4321 153.833C93.3191 153.721 93.2419 153.578 93.2103 153.422C93.1787 153.266 93.1942 153.104 93.2547 152.957C93.3152 152.81 93.4181 152.684 93.5502 152.596C93.6823 152.507 93.8378 152.46 93.9968 152.46C94.2083 152.46 94.4113 152.543 94.5616 152.692C94.7119 152.841 94.7973 153.043 94.7993 153.255Z" fill="#6097B2"/>
<path d="M75.5767 180.435C75.5767 180.594 75.5296 180.749 75.4414 180.881C75.3533 181.013 75.2279 181.116 75.0813 181.176C74.9346 181.237 74.7733 181.253 74.6176 181.222C74.462 181.191 74.319 181.115 74.2067 181.002C74.0945 180.89 74.0181 180.747 73.9871 180.592C73.9561 180.436 73.972 180.275 74.0328 180.128C74.0935 179.981 74.1964 179.856 74.3283 179.768C74.4603 179.68 74.6155 179.633 74.7742 179.633C74.8798 179.632 74.9846 179.652 75.0825 179.692C75.1803 179.732 75.2691 179.791 75.3439 179.865C75.4186 179.94 75.4777 180.029 75.5176 180.127C75.5576 180.225 75.5777 180.329 75.5767 180.435Z" fill="#6097B2"/>
<path d="M67.822 195.48C68.2652 195.48 68.6245 195.121 68.6245 194.678C68.6245 194.234 68.2652 193.875 67.822 193.875C67.3788 193.875 67.0195 194.234 67.0195 194.678C67.0195 195.121 67.3788 195.48 67.822 195.48Z" fill="#6097B2"/>
<path d="M55.5369 197.76C55.9801 197.76 56.3394 197.401 56.3394 196.958C56.3394 196.514 55.9801 196.155 55.5369 196.155C55.0937 196.155 54.7344 196.514 54.7344 196.958C54.7344 197.401 55.0937 197.76 55.5369 197.76Z" fill="#6097B2"/>
<path d="M89.3318 185.61C89.775 185.61 90.1343 185.251 90.1343 184.807C90.1343 184.364 89.775 184.005 89.3318 184.005C88.8886 184.005 88.5293 184.364 88.5293 184.807C88.5293 185.251 88.8886 185.61 89.3318 185.61Z" fill="#6097B2"/>
<path d="M79.0718 190.875C79.0718 191.034 79.0247 191.189 78.9365 191.321C78.8484 191.453 78.723 191.556 78.5764 191.616C78.4298 191.677 78.2684 191.693 78.1127 191.662C77.9571 191.631 77.8141 191.555 77.7018 191.442C77.5896 191.33 77.5132 191.187 77.4822 191.032C77.4513 190.876 77.4671 190.715 77.5279 190.568C77.5886 190.421 77.6915 190.296 77.8234 190.208C77.9554 190.12 78.1106 190.073 78.2693 190.073C78.4821 190.073 78.6862 190.157 78.8367 190.308C78.9872 190.458 79.0718 190.662 79.0718 190.875Z" fill="#6097B2"/>
<path d="M62.4292 208.748C62.4307 208.907 62.3849 209.063 62.2976 209.195C62.2103 209.328 62.0855 209.432 61.939 209.494C61.7925 209.556 61.6309 209.573 61.4748 209.543C61.3186 209.513 61.1749 209.437 61.0619 209.325C60.949 209.213 60.8718 209.07 60.8402 208.914C60.8086 208.759 60.8241 208.597 60.8846 208.45C60.9451 208.303 61.0479 208.177 61.1801 208.088C61.3122 208 61.4676 207.953 61.6267 207.953C61.8382 207.953 62.0412 208.036 62.1915 208.185C62.3418 208.334 62.4272 208.536 62.4292 208.748Z" fill="#6097B2"/>
<path d="M73.9724 205.388C74.4156 205.388 74.7749 205.028 74.7749 204.585C74.7749 204.142 74.4156 203.782 73.9724 203.782C73.5292 203.782 73.1699 204.142 73.1699 204.585C73.1699 205.028 73.5292 205.388 73.9724 205.388Z" fill="#6097B2"/>
<path d="M85.867 200.67C86.3102 200.67 86.6695 200.311 86.6695 199.868C86.6695 199.424 86.3102 199.065 85.867 199.065C85.4238 199.065 85.0645 199.424 85.0645 199.868C85.0645 200.311 85.4238 200.67 85.867 200.67Z" fill="#6097B2"/>
<path d="M81.3072 213.637C81.3072 213.796 81.2601 213.951 81.1719 214.083C81.0837 214.215 80.9584 214.318 80.8118 214.379C80.6651 214.44 80.5038 214.456 80.3481 214.425C80.1924 214.394 80.0494 214.317 79.9372 214.205C79.825 214.093 79.7485 213.95 79.7176 213.794C79.6866 213.638 79.7025 213.477 79.7632 213.33C79.824 213.184 79.9268 213.058 80.0588 212.97C80.1908 212.882 80.3459 212.835 80.5047 212.835C80.7175 212.835 80.9216 212.92 81.0721 213.07C81.2226 213.221 81.3072 213.425 81.3072 213.637Z" fill="#6097B2"/>
<path d="M80.4295 255.795H67.282C66.4195 253.343 68.032 250.89 67.7395 248.73C67.282 245.085 69.4045 247.095 69.4045 247.095C69.7795 243.18 75.292 242.437 75.232 244.185C75.142 246.757 75.637 248.347 76.372 249.435C77.872 251.572 80.287 251.557 80.6995 253.095C80.7445 253.237 80.7745 253.388 80.8045 253.523C81.2095 255.42 80.4295 255.795 80.4295 255.795Z" fill="#164353"/>
<path d="M80.8047 253.5C78.0822 254.138 71.8047 253.313 71.5497 251.73C71.2947 250.148 74.6922 249.48 76.3722 249.413C77.8722 251.55 80.2872 251.535 80.6997 253.073C80.7447 253.215 80.7747 253.365 80.8047 253.5Z" fill="#205260"/>
<path d="M26.3772 153.945C24.9822 152.67 22.7097 154.777 22.7097 154.777C22.7097 154.777 23.9322 156.592 23.1372 157.327C22.3422 158.062 21.4347 156.382 19.8747 157.117C19.7425 157.181 19.6147 157.254 19.4922 157.335C18.2772 158.085 17.0097 159.585 15.9897 160.74L15.3972 161.378C14.2047 162.63 11.1297 163.365 10.5597 160.035C9.98965 156.705 13.7322 152.797 17.8422 149.205C21.9522 145.612 24.5922 147.75 24.5922 147.75C25.0651 148.493 25.3816 149.325 25.5222 150.195C25.5222 151.132 26.3547 151.597 26.8197 152.49C26.9396 152.744 26.9607 153.034 26.879 153.303C26.7972 153.572 26.6183 153.801 26.3772 153.945Z" fill="#164353"/>
<path d="M19.4994 157.335C18.2844 158.085 17.0169 159.585 15.9969 160.74C14.4519 161.108 13.0719 160.995 12.8544 159.548C12.3294 156.053 19.3044 151.605 18.7494 154.065C18.6526 154.633 18.669 155.214 18.7977 155.775C18.9264 156.336 19.1649 156.866 19.4994 157.335Z" fill="#205260"/>
<path d="M262.965 250.103C262.198 249.597 261.582 248.895 261.18 248.07C260.912 246.167 260.912 244.236 261.18 242.332C261.645 239.392 260.363 236.985 256.2 236.085C252.158 235.207 249.75 237.157 250.688 245.295C250.073 248.678 249.938 252.54 251.348 255.795H263.805C263.805 255.795 265.77 251.58 262.965 250.103Z" fill="#CFD8DC"/>
<path d="M273.892 206.25C273.64 212.007 272.075 217.63 269.317 222.69C264.652 231.173 258.885 242.812 258.885 242.812C258.885 242.812 255.045 246.563 252.607 240.353C252.607 240.353 254.325 218.737 258.285 210.825C262.245 202.912 273.892 206.25 273.892 206.25Z" fill="#FF8B66"/>
<path d="M333.644 179.805C333.644 179.805 341.062 211.012 345.779 219.247C345.779 219.247 344.699 222.69 339.584 223.747C339.584 223.747 323.437 200.017 322.402 189.997C321.367 179.977 333.644 179.805 333.644 179.805Z" fill="#FF8B66"/>
<path d="M337.229 187.148C335.257 191.903 319.979 192.158 319.979 192.158L318.817 190.44L318.509 189.99L316.124 186.48C316.124 186.48 290.857 161.73 285.937 163.778C285.791 163.843 285.653 163.923 285.524 164.018C282.142 166.433 281.827 179.67 277.829 201.878C277.382 204.014 276.755 206.109 275.954 208.14C275.879 208.32 275.812 208.493 275.744 208.665C275.377 209.603 275.122 210.165 275.122 210.165C259.702 216.413 254.609 204.068 254.609 204.068C254.609 204.068 254.797 203.708 255.059 203.138L255.254 202.718C256.064 200.94 257.354 197.85 257.339 196.215C257.339 194.43 257.324 192.708 257.294 191.048C257.294 190.898 257.294 190.755 257.294 190.613C257.294 185.273 257.294 180.638 257.294 176.61V176.25C257.294 174.495 257.339 172.853 257.369 171.323V170.888C257.504 163.868 257.729 159.18 257.969 156.06C257.969 155.917 257.969 155.768 257.969 155.633C258.397 150.383 258.847 149.865 258.847 149.865L255.757 128.385H289.499C289.499 128.385 294.562 133.455 301.132 140.152L301.544 140.558C303.922 142.98 306.494 145.613 309.082 148.29L309.382 148.598L312.382 151.733C312.502 151.86 312.622 151.995 312.749 152.115C316.124 155.625 319.409 159.083 322.214 162.105C322.312 162.203 322.409 162.3 322.499 162.405C326.339 166.56 329.249 169.905 330.269 171.405C332.706 175.403 334.686 179.662 336.172 184.103C336.232 184.253 336.277 184.388 336.329 184.53C336.929 186.128 337.229 187.148 337.229 187.148Z" fill="#8B383E"/>
<path d="M263.955 153.045C262.42 154.761 260.292 155.833 258 156.045C258 155.902 258 155.752 258 155.617C260.16 155.411 262.163 154.399 263.61 152.782C265.025 150.943 265.711 148.647 265.537 146.332L265.957 146.28C266.158 148.706 265.443 151.119 263.955 153.045Z" fill="#662C33"/>
<path d="M301.567 140.527H301.177C297.427 140.527 293.512 136.425 293.317 136.223L293.617 135.93C293.662 135.99 297.562 140.07 301.155 140.1L301.567 140.527Z" fill="#662C33"/>
<path d="M275.999 208.14C275.924 208.32 275.857 208.492 275.789 208.665C273.591 209.498 271.263 209.935 268.912 209.955C262.252 209.955 257.662 206.1 255.104 203.205L255.299 202.785C258.517 206.557 265.432 212.16 275.999 208.14Z" fill="#662C33"/>
<path d="M284.999 156.045C285.596 158.58 285.907 161.173 285.929 163.777C285.784 163.843 285.645 163.923 285.517 164.018C285.517 151.448 278.219 141.638 278.137 141.518L278.467 141.263C281.462 145.609 283.637 150.466 284.887 155.595C285.31 155.328 285.675 154.978 285.961 154.567C286.247 154.156 286.448 153.692 286.552 153.202C287.602 148.792 282.802 141.585 282.802 141.51L283.139 141.27C283.342 141.585 288.052 148.71 286.972 153.27C286.853 153.844 286.616 154.387 286.276 154.864C285.937 155.342 285.502 155.744 284.999 156.045Z" fill="#662C33"/>
<path d="M322.56 162.375C321.315 163.717 320.152 164.872 320.047 164.97L319.822 165.195L319.71 164.895C318.075 160.62 307.59 151.395 307.477 151.275L307.35 151.155L309.105 148.26L309.405 148.567L307.905 150.997C309.332 151.568 310.871 151.809 312.405 151.702C312.525 151.83 312.645 151.965 312.772 152.085C312.411 152.149 312.044 152.181 311.677 152.183C310.583 152.153 309.499 151.963 308.46 151.62C310.837 153.773 318.21 160.62 319.942 164.452C320.595 163.807 321.442 162.953 322.237 162.075C322.372 162.173 322.5 162.27 322.56 162.375Z" fill="#662C33"/>
<path d="M264.982 191.01H264.817C263.428 191.298 262.013 191.443 260.595 191.445C259.49 191.462 258.387 191.331 257.317 191.055C257.317 190.905 257.317 190.763 257.317 190.62C260.062 191.415 263.737 190.8 264.57 190.62L263.872 173.295C263.384 174.565 262.455 175.617 261.255 176.258C260.535 176.613 259.74 176.79 258.937 176.775C258.398 176.771 257.86 176.71 257.332 176.595V176.25C258.576 176.606 259.907 176.505 261.082 175.965C261.74 175.593 262.317 175.092 262.778 174.493C263.239 173.894 263.576 173.209 263.767 172.478C262.38 172.688 259.567 171.975 257.43 171.323V170.888C259.74 171.585 262.86 172.388 263.985 172.005L264.247 171.915L264.982 191.01Z" fill="#662C33"/>
<path d="M336.39 184.5C334.409 186.444 332.065 187.978 329.491 189.015C326.918 190.052 324.165 190.572 321.39 190.545C320.548 190.543 319.707 190.498 318.87 190.41L318.562 189.96C327.84 191.025 333.667 186.675 336.255 184.073C336.292 184.253 336.337 184.388 336.39 184.5Z" fill="#662C33"/>
<path d="M295.755 37.0575C295.755 37.0575 294.825 34.92 290.917 34.92C287.917 34.92 286.747 36.585 286.747 36.585C284.94 41.835 282.997 62.085 282.307 62.7675C281.955 63.135 259.582 78.2025 259.582 78.2025C271.725 78.4275 279.3 93.39 279.3 93.39C279.69 88.4775 293.4 68.9925 293.55 67.2525C293.827 63.975 299.625 49.335 295.755 37.0575Z" fill="#CE364C"/>
<path d="M256.92 142.635C256.92 142.635 256.808 146.85 258.173 147.135C266.595 149.266 275.491 148.472 283.403 144.885C296.153 139.08 298.403 134.782 294.653 131.587C290.903 128.392 256.92 142.635 256.92 142.635Z" fill="#CE364C"/>
<path d="M251.805 81.12C251.805 81.12 240.187 79.74 233.527 82.62C233.527 82.62 231.667 90.87 240.817 109.312C249.967 127.755 247.845 139.387 258.172 143.76C267.322 147.637 294.3 136.095 295.147 132.27C297.277 122.632 280.777 105.75 279.75 95.925C278.722 86.1 269.122 71.4 251.805 81.12Z" fill="#F24052"/>
<path d="M233.527 82.62C225.405 85.5075 216.277 94.62 216.277 99.015C216.277 103.41 223.89 105.105 223.89 105.105L236.385 99C236.385 99 239.97 96.5025 237.69 89.25C235.41 81.9975 233.527 82.62 233.527 82.62Z" fill="#CE364C"/>
<path d="M266.887 90.7499C264.292 90.7167 261.759 89.9496 259.582 88.5374C259.141 88.2768 258.757 87.9311 258.452 87.5202C258.147 87.1094 257.927 86.6418 257.804 86.1449C257.347 83.2649 260.152 81.7949 260.272 81.7349L260.647 82.4849C260.549 82.5374 258.262 83.7449 258.622 86.0249C258.846 86.8023 259.362 87.4632 260.062 87.8699C262.445 89.4338 265.297 90.1229 268.132 89.8199C268.539 89.7953 268.936 89.6811 269.294 89.4853C269.651 89.2895 269.962 89.017 270.202 88.6874C270.31 88.4536 270.371 88.2003 270.38 87.9427C270.389 87.685 270.346 87.4282 270.254 87.1874L271.004 86.8574C271.142 87.211 271.206 87.5892 271.192 87.9684C271.177 88.3477 271.086 88.72 270.922 89.0624C270.627 89.5095 270.234 89.8831 269.772 90.1548C269.311 90.4265 268.793 90.589 268.259 90.6299C267.806 90.7087 267.347 90.7488 266.887 90.7499Z" fill="#CFD8DC"/>
<path d="M256.59 99.5325C254.79 99.5325 251.812 98.7825 251.392 95.835C251.235 94.5537 251.25 93.2572 251.437 91.98C251.617 90.3525 251.752 89.07 250.807 87.525C249.24 84.99 247.11 84.8175 247.02 84.81L247.072 83.9775C247.177 83.9775 249.712 84.165 251.52 87.09C252.615 88.875 252.442 90.4275 252.27 92.07C252.091 93.2775 252.076 94.5035 252.225 95.715C252.675 98.9025 256.725 98.715 256.905 98.715L256.95 99.5475L256.59 99.5325Z" fill="#CFD8DC"/>
<path d="M259.117 84.585C259.117 84.585 265.259 80.4075 263.797 75.8775C262.334 71.3475 242.564 71.6625 237.464 77.0775C232.364 82.4925 248.497 86.0775 248.497 86.0775C249.749 83.565 257.729 83.2875 259.117 84.585Z" fill="#CE364C"/>
<path d="M248.077 83.8801C245.16 82.8901 243.435 80.7901 244.057 78.3601C244.68 75.9301 257.212 75.8626 259.582 77.8051C261.952 79.7476 258.615 87.4576 248.077 83.8801Z" fill="#A02E44"/>
<path d="M246.689 77.055C246.689 77.055 249.262 81.4575 248.077 83.88C248.077 83.88 256.919 86.9325 256.919 81.9825C256.919 81.9825 255.254 78.2775 255.877 75.8775L246.689 77.055Z" fill="#EF6E4B"/>
<path d="M243.749 73.2075C243.749 73.2075 239.407 66.2475 239.812 59.6025C240.014 56.28 241.724 54.975 241.724 54.975C241.724 54.975 240.344 53.055 241.822 50.1225C241.822 50.1225 243.869 52.4925 251.047 51.7425C257.977 50.9925 258.667 55.965 258.667 55.965C263.617 56.715 260.279 71.6775 256.822 73.215L243.749 73.2075Z" fill="#FFB878"/>
<path d="M241.897 66.75C241.897 66.75 239.399 64.26 239.092 67.17C238.732 70.545 241.799 71.91 242.399 70.8375C242.999 69.765 241.897 66.75 241.897 66.75Z" fill="#FF8B66"/>
<path d="M259.387 66.9599C259.387 66.9599 261.885 64.4624 262.192 67.3799C262.545 70.7549 259.477 72.1124 258.877 71.0399C258.277 69.9674 259.387 66.9599 259.387 66.9599Z" fill="#FF8B66"/>
<path d="M250.38 79.005C244.837 79.005 241.71 75.39 241.71 64.53C241.71 58.935 244.56 55.53 250.762 55.53C256.965 55.53 259.582 58.965 259.582 64.53C259.582 76.2 256.102 79.005 250.38 79.005Z" fill="#FF8B66"/>
<path d="M257.752 68.4074C257.856 68.6587 257.878 68.9359 257.817 69.2006C257.756 69.4654 257.614 69.7046 257.411 69.8853C257.208 70.066 256.954 70.1794 256.684 70.2096C256.414 70.2399 256.142 70.1856 255.904 70.0543C255.666 69.923 255.475 69.7211 255.356 69.4765C255.238 69.2319 255.199 68.9566 255.244 68.6887C255.288 68.4207 255.415 68.1732 255.607 67.9805C255.798 67.7877 256.045 67.6591 256.312 67.6123C256.609 67.5287 256.926 67.5653 257.196 67.7141C257.465 67.8629 257.665 68.112 257.752 68.4074Z" fill="#DB614D"/>
<path d="M246.353 68.7075C246.396 68.976 246.354 69.2512 246.234 69.4951C246.114 69.7391 245.921 69.9396 245.682 70.0691C245.443 70.1986 245.169 70.2506 244.899 70.218C244.629 70.1854 244.376 70.0697 244.175 69.887C243.973 69.7042 243.834 69.4635 243.775 69.1979C243.716 68.9324 243.742 68.6552 243.847 68.4047C243.953 68.1542 244.134 67.9427 244.365 67.7994C244.596 67.6561 244.866 67.5882 245.138 67.605C245.444 67.5946 245.742 67.704 245.969 67.9098C246.196 68.1156 246.333 68.4018 246.353 68.7075Z" fill="#DB614D"/>
<path d="M255.307 62.58C255.271 62.5877 255.233 62.587 255.196 62.5779C255.16 62.5688 255.126 62.5516 255.097 62.5275C254.427 62.1099 253.625 61.955 252.847 62.0925C252.776 62.1038 252.703 62.0877 252.643 62.0473C252.583 62.0069 252.541 61.9454 252.525 61.875C252.518 61.839 252.519 61.8022 252.527 61.7665C252.535 61.7308 252.55 61.697 252.57 61.667C252.591 61.637 252.618 61.6115 252.649 61.5919C252.68 61.5722 252.714 61.5588 252.75 61.5525C253.674 61.3835 254.627 61.5768 255.412 62.0925C255.469 62.1369 255.506 62.2017 255.516 62.2731C255.526 62.3445 255.507 62.4169 255.465 62.475C255.427 62.5284 255.371 62.5658 255.307 62.58Z" fill="#FFB878"/>
<path d="M244.702 62.625C244.631 62.6126 244.568 62.5754 244.522 62.52C244.475 62.4633 244.453 62.3904 244.46 62.3173C244.467 62.2442 244.503 62.1768 244.56 62.13C245.333 61.5985 246.278 61.3764 247.207 61.5075C247.28 61.5204 247.345 61.5613 247.389 61.6215C247.432 61.6818 247.45 61.7566 247.44 61.83C247.427 61.9012 247.387 61.9645 247.328 62.0065C247.269 62.0485 247.196 62.0659 247.125 62.055C246.351 61.949 245.564 62.1276 244.912 62.5575C244.884 62.5825 244.85 62.6014 244.814 62.613C244.778 62.6246 244.74 62.6287 244.702 62.625Z" fill="#FFB878"/>
<path d="M254.737 65.7075C254.737 66.3975 254.43 66.96 254.047 66.96C253.665 66.96 253.35 66.3975 253.35 65.7075C253.35 65.0175 253.665 64.4625 254.047 64.4625C254.43 64.4625 254.737 65.025 254.737 65.7075Z" fill="#1A4850"/>
<path d="M247.335 65.7074C247.335 66.3974 247.027 66.9599 246.645 66.9599C246.262 66.9599 245.947 66.3974 245.947 65.7074C245.947 65.0174 246.262 64.4624 246.645 64.4624C247.027 64.4624 247.335 65.0249 247.335 65.7074Z" fill="#1A4850"/>
<path d="M243.405 56.7C248.053 58.137 252.935 58.6642 257.782 58.2525C257.782 58.2525 259.582 60.5025 259.365 68.445C259.365 68.445 264.322 54.1425 249.847 54.1425C235.372 54.1425 241.897 68.13 241.897 68.13C241.897 68.13 240.75 59.3775 243.405 56.7Z" fill="#FFB878"/>
<path d="M250.725 69.4126L250.312 68.9926L251.407 67.9051C250.342 66.4051 250.35 62.9251 250.35 62.7676H250.942C250.942 62.8051 250.942 66.5176 252.022 67.7176L252.21 67.9276L250.725 69.4126Z" fill="#DB614D"/>
<path d="M247.05 71.25C247.05 71.25 252.502 71.475 255.255 70.7475C255.33 71.2764 255.288 71.8154 255.132 72.3263C254.976 72.8373 254.71 73.3078 254.352 73.7047C253.995 74.1016 253.554 74.4152 253.062 74.6235C252.57 74.8317 252.039 74.9295 251.505 74.91C247.05 75.0975 247.05 71.25 247.05 71.25Z" fill="#1A4850"/>
<path d="M270.359 86.25C271.394 86.055 271.297 88.7775 270.359 87.99C269.422 87.2025 269.317 86.415 270.359 86.25Z" fill="#CFD8DC"/>
<path d="M257.804 99.42C257.647 100.463 255.104 99.4725 256.162 98.85C257.219 98.2275 257.999 98.37 257.804 99.42Z" fill="#CFD8DC"/>
<path d="M246.63 105.105C246.63 105.105 244.98 109.342 245.07 111.735C245.16 114.128 245.947 113.82 245.947 113.82C245.563 113.986 245.225 114.244 244.964 114.571C244.702 114.897 244.525 115.284 244.447 115.695C244.207 117.075 247.695 118.088 247.935 118.088C248.175 118.088 250.627 117.15 250.627 117.15L251.145 109.313L248.97 107.947L246.63 105.105Z" fill="#EF6E4B"/>
<path d="M247.95 104.557C249.415 105.449 250.809 106.452 252.12 107.557C253.29 108.705 252.622 117.547 252.12 117.967C251.617 118.387 247.785 119.242 247.05 118.762C246.315 118.282 247.335 115.68 247.335 115.68C247.335 115.68 249.262 115.26 248.985 115.987C248.82 116.425 248.82 116.907 248.985 117.345L249.735 117.03C249.522 115.895 249.522 114.73 249.735 113.595C250.125 112.14 247.027 110.595 246.652 107.932C246.277 105.27 247.95 104.557 247.95 104.557Z" fill="#FF8B66"/>
<path d="M216.749 100.245C215.789 96.0825 219.914 94.6125 225.659 95.3175C232.319 96.1425 245.999 97.8825 248.977 105.067C248.977 105.067 249.944 107.91 247.432 109.275C240.412 113.138 218.572 108.06 216.749 100.245Z" fill="#CE364C"/>
<path d="M237.599 97.5C237.599 97.5 229.657 94.2075 225.704 93.87C221.752 93.5325 231.172 96.975 237.599 97.5Z" fill="#A02E44"/>
<path d="M297.112 26.01C296.467 27.0644 295.935 28.1829 295.522 29.3475C295.102 31.5975 294.862 32.8125 294.082 33.8475C293.302 34.8825 293.714 36.675 293.714 36.675C293.714 36.675 290.714 38.235 288.134 36.3075C288.134 36.3075 288.404 34.5225 288.134 34.0125C287.609 32.9925 285.929 32.4525 285.352 30.405C284.816 28.8477 284.041 27.3828 283.057 26.0625C283.057 26.0625 283.544 24.99 284.444 25.6425C285.344 26.295 285.944 27.945 286.417 28.11C286.514 28.1424 286.615 28.165 286.717 28.1775C286.891 28.2074 287.069 28.1995 287.24 28.1542C287.411 28.1089 287.57 28.0273 287.707 27.915C287.728 27.9045 287.746 27.8891 287.759 27.87C288.584 26.91 288.779 24.12 288.742 22.8375C288.697 21.09 288.742 18.675 289.829 19.0875C290.917 19.5 289.919 20.475 290.744 24.3375L291.142 24.3825C291.217 24.66 291.952 22.0425 292.124 19.59C292.252 17.895 293.362 18.525 293.624 19.0575C293.887 19.59 293.497 21.3075 293.422 22.4925C293.362 23.3025 293.294 24.1425 293.257 24.645L293.722 24.9C295.402 21.9675 294.832 20.7525 295.814 20.6925C296.797 20.6325 296.437 23.1075 295.912 24.0525C295.624 24.723 295.417 25.4255 295.297 26.145C297.022 24.15 296.797 23.145 297.622 23.235C298.447 23.325 297.749 25.3275 297.112 26.01Z" fill="#FF8B66"/>
<path d="M289.665 30.6C289.087 28.995 287.002 28.26 286.747 28.1775C286.921 28.2074 287.1 28.1995 287.271 28.1542C287.442 28.1089 287.601 28.0273 287.737 27.915C288.292 28.1151 288.774 28.4789 289.118 28.9582C289.462 29.4376 289.652 30.01 289.665 30.6Z" fill="#EF6E4B"/>
<path d="M253.5 243.578C253.5 243.578 252.352 241.23 253.38 240.217C254.407 239.205 255.63 241.08 257.37 240.66C259.11 240.24 259.53 239.002 259.987 240.697C260.445 242.393 259.882 247.74 253.5 243.578Z" fill="#CFD8DC"/>
<path d="M260.099 243.473C260.099 243.473 255.389 245.145 252.944 243.473L253.567 245.513C253.567 245.513 258.689 246.06 259.394 244.763L260.099 243.473Z" fill="#ADBEC4"/>
<path d="M260.032 246C260.032 246 255.719 245.4 253.642 246.472V247.5C253.642 247.5 259.267 246.187 261.082 247.5L260.032 246Z" fill="#ADBEC4"/>
<path d="M253.433 249.592C253.754 248.945 254.247 248.399 254.858 248.014C255.47 247.629 256.175 247.42 256.898 247.41C258.468 247.323 260.021 247.781 261.293 248.707C261.293 248.707 257.13 246.99 253.433 249.592Z" fill="#ADBEC4"/>
<path d="M364.5 221.25C359.702 227.776 352.789 232.436 344.94 234.435C341.67 231.817 341.588 228.72 341.588 228.72C341.588 228.72 338.43 225.907 338.01 224.557C337.59 223.207 340.718 219.142 342.593 219.562C343.101 219.7 343.576 219.941 343.987 220.272C344.397 220.602 344.735 221.015 344.978 221.482C343.425 217.995 344.67 216.78 346.868 217.08C349.065 217.38 346.988 217.927 348.63 219.772C348.747 219.899 348.878 220.012 349.02 220.11C349.34 220.327 349.704 220.473 350.085 220.537C350.474 220.604 350.869 220.624 351.263 220.597C351.48 220.597 351.705 220.56 351.93 220.53C352.371 220.454 352.807 220.348 353.235 220.215C353.965 219.981 354.671 219.678 355.343 219.307C358.208 217.74 359.415 217.207 361.598 217.762C363.78 218.317 363.735 219.96 363.735 219.96L364.5 221.25Z" fill="#CFD8DC"/>
<path d="M364.499 221.25C359.701 227.776 352.789 232.436 344.939 234.435C350.692 231.96 355.979 228.72 359.594 224.73C363.209 220.74 364.499 221.25 364.499 221.25Z" fill="#ADBEC4"/>
<path d="M349.02 220.117C349.34 220.335 349.704 220.48 350.085 220.545C349.487 220.638 348.936 220.923 348.513 221.355C348.09 221.788 347.818 222.345 347.738 222.945L346.808 222.645C347.01 220.297 348.863 220.125 349.02 220.117Z" fill="#ADBEC4"/>
<path d="M350.497 223.177H349.522C349.358 222.725 349.323 222.236 349.423 221.766C349.522 221.295 349.752 220.862 350.085 220.515C350.474 220.581 350.869 220.602 351.262 220.575C350.923 220.907 350.675 221.321 350.541 221.777C350.407 222.232 350.392 222.714 350.497 223.177Z" fill="#ADBEC4"/>
<path d="M352.904 222.645L351.937 222.765C351.773 222.413 351.688 222.029 351.688 221.64C351.688 221.251 351.773 220.867 351.937 220.515C352.378 220.439 352.814 220.333 353.242 220.2C353.003 220.555 352.849 220.96 352.791 221.384C352.732 221.807 352.771 222.239 352.904 222.645Z" fill="#ADBEC4"/>
<path d="M260.183 120C260.183 120 262.328 131.535 258 136.132C253.673 140.73 256.538 136.957 257.828 131.025C259.118 125.092 258.135 118.815 260.183 120Z" fill="#CE364C"/>
<path d="M280.14 114.81C280.14 114.81 286.957 117.06 290.52 123.345C290.52 123.345 285.75 113.092 280.14 114.81Z" fill="#CE364C"/>
<path d="M103.102 29.0775C104.318 29.308 105.506 29.6623 106.65 30.135C108.577 31.3275 109.65 31.9725 110.94 32.085C112.23 32.1975 112.747 34.395 112.747 34.395C112.747 34.395 117.787 35.4975 118.072 32.3175C118.072 32.3175 115.252 28.3275 115.072 27.8175C114.667 26.745 115.395 25.14 114.262 23.3175C113.472 21.8692 112.908 20.3087 112.59 18.69C112.59 18.69 111.465 18.345 111.345 19.44C111.225 20.535 112.05 22.08 111.847 22.5525C111.806 22.6472 111.756 22.7377 111.697 22.8225C111.605 22.9738 111.481 23.1028 111.333 23.2001C111.185 23.2974 111.018 23.3606 110.842 23.385C110.818 23.393 110.792 23.393 110.767 23.385C109.5 23.385 107.287 21.6075 106.38 20.7375C105.12 19.53 103.282 17.955 102.87 19.02C102.457 20.085 103.83 20.0175 106.132 23.2125L105.907 23.5425C106.057 23.7825 103.657 22.575 101.692 21.0525C100.357 20.01 100.072 21.2475 100.305 21.8025C100.537 22.3575 102 23.25 102.96 24C103.597 24.5025 104.265 25.0125 104.662 25.32L104.542 25.8375C101.242 25.0875 100.725 23.8725 100.042 24.5625C99.3597 25.2525 101.415 26.6475 102.465 26.8875C103.154 27.1279 103.814 27.4475 104.43 27.84C101.797 27.78 101.152 26.94 100.68 27.6075C100.207 28.275 102.195 29.0625 103.102 29.0775Z" fill="#FF8B66"/>
<path d="M111.502 26.64C110.7 25.14 111.555 23.0925 111.667 22.845C111.575 22.9963 111.451 23.1253 111.303 23.2226C111.155 23.3199 110.987 23.3831 110.812 23.4075C110.589 23.9532 110.535 24.5536 110.658 25.1302C110.781 25.7069 111.076 26.233 111.502 26.64Z" fill="#EF6E4B"/>
<path d="M251.497 29.0775C250.284 29.3076 249.098 29.662 247.957 30.135C246.022 31.3275 244.957 31.9725 243.66 32.085C242.362 32.1975 241.86 34.395 241.86 34.395C241.86 34.395 236.812 35.4975 236.527 32.3175C236.527 32.3175 239.347 28.3275 239.527 27.8175C239.932 26.745 239.205 25.14 240.337 23.3175C241.132 21.8704 241.698 20.3096 242.017 18.69C242.017 18.69 243.135 18.345 243.255 19.44C243.375 20.535 242.55 22.08 242.752 22.5525C242.793 22.6489 242.846 22.7397 242.91 22.8225C243.002 22.9732 243.127 23.1016 243.275 23.1988C243.423 23.296 243.59 23.3596 243.765 23.385C243.789 23.393 243.815 23.393 243.84 23.385C245.107 23.385 247.32 21.6075 248.227 20.7375C249.495 19.53 251.325 17.955 251.737 19.02C252.15 20.085 250.777 20.0175 248.475 23.2125L248.707 23.5425C248.55 23.7825 250.957 22.575 252.915 21.0525C254.257 20.01 254.535 21.2475 254.302 21.8025C254.07 22.3575 252.6 23.25 251.64 24C251.002 24.5025 250.335 25.0125 249.937 25.32L250.057 25.8375C253.365 25.0875 253.875 23.8725 254.557 24.5625C255.24 25.2525 253.185 26.6475 252.135 26.8875C251.448 27.1282 250.791 27.4479 250.177 27.84C252.81 27.78 253.447 26.94 253.89 27.6075C254.332 28.275 252.405 29.0625 251.497 29.0775Z" fill="#FF8B66"/>
<path d="M243.097 26.64C243.899 25.14 243.044 23.0925 242.932 22.845C243.024 22.9957 243.149 23.1241 243.297 23.2213C243.444 23.3185 243.612 23.3821 243.787 23.4075C244.01 23.9532 244.064 24.5536 243.94 25.1302C243.817 25.7069 243.523 26.233 243.097 26.64Z" fill="#EF6E4B"/>
<path d="M207.172 181.957L197.482 121.958L178.079 124.125L158.677 121.958L148.994 181.957L144.337 240.143C144.337 240.143 145.837 244.965 155.497 241.643C155.497 241.643 162.674 187.643 163.747 186.488C164.819 185.333 176.264 150.045 176.264 150.045H179.827C179.827 150.045 191.227 185.295 192.337 186.488C193.447 187.68 200.632 241.643 200.632 241.643C210.307 244.973 211.792 240.143 211.792 240.143L207.172 181.957Z" fill="#0E3944"/>
<path d="M171.967 63.8701C173.197 65.0626 179.227 67.2151 182.407 63.8701L184.567 65.9926C184.567 65.9926 182.107 71.7751 177.817 71.9926C173.527 72.2101 170.377 66.8476 170.377 66.8476L171.967 63.8701Z" fill="#0C476B"/>
<path d="M189.045 63.2175C196.26 60.1125 219.577 51.8475 219.577 51.8475C219.577 51.8475 235.252 32.2125 238.447 29.3025C238.447 29.3025 241.92 29.925 242.947 34.245C242.947 34.245 232.852 55.8525 227.37 62.04C221.887 68.2275 194.1 81.6075 194.1 81.6075L189.045 63.2175Z" fill="#0C476B"/>
<path d="M163.785 62.7675C165.938 61.41 176.715 68.625 176.715 68.625C176.715 68.625 190.725 61.185 194.018 62.625C194.018 62.625 196.98 66.5925 198.173 76.785C199.365 86.9775 199.44 128.94 199.44 128.94C192.265 131.181 184.787 132.304 177.27 132.27C162.75 132.27 154.928 128.107 154.928 128.107C154.928 128.107 152.34 70.0125 163.785 62.7675Z" fill="#FFB878"/>
<path d="M172.537 61.68C172.537 61.68 174.09 66.5625 172.537 68.43C172.537 68.43 174.15 71.8125 177.037 71.9625C180.39 72.135 181.537 68.43 181.537 68.43C181.537 68.43 179.767 63.7125 181.537 62.055L172.537 61.68Z" fill="#EF6E4B"/>
<path d="M168.667 56.8726C168.667 56.8726 165.404 50.5876 166.049 43.8676C166.694 37.1476 176.819 35.6176 183.644 38.9101C183.644 38.9101 181.619 36.9301 182.407 36.3826C183.194 35.8351 184.567 39.3826 184.567 39.3826C184.567 39.3826 186.719 38.7226 187.049 39.3826C187.379 40.0426 184.844 40.4026 184.844 40.4026C184.844 40.4026 189.247 42.8476 185.137 55.8376L168.667 56.8726Z" fill="#8B383E"/>
<path d="M168.179 52.8975C168.179 52.8975 165.742 50.4675 165.442 53.3025C165.097 56.595 168.089 57.9225 168.667 56.8725C169.244 55.8225 168.179 52.8975 168.179 52.8975Z" fill="#FF8B66"/>
<path d="M185.25 53.0626C185.25 53.0626 187.68 50.6326 187.98 53.4751C188.332 56.7676 185.34 58.0951 184.755 57.0451C184.17 55.9951 185.25 53.0626 185.25 53.0626Z" fill="#FF8B66"/>
<path d="M176.452 64.815C171.045 64.815 167.992 61.29 167.992 50.7C167.992 45.24 170.775 41.8875 176.827 41.8875C182.88 41.8875 185.43 45.24 185.43 50.7C185.43 62.0775 182.032 64.815 176.452 64.815Z" fill="#FF8B66"/>
<path d="M183.637 54.48C183.62 54.7686 183.506 55.043 183.314 55.2586C183.121 55.4743 182.861 55.6185 182.576 55.668C182.292 55.7175 181.998 55.6693 181.744 55.5313C181.49 55.3932 181.291 55.1734 181.177 54.9075C181.163 54.6092 181.265 54.317 181.462 54.0929C181.66 53.8688 181.937 53.7306 182.235 53.7075C182.523 53.6261 182.832 53.6615 183.094 53.8061C183.357 53.9507 183.552 54.1928 183.637 54.48Z" fill="#DB614D"/>
<path d="M172.499 54.7499C172.539 55.0109 172.497 55.2777 172.379 55.5137C172.26 55.7496 172.072 55.943 171.839 56.0672C171.606 56.1914 171.34 56.2403 171.078 56.2071C170.817 56.1739 170.572 56.0603 170.377 55.8819C170.183 55.7035 170.048 55.4691 169.993 55.2111C169.937 54.9531 169.963 54.6842 170.066 54.4414C170.17 54.1987 170.346 53.9941 170.571 53.856C170.796 53.7178 171.058 53.6528 171.322 53.6699C171.62 53.6597 171.911 53.7671 172.131 53.9691C172.352 54.1711 172.484 54.4515 172.499 54.7499Z" fill="#DB614D"/>
<path d="M181.17 48.9825C181.134 48.9826 181.098 48.9753 181.064 48.9612C181.031 48.947 181 48.9262 180.975 48.9C180.397 48.3996 179.654 48.1322 178.89 48.15C178.819 48.1501 178.75 48.1229 178.699 48.0741C178.647 48.0253 178.616 47.9585 178.612 47.8875C178.611 47.852 178.617 47.8167 178.63 47.7836C178.643 47.7505 178.662 47.7201 178.686 47.6944C178.711 47.6686 178.74 47.6479 178.772 47.6334C178.805 47.6189 178.839 47.611 178.875 47.61C179.791 47.5877 180.681 47.9148 181.365 48.525C181.414 48.5766 181.441 48.6451 181.441 48.7162C181.441 48.7874 181.414 48.8559 181.365 48.9075C181.339 48.9327 181.309 48.9523 181.275 48.9652C181.242 48.9781 181.206 48.984 181.17 48.9825Z" fill="#8B383E"/>
<path d="M170.999 48.9825C170.965 48.983 170.93 48.9766 170.898 48.9637C170.866 48.9509 170.837 48.9318 170.812 48.9075C170.787 48.8824 170.767 48.8526 170.753 48.8198C170.739 48.787 170.732 48.7518 170.732 48.7162C170.732 48.6807 170.739 48.6455 170.753 48.6127C170.767 48.5799 170.787 48.5501 170.812 48.525C171.495 47.9148 172.386 47.5877 173.302 47.61C173.337 47.6109 173.372 47.6189 173.404 47.6335C173.436 47.6481 173.464 47.6689 173.488 47.6948C173.512 47.7207 173.53 47.7511 173.542 47.7842C173.554 47.8173 173.559 47.8524 173.557 47.8875C173.553 47.9585 173.522 48.0253 173.47 48.0741C173.419 48.1229 173.35 48.1501 173.279 48.15C172.518 48.1341 171.778 48.4013 171.202 48.9C171.176 48.9271 171.144 48.9485 171.109 48.9627C171.074 48.9769 171.037 48.9836 170.999 48.9825Z" fill="#8B383E"/>
<path d="M180.697 51.8475C180.697 52.5225 180.397 53.0625 180.022 53.0625C179.647 53.0625 179.347 52.5225 179.347 51.8475C179.347 51.1725 179.654 50.6325 180.022 50.6325C180.389 50.6325 180.697 51.18 180.697 51.8475Z" fill="#1A4850"/>
<path d="M173.482 51.8475C173.482 52.5225 173.182 53.0625 172.807 53.0625C172.432 53.0625 172.132 52.5225 172.132 51.8475C172.132 51.1725 172.439 50.6325 172.807 50.6325C173.174 50.6325 173.482 51.18 173.482 51.8475Z" fill="#1A4850"/>
<path d="M173.482 59.0325C173.482 59.0325 178.252 59.6475 180.697 58.47C180.697 58.47 179.317 61.71 176.715 61.4175C176.004 61.3729 175.321 61.1241 174.747 60.7011C174.174 60.2781 173.735 59.6988 173.482 59.0325Z" fill="#1A4850"/>
<path d="M184.867 54.2625C184.867 54.2625 184.694 48.39 182.407 43.8675C182.407 43.8675 178.372 45.735 177.487 45.2925C176.602 44.85 178.334 43.8675 178.334 43.8675C178.334 43.8675 171.674 46.065 171.277 45.6225C170.879 45.18 173.482 43.8675 173.482 43.8675L169.334 45.2925C169.334 45.2925 168.059 50.58 168.584 54.2925C168.584 54.2925 166.799 51.2175 166.582 49.095C166.364 46.9725 167.294 40.92 173.534 40.485C179.774 40.05 183.284 41.46 184.837 44.325C186.389 47.19 186.202 50.6925 184.867 54.2625Z" fill="#8B383E"/>
<path d="M177.39 57.33C176.979 57.3213 176.571 57.2608 176.175 57.15L176.325 56.6025C176.895 56.7525 177.78 56.85 177.975 56.6025C178.042 56.5275 177.975 56.34 177.9 56.1C177.15 54.435 176.955 50.235 176.947 50.055H177.525C177.525 50.1 177.69 54.3225 178.417 55.875C178.532 56.0404 178.593 56.2366 178.593 56.4375C178.593 56.6384 178.532 56.8346 178.417 57C178.28 57.1251 178.117 57.2193 177.939 57.2762C177.762 57.3331 177.575 57.3515 177.39 57.33Z" fill="#DB614D"/>
<path d="M183.367 65.415C183.367 65.415 193.117 95.775 194.085 120.48C194.085 120.48 197.61 121.448 201.585 116.04C205.56 110.633 203.197 67.755 195.585 60.615C195.585 60.615 192.127 59.8275 183.367 65.415Z" fill="#105E99"/>
<path d="M184.965 70.7249C184.965 70.7249 186.712 66.6599 185.94 63.8699C185.167 61.0799 182.407 63.8699 182.407 63.8699C182.407 63.8699 183.517 68.4374 184.965 70.7249Z" fill="#0C476B"/>
<path d="M165.337 63.2176C158.114 60.1126 134.804 51.8476 134.804 51.8476C134.804 51.8476 119.054 31.6426 115.889 28.7251C114.7 29.4629 113.699 30.4681 112.966 31.6607C112.233 32.8533 111.788 34.2005 111.667 35.5951C111.667 35.5951 121.537 55.8451 127.027 62.0401C132.517 68.2351 160.297 81.6076 160.297 81.6076L165.337 63.2176Z" fill="#0C476B"/>
<path d="M171 65.415C171 65.415 161.25 95.775 160.29 120.48C160.29 120.48 156.757 121.448 152.79 116.04C148.822 110.633 151.185 67.755 158.79 60.615C158.797 60.615 162.255 59.8275 171 65.415Z" fill="#105E99"/>
<path d="M169.417 70.7249C169.417 70.7249 167.662 66.6599 168.442 63.8699C169.222 61.0799 171.967 63.8699 171.967 63.8699C171.967 63.8699 170.857 68.4374 169.417 70.7249Z" fill="#0C476B"/>
<path d="M220.454 255.795H201.037C199.679 248.07 201.839 240.345 201.839 240.345L210.719 238.845C211.529 243.72 212.504 245.648 213.847 246.638C214.829 247.388 215.999 247.59 217.462 248.093C218.142 248.298 218.765 248.656 219.285 249.14C219.805 249.624 220.208 250.22 220.462 250.883C220.958 252.483 220.956 254.196 220.454 255.795Z" fill="#662C33"/>
<path d="M220.5 250.86C215.715 251.46 205.2 252.488 205.837 249.713C206.37 247.395 210.81 246.773 213.87 246.615C214.852 247.365 216.022 247.568 217.485 248.07C218.167 248.274 218.794 248.631 219.316 249.115C219.839 249.598 220.244 250.195 220.5 250.86Z" fill="#8B383E"/>
<path d="M155.422 255.795H136.005C135.628 254.583 135.512 253.305 135.667 252.045C135.77 251.131 136.137 250.266 136.725 249.559C137.313 248.851 138.095 248.331 138.975 248.063C140.655 247.485 141.975 247.267 143.002 246.277C144.03 245.287 145.012 243.195 145.74 238.815L154.612 240.315C154.612 240.315 156.75 248.07 155.422 255.795Z" fill="#662C33"/>
<path d="M135.667 252.052C135.769 251.138 136.137 250.274 136.725 249.566C137.312 248.858 138.094 248.338 138.974 248.07C140.654 247.492 141.974 247.275 143.002 246.285C145.462 247.035 148.897 248.43 149.969 250.537C151.447 253.425 140.099 252.967 135.667 252.052Z" fill="#8B383E"/>
<path d="M294.832 254.4C294.834 254.866 294.807 255.332 294.749 255.795H271.154C271.154 255.322 271.154 254.857 271.154 254.4C271.376 250.475 272.133 246.599 273.404 242.88L279.299 240.345C279.59 242.8 280.832 245.042 282.757 246.592C283.178 246.922 283.63 247.211 284.107 247.455C284.324 247.575 284.534 247.68 284.759 247.777C285.246 247.999 285.747 248.187 286.259 248.34C288.119 248.815 290.012 249.146 291.922 249.33C294.449 249.75 294.832 252.63 294.832 254.4Z" fill="#164353"/>
<path d="M294.832 254.4C294.834 254.866 294.807 255.332 294.749 255.795H271.154C271.154 255.322 271.154 254.857 271.154 254.4H294.832Z" fill="#225866"/>
<path d="M284.107 247.455L280.83 248.505L280.14 247.305L282.757 246.592C283.179 246.922 283.631 247.211 284.107 247.455Z" fill="#225866"/>
<path d="M286.268 248.34L284.063 249.802L282.705 249.27L284.76 247.77C285.249 247.994 285.753 248.184 286.268 248.34Z" fill="#225866"/>
<path d="M204.697 254.4C204.663 254.874 204.575 255.342 204.434 255.795H188.722C188.525 255.347 188.377 254.88 188.279 254.4C186.727 246.9 197.174 237.683 197.174 237.683L200.482 242.1C200.482 242.1 200.099 249.18 202.912 250.658C203.562 251.018 204.083 251.572 204.403 252.243C204.723 252.914 204.826 253.668 204.697 254.4Z" fill="#164353"/>
<path d="M188.25 254.4H204.668C204.634 254.874 204.546 255.342 204.405 255.795H188.723C188.515 255.348 188.357 254.881 188.25 254.4Z" fill="#225866"/>
<path d="M202.192 250.088C202.192 250.088 195.57 248.588 192.555 250.538V249.443C192.555 249.443 198.12 246.75 202.192 250.088Z" fill="#225866"/>
<path d="M200.88 248.407C200.88 248.407 196.65 246.48 192.555 248.407L193.02 247.305C193.02 247.305 197.917 245.46 200.88 248.407Z" fill="#225866"/>
<path d="M287.707 187.553C287.707 193.875 282.105 245.4 282.105 245.4C278.726 245.734 275.315 245.542 271.995 244.83C270.457 218.723 270.307 196.26 270.307 196.26L243.412 176.1L243.345 176.055C243.345 176.055 243.247 176.513 243.06 177.33C241.732 183.24 236.092 208.005 233.745 213.675C231.067 220.133 201.848 247.305 201.848 247.305C196.418 246.555 191.812 242.625 191.812 242.625C202.312 225.225 216.607 207.773 216.607 207.773C217.725 201.503 218.52 187.523 219 177.128V176.648C219.315 169.583 219.472 164.258 219.472 164.258L214.545 154.148L245.865 142.635L252.885 151.635C252.885 151.635 254.49 153.135 257.017 155.513L257.37 155.835C266.79 164.685 287.707 184.725 287.707 187.553Z" fill="#8BBDDB"/>
<path d="M219 177.127V176.647C225.593 173.062 224.49 167.355 224.468 167.295L224.88 167.212C224.918 167.25 226.103 173.407 219 177.127Z" fill="#6097B2"/>
<path d="M242.925 172.065C243.165 173.399 243.328 174.747 243.412 176.1L243.345 176.055C243.345 176.055 243.247 176.512 243.06 177.33C242.767 167.535 238.732 161.745 238.68 161.678L239.025 161.438C240.938 164.546 242.234 167.994 242.842 171.592C247.605 167.363 242.947 158.693 242.895 158.61L243.262 158.408C243.315 158.498 248.25 167.678 242.925 172.065Z" fill="#6097B2"/>
<path d="M257.392 155.82C257.183 155.894 256.962 155.93 256.74 155.925C254.43 155.925 250.56 152.7 250.38 152.543L250.65 152.22C251.91 153.292 255.412 155.842 257.07 155.482L257.392 155.82Z" fill="#6097B2"/>
<path d="M216.75 100.245C216.75 100.245 226.275 98.7451 231.053 101.745C235.83 104.745 242.093 112.733 242.093 112.733C242.093 112.733 234.653 113.715 233.843 118.77C233.82 118.778 228.413 105.9 216.75 100.245Z" fill="#ADBEC4"/>
<path d="M202.425 105.21C198.397 107.392 191.662 115.567 191.355 120.6C191.062 125.505 194.692 130.02 197.145 133.852C204.787 145.852 212.842 156.397 216.262 170.437C216.262 170.527 233.745 177.457 254.242 152.82C254.242 152.82 242.662 137.235 238.657 123.967C237.03 118.567 235.372 112.83 232.245 108.075C230.603 105.499 228.298 103.412 225.571 102.034C222.845 100.657 219.797 100.038 216.75 100.245C211.567 100.665 206.4 103.065 202.425 105.21Z" fill="#CFD8DC"/>
<path d="M200.737 100.193C200.737 100.193 203.317 104.595 202.125 107.018C202.125 107.018 210.967 110.07 210.967 105.12C210.967 105.12 209.302 101.415 209.932 99.0151L200.737 100.193Z" fill="#EF6E4B"/>
<path d="M220.387 130.35C220.387 130.35 215.467 131.745 214.229 133.485C212.992 135.225 211.882 139.132 211.882 139.132H220.387L221.992 136.192L223.859 132.27L220.387 130.35Z" fill="#EF6E4B"/>
<path d="M212.249 95.25C212.249 95.25 215.707 93.8025 213.472 83.415C211.972 76.53 209.857 75.5025 208.477 75.4425C208.477 75.4425 206.789 72.9 200.977 74.1225C198.955 74.471 197.073 75.385 195.549 76.7588C194.025 78.1326 192.922 79.91 192.367 81.885C190.867 86.58 193.867 96.6525 197.699 97.635L212.249 95.25Z" fill="#164353"/>
<path d="M213.074 88.26C213.074 88.26 215.249 85.26 216.074 88.215C217.027 91.68 214.064 93.6225 213.254 92.6025C212.444 91.5825 213.074 88.26 213.074 88.26Z" fill="#FF8B66"/>
<path d="M194.864 91.455C194.864 91.455 191.864 89.28 192.007 92.3775C192.217 95.955 195.652 96.8775 196.087 95.625C196.522 94.3725 194.864 91.455 194.864 91.455Z" fill="#FF8B66"/>
<path d="M206.332 102.472C212.114 101.52 214.754 97.2225 212.879 85.8825C211.919 80.04 208.379 76.95 201.884 78.015C195.389 79.08 193.267 83.115 194.234 88.9575C196.244 101.13 200.362 103.5 206.332 102.472Z" fill="#FF8B66"/>
<path d="M196.815 92.6849C196.749 92.9648 196.773 93.258 196.881 93.5241C196.99 93.7901 197.178 94.0159 197.421 94.1703C197.663 94.3246 197.947 94.3998 198.235 94.3856C198.522 94.3714 198.797 94.2684 199.023 94.0908C199.249 93.9133 199.414 93.6699 199.496 93.3944C199.578 93.1189 199.572 92.8248 199.479 92.5528C199.387 92.2807 199.212 92.0441 198.979 91.8757C198.746 91.7072 198.467 91.6152 198.18 91.6124C197.857 91.5783 197.534 91.6712 197.279 91.8715C197.024 92.0718 196.858 92.3636 196.815 92.6849Z" fill="#DB614D"/>
<path d="M208.754 91.035C208.755 91.3227 208.846 91.6029 209.014 91.8368C209.181 92.0707 209.417 92.2467 209.689 92.3405C209.961 92.4343 210.256 92.4412 210.532 92.3603C210.808 92.2794 211.052 92.1147 211.23 91.8889C211.409 91.6632 211.512 91.3876 211.527 91.1002C211.542 90.8129 211.467 90.5281 211.313 90.2852C211.159 90.0423 210.933 89.8533 210.667 89.7445C210.4 89.6356 210.107 89.6122 209.827 89.6775C209.507 89.7206 209.216 89.8863 209.016 90.1395C208.816 90.3928 208.722 90.7138 208.754 91.035Z" fill="#DB614D"/>
<path d="M198.442 86.3701C198.384 86.3702 198.327 86.3547 198.277 86.3251C198.213 86.2798 198.169 86.2112 198.155 86.1341C198.141 86.057 198.158 85.9775 198.202 85.9126C198.823 85.1385 199.716 84.6313 200.699 84.4951C200.737 84.4888 200.776 84.4902 200.814 84.4993C200.851 84.5084 200.886 84.5251 200.917 84.5482C200.948 84.5714 200.974 84.6005 200.993 84.6339C201.012 84.6673 201.025 84.7043 201.029 84.7426C201.034 84.7811 201.032 84.8202 201.022 84.8577C201.012 84.8952 200.995 84.9303 200.971 84.961C200.947 84.9917 200.918 85.0174 200.884 85.0366C200.85 85.0557 200.813 85.068 200.774 85.0726C199.957 85.192 199.212 85.6086 198.682 86.2426C198.655 86.2817 198.619 86.3137 198.577 86.3359C198.536 86.3581 198.489 86.3699 198.442 86.3701Z" fill="#1A4850"/>
<path d="M209.324 84.5775C209.262 84.5759 209.202 84.5549 209.152 84.5175C208.448 84.0861 207.609 83.9312 206.797 84.0825C206.759 84.0901 206.72 84.0901 206.682 84.0825C206.644 84.0749 206.608 84.0599 206.576 84.0383C206.544 84.0166 206.516 83.9889 206.495 83.9565C206.474 83.9242 206.459 83.888 206.452 83.85C206.443 83.8125 206.442 83.7736 206.449 83.7357C206.455 83.6978 206.47 83.6616 206.491 83.6294C206.512 83.5972 206.539 83.5695 206.571 83.5481C206.603 83.5268 206.639 83.5121 206.677 83.505C207.655 83.3231 208.665 83.5188 209.504 84.0525C209.535 84.0753 209.56 84.104 209.58 84.1369C209.599 84.1698 209.611 84.2062 209.616 84.2439C209.621 84.2817 209.618 84.32 209.608 84.3567C209.598 84.3934 209.58 84.4276 209.557 84.4575C209.531 84.4956 209.497 84.5265 209.456 84.5475C209.415 84.5685 209.37 84.5788 209.324 84.5775Z" fill="#1A4850"/>
<path d="M199.499 89.355C199.619 90.105 200.039 90.6 200.437 90.5325C200.834 90.465 201.067 89.835 200.947 89.115C200.827 88.395 200.407 87.87 200.009 87.9375C199.612 88.005 199.379 88.635 199.499 89.355Z" fill="#1A4850"/>
<path d="M207.217 88.0801C207.33 88.8301 207.75 89.3251 208.155 89.2576C208.56 89.1901 208.777 88.5601 208.657 87.8401C208.537 87.1201 208.125 86.5951 207.72 86.6626C207.315 86.7301 207.097 87.3601 207.217 88.0801Z" fill="#1A4850"/>
<path d="M209.385 94.5974C209.385 94.5974 204.367 95.9399 201.585 95.4074C201.585 95.4074 203.505 97.8299 206.25 97.1324C208.995 96.4349 209.385 94.5974 209.385 94.5974Z" fill="#1A4850"/>
<path d="M209.617 80.625C209.617 80.625 203.092 85.35 194.902 85.71L195.135 93C195.135 93 187.5 78.9375 202.597 76.4475C217.695 73.9575 213.3 89.6625 213.3 89.6625C213.3 89.6625 212.835 82.89 209.617 80.625Z" fill="#0E3944"/>
<path d="M204.285 92.64L204.24 92.01C204.24 92.01 205.117 91.9425 205.35 91.4025C205.44 91.1775 205.072 90.4725 204.742 89.85C204.174 88.8658 203.749 87.805 203.482 86.7L204.097 86.58C204.354 87.6328 204.76 88.6432 205.305 89.58C205.785 90.5025 206.137 91.17 205.927 91.6725C205.757 91.9585 205.517 92.197 205.23 92.366C204.943 92.5351 204.618 92.6293 204.285 92.64Z" fill="#DB614D"/>
<path d="M213.158 80.64C202.185 75.8775 191.828 85.755 191.828 85.755C191.828 85.755 190.62 77.7525 192.735 75.8775C193.282 75.3933 193.869 74.9567 194.49 74.5725C199.335 71.52 205.785 71.5725 208.74 72.6225C209.233 72.7743 209.689 73.0301 210.075 73.3725C211.83 75.1875 213.158 80.64 213.158 80.64Z" fill="#CE364C"/>
<path d="M211.829 78.8625C205.62 77.956 199.293 79.328 194.017 82.725C194.017 82.725 193.469 77.565 194.489 74.5725C199.334 71.52 205.784 71.5725 208.739 72.6225C210.464 74.5875 211.829 78.8625 211.829 78.8625Z" fill="#CFD8DC"/>
<path d="M192.75 84.8175C192.75 84.8175 194.213 78.6075 196.178 76.86C199.455 73.95 208.657 72.9525 213.495 74.7C218.332 76.4475 213.495 81.735 213.495 81.735C213.495 81.735 205.77 76.215 192.75 84.8175Z" fill="#A02E44"/>
<path d="M207 126.053C209.648 129.872 213.128 133.041 217.177 135.323C217.177 135.323 225.202 128.355 235.612 128.985C235.612 128.985 226.987 144.548 219.577 146.235C215.692 147.143 201.577 137.828 201.577 137.828C201.577 137.828 204.397 127.95 207 126.053Z" fill="#FF8B66"/>
<path d="M193.095 115.5C196.545 109.89 204.495 118.185 207.202 124.11C209.91 130.035 211.882 131.288 211.882 131.288C211.882 131.288 203.94 134.61 203.992 140.565C204 140.543 185.572 127.725 193.095 115.5Z" fill="#ADBEC4"/>
<path d="M217.147 132.75C217.147 132.75 221.992 128.003 237.907 121.808L235.852 115.343C237.675 112.935 241.035 112.935 241.035 112.935C241.035 112.935 249.187 124.455 247.785 127.89C246.907 130.05 229.897 132.3 217.147 132.75Z" fill="#EF6E4B"/>
<path d="M234.577 123.368C234.725 122.823 234.98 122.313 235.327 121.868C235.912 121.035 235.755 119.528 235.965 119.055C236.175 118.583 237.427 116.678 238.26 116.303C239.092 115.928 240.18 115.32 240.412 116.378C240.645 117.435 238.912 117.128 238.162 118.628C239.144 118.32 240.183 118.24 241.2 118.395C242.535 118.718 242.917 119.94 241.26 119.895C240.206 119.979 239.183 120.288 238.26 120.803C238.26 120.803 239.985 121.058 239.707 121.853C239.25 123 237.15 122.295 234.577 123.368Z" fill="#FF8B66"/>
<path d="M116.864 145.043C118.289 148.688 124.117 154.935 124.117 154.935C124.117 154.935 138.367 146.4 144.922 149.985C151.477 153.57 156.712 155.767 160.972 154.207C165.232 152.647 146.999 119.423 146.999 119.423L123.314 110.423C123.314 110.423 122.797 116.423 120.089 117.473C117.382 118.523 114.502 128.43 114.697 130.298C114.892 132.165 116.864 145.043 116.864 145.043Z" fill="#3E6575"/>
<path d="M143.512 155.153C143.512 155.153 137.407 167.153 124.762 182.452C124.762 182.452 123.472 200.685 90.1346 229.372L86.6396 226.62C86.6396 226.62 106.5 195.518 110.497 186C114.495 176.483 108.307 167.723 126.577 143.603L143.512 155.153Z" fill="#EF6E4B"/>
<path d="M124.072 133.965C118.822 144.038 117.052 156.908 117.052 156.908L114.659 162.952C120.425 165.901 126.586 168.002 132.952 169.193L136.889 158.783L124.072 133.965Z" fill="#662C33"/>
<path d="M151.5 154.208C151.5 154.208 154.103 167.393 153.675 187.208C153.675 187.208 163.935 202.335 155.468 245.498H151.028C151.028 245.498 147.398 208.748 144.623 198.825C141.848 188.903 131.595 185.82 131.04 155.565L151.5 154.208Z" fill="#FF8B66"/>
<path d="M154.094 168.36C154.094 168.36 145.747 169.86 131.032 169.17L130.799 167.513L130.739 167.085L129.239 156.36C128.139 154.922 127.177 153.382 126.367 151.763C126.187 151.433 126.022 151.087 125.857 150.727C123.877 146.512 122.107 140.37 124.094 133.973L127.199 134.107H127.627L138.022 134.58H138.464L141.877 134.737H142.409L144.659 134.835C144.659 134.835 155.909 144.967 153.907 163.702L154.049 166.312V166.732L154.094 168.36Z" fill="#8B383E"/>
<path d="M127.605 134.137C127.32 134.992 125.355 141.352 126.345 151.763C126.165 151.433 126 151.088 125.835 150.728C125.085 141.21 126.802 135.277 127.177 134.107C127.222 133.972 127.252 133.905 127.252 133.897L127.642 134.032C127.633 134.069 127.621 134.104 127.605 134.137Z" fill="#662C33"/>
<path d="M154.012 166.815C151.057 167.565 146.047 167.782 141.262 167.782C136.987 167.782 132.93 167.61 130.762 167.512L130.702 167.085C134.452 167.265 144.285 167.655 150.63 166.957L150.217 160.26C150.227 153.621 148.67 147.073 145.672 141.15C139.897 140.1 138.307 135.817 137.962 134.61C137.91 134.415 137.887 134.302 137.887 134.295L138.3 134.227C138.327 134.364 138.362 134.499 138.405 134.632C138.906 136.189 139.828 137.576 141.068 138.641C142.308 139.707 143.818 140.409 145.432 140.67C144.394 138.612 143.185 136.645 141.817 134.79C141.637 134.542 141.517 134.4 141.51 134.392L141.825 134.13C141.825 134.13 142.035 134.377 142.35 134.82C144.285 137.445 150.802 147.307 150.637 160.237L151.042 166.912C152.025 166.806 153 166.633 153.96 166.395L154.012 166.815Z" fill="#662C33"/>
<path d="M132.75 88.7924C129.442 86.9624 105.555 96.3299 105.555 96.3299C105.555 96.3299 102.022 102.63 104.227 105.105C106.432 107.58 114.24 106.485 116.64 105.105C119.04 103.725 125.37 102.675 125.37 102.675L132.75 88.7924Z" fill="#8BBDDB"/>
<path d="M153.855 68.9101C155.449 69.6301 156.873 70.6773 158.036 71.9836C159.199 73.2899 160.074 74.8261 160.605 76.4926C162.405 82.1776 157.012 96.5701 158.88 103.185C160.747 109.8 160.455 122.288 154.627 124.935C148.8 127.583 136.867 122.858 134.302 115.643C131.737 108.428 132.84 81.0826 137.775 71.7826C142.71 62.4826 152.67 67.1551 153.855 68.9101Z" fill="#F24052"/>
<path d="M148.185 93.4276C149.49 94.8301 152.835 92.3326 152.835 92.3326C152.835 92.3326 152.767 104.738 149.16 105.683C145.552 106.628 136.41 95.9326 136.747 93.0001C137.085 90.0676 145.305 90.3151 148.185 93.4276Z" fill="#8BBDDB"/>
<path d="M134.295 90.33C137.255 92.5612 140.667 94.1199 144.292 94.8975C150.645 96.3975 154.087 93.3975 157.335 97.4775C162.21 103.627 154.275 114.96 150.105 120.832C148.545 123.022 145.267 129.082 144.6 134.917C144.6 134.917 133.582 138.12 124.072 133.965L123.367 120.465C123.367 120.465 117.375 102.218 134.295 90.33Z" fill="#0E3944"/>
<path d="M145.688 103.5C145.688 103.5 150.728 91.4999 152.182 90.7499C153.637 89.9999 157.342 91.8224 158.085 93.4649C158.827 95.1074 158.085 98.7149 158.085 98.7149C158.085 98.7149 154.11 94.1174 145.688 103.5Z" fill="#8BBDDB"/>
<path d="M169.807 154.2C167.557 158.895 161.902 160.2 161.902 160.2C161.902 160.2 161.475 159.555 160.755 158.385C160.68 158.272 160.597 158.138 160.522 158.003C156.105 150.833 142.59 127.897 142.852 115.965C142.908 111.829 143.787 107.746 145.438 103.954C147.088 100.162 149.478 96.7361 152.467 93.8775C157.185 95.0025 158.677 96.2925 158.677 96.2925C159.639 102.208 159.685 108.236 158.812 114.165C157.35 123.915 154.702 126.495 156.037 127.23C157.372 127.965 156.037 129.413 156.037 129.413C156.037 129.413 163.875 140.325 165.337 143.722L168.907 152.048C168.975 152.22 169.042 152.385 169.11 152.535C169.537 153.562 169.807 154.2 169.807 154.2Z" fill="#6097B2"/>
<path d="M156.202 96.33C156.202 96.33 150.592 100.485 153.855 106.83L169.41 122.925C160.875 132.022 160.027 135.758 153.855 139.95L156.202 143.572C156.202 143.572 177.81 126.967 177.84 122.925C177.855 121.207 164.64 100.283 156.202 96.33Z" fill="#FF8B66"/>
<path d="M153.517 139.965C151.895 140.146 150.282 140.411 148.687 140.76C146.82 141.225 144.33 141.69 144.255 142.08C144.18 142.47 148.372 142.08 148.372 142.08C148.372 142.08 144.952 143.49 144.877 144.03C144.802 144.57 149.227 143.64 149.227 143.64C149.227 143.64 146.43 145.35 146.587 145.815C146.745 146.28 150.187 145.118 150.187 145.118C149.856 145.972 149.418 146.781 148.882 147.525C148.882 147.525 149.55 147.893 150.907 146.385C152.265 144.878 154.425 145.365 156.157 144.03C157.89 142.695 155.077 139.762 153.517 139.965Z" fill="#FF8B66"/>
<path d="M137.624 92.325C137.624 92.325 133.357 95.085 130.664 101.745C127.972 108.405 119.459 120.937 117.472 124.177C115.484 127.417 116.864 145.042 116.864 145.042C116.864 145.042 114.367 134.355 113.257 130.192C112.147 126.03 116.842 115.74 117.547 115.192C118.252 114.645 121.859 115.642 121.169 111.442C120.479 107.242 130.169 89.265 132.734 88.7625C132.749 88.7925 136.874 89.565 137.624 92.325Z" fill="#6097B2"/>
<path d="M124.425 93.2251C124.35 93.3709 124.265 93.5112 124.17 93.6451C123.398 94.6305 122.462 95.4754 121.402 96.1426C121.402 96.1426 118.147 100.703 118.117 101.228C118.087 101.753 112.462 105.728 109.965 105.675C109.664 105.688 109.369 105.586 109.14 105.39C107.64 103.995 114.187 92.2501 115.627 89.7226C115.717 89.5501 115.792 89.4301 115.845 89.3476L115.897 89.2351C115.897 89.2351 114.75 84.9601 119.55 85.7551C123.532 86.4151 124.327 89.5876 124.74 91.7101C124.817 92.2364 124.706 92.7732 124.425 93.2251Z" fill="#6097B2"/>
<path d="M107.677 97.665C110.977 93.33 122.572 84.915 128.677 82.4475L130.177 85.2825C130.177 85.2825 118.38 95.655 115.605 100.095C112.83 104.535 109.402 106.365 106.117 104.888C102.832 103.41 106.987 98.5725 107.677 97.665Z" fill="#FF8B66"/>
<path d="M123.277 92.3325L122.655 93.0825L122.34 93.45L121.305 94.6275C121.305 94.6275 118.71 97.7775 118.807 99.045C118.882 99.9525 113.88 104.01 109.965 105.705C108.375 106.395 106.965 106.695 106.132 106.222C103.305 104.587 103.935 99.6825 105.54 96.36C106.942 93.465 113.13 89.7225 114.72 88.8075L115.087 88.59L115.68 86.295C115.68 86.295 117.832 84.9975 119.535 85.7925C119.535 85.7925 115.785 85.95 116.4 87.4125C117.015 88.875 122.25 92.2875 123.277 92.3325Z" fill="#8BBDDB"/>
<path d="M136.882 80.3175C133.132 81.87 133.657 85.2825 130.2 85.2825C128.055 85.2825 127.777 82.83 127.777 82.83C128.698 80.4751 129.274 77.9996 129.487 75.48C129.63 73.785 130.2 74.4375 130.2 74.4375C130.2 74.28 130.2 74.13 130.2 73.98C130.147 72.84 129.937 72.0075 130.687 72.48C131.437 72.9525 131.827 76.23 131.827 76.23C132.525 71.5125 131.49 70.815 132.3 71.235C133.417 71.7975 133.425 75.96 133.425 76.0875C134.325 73.35 134.085 71.7825 134.707 72.405C135.33 73.0275 134.392 78.0675 134.017 79.905C133.935 80.3175 133.875 80.5725 133.875 80.5725C136.852 79.1775 136.882 80.3175 136.882 80.3175Z" fill="#FF8B66"/>
<path d="M134.002 79.9725C133.92 80.385 133.86 80.64 133.86 80.64C133.378 80.6394 132.905 80.7642 132.487 81.0023C132.069 81.2404 131.72 81.5834 131.475 81.9975C131.578 81.4105 131.891 80.8811 132.357 80.5085C132.822 80.1358 133.407 79.9452 134.002 79.9725Z" fill="#EF6E4B"/>
<path d="M130.409 77.82C130.409 77.4225 130.597 75.1275 130.199 74.4375C130.199 74.28 130.199 74.13 130.199 73.98C131.047 74.1675 130.499 77.34 130.409 77.82Z" fill="#EF6E4B"/>
<path d="M132.75 97.6874C132.75 97.6874 135.293 90.7799 136.11 89.2349C136.928 87.6899 141.143 87.9599 144.36 88.5524C147.578 89.1449 148.208 93.4274 148.208 93.4274C148.208 93.4274 138.465 88.8374 132.75 97.6874Z" fill="#8BBDDB"/>
<path d="M149.159 84.09C147.288 87.7803 146.263 91.8413 146.159 95.9775C146.159 95.9775 141.202 99.3525 139.409 95.13C140.623 90.9104 140.955 86.486 140.384 82.1325C139.784 77.13 149.159 84.09 149.159 84.09Z" fill="#EF6E4B"/>
<path d="M139.417 76.2674C139.417 76.2674 138.51 73.0349 136.897 75.2999C135.03 77.9324 136.935 80.4974 137.932 79.8824C138.93 79.2674 139.417 76.2674 139.417 76.2674Z" fill="#FF8B66"/>
<path d="M153.839 84.5774C153.839 84.5774 157.072 83.6774 155.969 86.2349C154.687 89.2349 151.469 88.8974 151.514 87.7349C151.559 86.5724 153.839 84.5774 153.839 84.5774Z" fill="#FF8B66"/>
<path d="M140.745 90.36C136.147 87.7725 135.247 83.31 140.317 74.31C142.927 69.6675 146.895 68.1525 152.04 71.0475C157.185 73.9425 157.755 78.015 155.137 82.6575C149.692 92.3325 145.5 93.0375 140.745 90.36Z" fill="#FF8B66"/>
<path d="M151.807 85.0125C151.775 85.2682 151.665 85.5077 151.492 85.6982C151.319 85.8888 151.09 86.0208 150.839 86.0762C150.587 86.1316 150.325 86.1076 150.087 86.0075C149.85 85.9075 149.65 85.7363 149.514 85.5175C149.378 85.2987 149.313 85.0432 149.328 84.7861C149.344 84.5289 149.438 84.2829 149.6 84.0819C149.761 83.8809 149.98 83.7348 150.228 83.6637C150.475 83.5926 150.739 83.6 150.982 83.685C151.267 83.7528 151.513 83.9303 151.668 84.1789C151.822 84.4276 151.872 84.7272 151.807 85.0125Z" fill="#DB614D"/>
<path d="M142.215 79.9425C142.122 80.1842 141.956 80.3911 141.741 80.5348C141.526 80.6786 141.271 80.7521 141.013 80.7453C140.754 80.7385 140.503 80.6517 140.296 80.4968C140.089 80.3419 139.934 80.1266 139.854 79.8804C139.774 79.6342 139.773 79.3693 139.849 79.1221C139.926 78.8748 140.077 78.6575 140.283 78.4998C140.488 78.3422 140.737 78.252 140.996 78.2418C141.254 78.2315 141.51 78.3016 141.727 78.4425C141.99 78.5772 142.189 78.8107 142.281 79.0918C142.372 79.373 142.348 79.6789 142.215 79.9425Z" fill="#DB614D"/>
<path d="M152.467 79.1926C152.408 79.1925 152.351 79.1725 152.305 79.1357C152.259 79.099 152.226 79.0477 152.212 78.9902C151.958 78.2912 151.456 77.7096 150.802 77.3552C150.741 77.3232 150.695 77.2681 150.674 77.2021C150.652 77.1361 150.658 77.0644 150.69 77.0027C150.723 76.9406 150.78 76.8942 150.847 76.8731C150.914 76.8521 150.987 76.8582 151.05 76.8902C151.837 77.312 152.435 78.017 152.722 78.8626C152.738 78.9312 152.727 79.0033 152.691 79.0635C152.654 79.1238 152.596 79.1674 152.527 79.1852L152.467 79.1926Z" fill="#1A4850"/>
<path d="M146.152 74.7C146.108 74.7134 146.061 74.7134 146.017 74.7C145.378 74.3241 144.622 74.1985 143.895 74.3475C143.861 74.3578 143.826 74.3613 143.791 74.3578C143.757 74.3543 143.723 74.3438 143.692 74.3271C143.661 74.3103 143.634 74.2875 143.612 74.2601C143.591 74.2327 143.574 74.2012 143.565 74.1675C143.553 74.1351 143.549 74.1006 143.551 74.0663C143.554 74.0319 143.564 73.9985 143.58 73.9682C143.596 73.9378 143.619 73.9112 143.646 73.89C143.673 73.8688 143.704 73.8535 143.737 73.845C144.61 73.6499 145.525 73.7947 146.295 74.25C146.353 74.2871 146.395 74.3451 146.412 74.4121C146.428 74.479 146.419 74.5499 146.385 74.61C146.356 74.6421 146.32 74.6669 146.279 74.6826C146.239 74.6982 146.196 74.7042 146.152 74.7Z" fill="#1A4850"/>
<path d="M150.57 81.375C150.247 81.945 149.73 82.26 149.415 82.08C149.1 81.9 149.1 81.33 149.415 80.7225C149.73 80.115 150.247 79.8375 150.57 80.0175C150.892 80.1975 150.892 80.805 150.57 81.375Z" fill="#1A4850"/>
<path d="M144.128 77.9175C143.805 78.4875 143.288 78.8025 142.973 78.6675C142.658 78.5325 142.658 77.88 142.973 77.31C143.288 76.74 143.805 76.4175 144.128 76.5975C144.45 76.7775 144.45 77.3475 144.128 77.9175Z" fill="#1A4850"/>
<path d="M141.892 83.7749C141.892 83.7749 144.532 85.7849 146.437 85.8449C146.437 85.8449 144.404 87.4949 142.949 86.4299C142.536 86.1362 142.216 85.7294 142.029 85.2584C141.841 84.7874 141.793 84.2723 141.892 83.7749Z" fill="#1A4850"/>
<path d="M149.183 80.25C149.183 80.25 150.39 79.08 150.885 79.5C151.38 79.92 151.125 81.3525 151.125 81.3525H152.183L151.305 81C151.305 81 151.59 79.5 151.043 79.2C150.27 78.75 149.183 80.25 149.183 80.25Z" fill="#1A4850"/>
<path d="M144.622 77.8801C144.622 77.8801 144.997 76.2376 144.389 76.0276C143.782 75.8176 142.679 76.7776 142.679 76.7776L142.109 75.8851L142.859 76.4551C142.859 76.4551 143.992 75.4351 144.539 75.7426C145.327 76.1851 144.622 77.8801 144.622 77.8801Z" fill="#1A4850"/>
<path d="M153.263 72.975C153.052 72.6672 152.777 72.4079 152.458 72.2145C152.139 72.021 151.782 71.8978 151.412 71.8531C151.041 71.8084 150.666 71.8432 150.31 71.9552C149.954 72.0671 149.626 72.2537 149.348 72.5025C147.098 74.3175 141.945 77.2275 139.418 76.2525C136.89 75.2775 144.938 64.5375 151.92 67.6875C158.903 70.8375 158.273 81.0825 155.37 84.3375C152.468 87.5925 153.87 84.5625 153.87 84.5625C153.985 81.9661 154.374 79.3892 155.033 76.875C155.191 76.5045 155.27 76.1052 155.266 75.7023C155.261 75.2995 155.173 74.902 155.006 74.5352C154.84 74.1683 154.599 73.8402 154.299 73.5716C153.998 73.303 153.646 73.0998 153.263 72.975Z" fill="#F24052"/>
<path d="M145.5 82.7249C145.366 82.7253 145.232 82.7076 145.103 82.6724L145.245 82.1249C145.39 82.1832 145.551 82.188 145.7 82.1385C145.848 82.0891 145.974 81.9886 146.055 81.8549C146.126 81.7426 146.163 81.6126 146.163 81.4799C146.163 81.3472 146.126 81.2173 146.055 81.1049C145.988 81.0299 145.86 81.0374 145.688 81.1049L145.425 80.5949C145.582 80.4857 145.772 80.4348 145.963 80.4513C146.153 80.4677 146.332 80.5504 146.468 80.6849C146.623 80.8869 146.714 81.1319 146.726 81.3868C146.738 81.6417 146.671 81.8941 146.535 82.1099C146.436 82.2982 146.287 82.4555 146.105 82.5641C145.922 82.6727 145.713 82.7284 145.5 82.7249Z" fill="#DB614D"/>
<path d="M179.175 122.303C178.905 126.345 168.907 139.493 167.242 139.958C166.781 140.101 166.346 140.316 165.952 140.595L165.435 140.985C164.833 141.485 164.275 142.037 163.77 142.635C160.86 142.448 152.67 138.66 155.302 137.828C155.49 137.762 155.667 137.668 155.827 137.55C155.95 137.47 156.065 137.38 156.172 137.28C159.27 134.685 165.3 124.14 165.337 123.345C165.375 122.55 166.41 122.303 166.41 122.303C166.41 122.303 160.725 113.948 157.41 112.943C154.095 111.938 152.452 107.948 152.452 107.948C149.19 94.1701 158.662 96.3301 158.662 96.3301C165.652 100.5 179.452 118.253 179.175 122.303Z" fill="#8BBDDB"/>
<path d="M165.952 140.595L165.435 140.985C161.998 140.651 158.697 139.471 155.827 137.55C155.95 137.47 156.065 137.38 156.172 137.28C159.09 139.214 162.46 140.356 165.952 140.595Z" fill="#3E6575"/>
<path d="M124.424 93.225C124.349 93.3708 124.264 93.5112 124.169 93.645C123.554 93.6186 122.943 93.5433 122.339 93.42C119.783 92.8553 117.442 91.5725 115.589 89.7225C115.244 89.3875 114.944 89.0725 114.689 88.7775L115.057 88.56C115.274 88.8 115.522 89.07 115.807 89.31C117.66 91.196 120.034 92.4861 122.624 93.015C123.217 93.1376 123.819 93.2078 124.424 93.225Z" fill="#3E6575"/>
<path d="M169.11 152.572C168.248 154.114 167.049 155.441 165.603 156.454C164.156 157.468 162.499 158.14 160.755 158.423C160.68 158.31 160.597 158.175 160.522 158.04C162.289 157.773 163.968 157.095 165.424 156.061C166.881 155.027 168.074 153.665 168.907 152.085C168.975 152.25 169.042 152.422 169.11 152.572Z" fill="#3E6575"/>
<path d="M93.3299 228.338C92.5042 229.217 91.7889 230.194 91.1999 231.248C90.1199 233.123 91.3124 234.855 86.0774 239.22C86.0774 239.22 75.5099 233.033 70.7324 225.083C70.7769 224.42 71.0336 223.789 71.4645 223.284C71.8954 222.779 72.4777 222.426 73.1249 222.278C74.3699 221.993 77.7824 223.59 81.0599 224.205C81.5249 224.288 81.9974 224.363 82.4549 224.4C83.0133 224.46 83.5765 224.46 84.1349 224.4C84.6218 224.355 85.0995 224.239 85.5524 224.055C86.166 223.792 86.7084 223.387 87.1347 222.873C87.5611 222.359 87.8594 221.752 88.0049 221.1C88.0049 221.1 90.8099 222.698 88.9424 225.405C88.9499 225.398 92.2499 223.943 93.3299 228.338Z" fill="#CFD8DC"/>
<path d="M86.0774 239.25C86.0774 239.25 75.5099 233.062 70.7324 225.112C70.7324 225.112 72.5099 224.737 73.9724 227.362C75.4349 229.987 86.9324 235.965 86.0774 239.25Z" fill="#ADBEC4"/>
<path d="M86.1148 226.718C85.2598 228.075 85.2748 225.563 84.1348 224.393C84.6217 224.348 85.0993 224.232 85.5523 224.048C86.0623 224.603 86.7898 225.66 86.1148 226.718Z" fill="#ADBEC4"/>
<path d="M82.7921 226.793C81.8846 227.648 81.5921 225.405 81.0596 224.205C81.5246 224.287 81.9971 224.362 82.4546 224.4C82.9871 225.12 83.4821 226.133 82.7921 226.793Z" fill="#ADBEC4"/>
<path d="M158.332 255.795H143.385C143.018 254.361 143.018 252.857 143.385 251.423C143.655 250.433 145.2 249.503 146.647 248.213C147.053 247.854 147.434 247.468 147.787 247.057C148.071 246.717 148.322 246.35 148.537 245.962C148.818 245.478 149.025 244.955 149.152 244.41C149.404 243.035 149.229 241.617 148.65 240.345C148.65 240.345 153.742 239.28 155.557 242.055C155.557 242.055 155.73 240.772 157.342 241.627C157.212 243.204 157.24 244.789 157.425 246.36C157.755 248.505 159.75 249.127 158.332 255.795Z" fill="#CFD8DC"/>
<path d="M154.447 246.787C154.384 246.859 154.307 246.915 154.22 246.954C154.134 246.993 154.04 247.013 153.945 247.013C153.785 247.014 153.629 246.961 153.502 246.862C152.809 246.326 151.996 245.964 151.134 245.807C150.271 245.651 149.383 245.704 148.545 245.963C148.826 245.478 149.033 244.955 149.16 244.41C150.157 244.043 152.04 243.825 154.365 245.805C154.436 245.864 154.494 245.936 154.537 246.017C154.579 246.098 154.605 246.187 154.613 246.279C154.62 246.37 154.61 246.463 154.581 246.55C154.553 246.637 154.507 246.718 154.447 246.787Z" fill="#ADBEC4"/>
<path d="M153.187 249.27L153.105 249.397C153.011 249.545 152.863 249.651 152.692 249.693C152.522 249.735 152.342 249.71 152.19 249.622C151.177 249.022 148.89 247.89 146.647 248.212C147.053 247.854 147.434 247.468 147.787 247.057C148.703 246.843 149.657 246.85 150.57 247.077C151.483 247.304 152.328 247.744 153.037 248.362C153.17 248.469 153.258 248.62 153.286 248.788C153.313 248.955 153.278 249.127 153.187 249.27Z" fill="#ADBEC4"/>
</svg>
