<svg width="215" height="80" viewBox="0 0 215 80" fill="none" xmlns="http://www.w3.org/2000/svg">
<path d="M95.5823 42.1222C95.5823 50.0062 89.4549 55.8157 81.9352 55.8157C74.4155 55.8157 68.2881 50.0062 68.2881 42.1222C68.2881 34.1828 74.4155 28.4288 81.9352 28.4288C89.4549 28.4288 95.5823 34.1828 95.5823 42.1222ZM89.6083 42.1222C89.6083 37.1956 86.0569 33.8247 81.9352 33.8247C77.8135 33.8247 74.2621 37.1956 74.2621 42.1222C74.2621 46.9995 77.8135 50.4198 81.9352 50.4198C86.0569 50.4198 89.6083 46.9934 89.6083 42.1222Z" fill="#EA4335"/>
<path d="M125.024 42.1222C125.024 50.0062 118.896 55.8157 111.377 55.8157C103.857 55.8157 97.7295 50.0062 97.7295 42.1222C97.7295 34.189 103.857 28.4288 111.377 28.4288C118.896 28.4288 125.024 34.1828 125.024 42.1222ZM119.05 42.1222C119.05 37.1956 115.498 33.8247 111.377 33.8247C107.255 33.8247 103.704 37.1956 103.704 42.1222C103.704 46.9995 107.255 50.4198 111.377 50.4198C115.498 50.4198 119.05 46.9934 119.05 42.1222Z" fill="#FBBC05"/>
<path d="M153.238 29.2561V53.8401C153.238 63.9527 147.313 68.0829 140.308 68.0829C133.715 68.0829 129.747 63.644 128.25 60.0138L133.451 57.8345C134.377 60.0632 136.647 62.6932 140.302 62.6932C144.786 62.6932 147.564 59.9089 147.564 54.6673V52.6979H147.356C146.019 54.3587 143.443 55.8095 140.192 55.8095C133.39 55.8095 127.158 49.8456 127.158 42.1716C127.158 34.4421 133.39 28.4288 140.192 28.4288C143.437 28.4288 146.013 29.8797 147.356 31.491H147.564V29.2623H153.238V29.2561ZM147.988 42.1716C147.988 37.3499 144.792 33.8247 140.726 33.8247C136.604 33.8247 133.151 37.3499 133.151 42.1716C133.151 46.944 136.604 50.4198 140.726 50.4198C144.792 50.4198 147.988 46.944 147.988 42.1716Z" fill="#4285F4"/>
<path d="M162.592 14.8466V54.9761H156.765V14.8466H162.592Z" fill="#34A853"/>
<path d="M185.297 46.6291L189.934 49.7407C188.438 51.9694 184.831 55.8095 178.6 55.8095C170.871 55.8095 165.1 49.7963 165.1 42.1161C165.1 33.9729 170.92 28.4227 177.931 28.4227C184.991 28.4227 188.444 34.0778 189.572 37.1339L190.192 38.6896L172.006 46.271C173.398 49.0184 175.563 50.4198 178.6 50.4198C181.642 50.4198 183.752 48.9134 185.297 46.6291ZM171.025 41.7024L183.181 36.6214C182.513 34.9113 180.501 33.7198 178.133 33.7198C175.097 33.7198 170.871 36.4177 171.025 41.7024Z" fill="#EA4335"/>
<path d="M46.232 38.56V32.7505H65.6815C65.8716 33.763 65.9697 34.9607 65.9697 36.2572C65.9697 40.6159 64.786 46.0056 60.9709 49.8457C57.2601 53.7351 52.5189 55.8095 46.2382 55.8095C34.5967 55.8095 24.8076 46.2649 24.8076 34.5471C24.8076 22.8293 34.5967 13.2846 46.2382 13.2846C52.6784 13.2846 57.2663 15.8282 60.7133 19.1435L56.6406 23.2429C54.1688 20.9092 50.8199 19.0941 46.232 19.0941C37.731 19.0941 31.0822 25.9902 31.0822 34.5471C31.0822 43.1039 37.731 50 46.232 50C51.7461 50 54.8865 47.7713 56.8983 45.7463C58.5298 44.1041 59.6031 41.758 60.0264 38.5538L46.232 38.56Z" fill="#4285F4"/>
</svg>
